<?xml version="1.0" encoding="UTF-8"?>
<svg width="102px" height="102px" viewBox="0 0 102 102" version="1.1" xmlns="http://www.w3.org/2000/svg" xmlns:xlink="http://www.w3.org/1999/xlink">
    <!-- Generator: Sketch 48.2 (47327) - http://www.bohemiancoding.com/sketch -->
    <title>logo_nav_desktop</title>
    <desc>Created with Sketch.</desc>
    <defs></defs>
    <g id="Page-1" stroke="none" stroke-width="1" fill="none" fill-rule="evenodd">
        <g id="logo_nav_desktop">
            <g id="Group" transform="translate(2.000000, 2.000000)">
                <path d="M45.9974771,91.0277603 C46.1925448,91.0007626 46.3659382,90.9171078 46.360995,90.6448497 C46.356432,90.4011102 46.1955868,90.2847541 45.9887314,90.2805714 C45.7590611,90.2763886 45.5890899,90.3988287 45.5925122,90.6638621 C45.5951739,90.9053201 45.7381474,91.0076071 45.9974771,91.0277603 Z M49.8980694,90.9790884 L49.8980694,87.3393469 C48.9299559,87.4290856 48.5455244,87.6093235 48.6200531,87.9363375 C48.8253875,87.9926143 49.0387071,87.8663717 49.292333,87.9800661 L49.292333,90.9790884 L49.8980694,90.9790884 Z M42.8311453,87.866752 L43.9947067,87.866752 L43.9947067,90.9779477 C44.2300807,90.9961996 44.4213458,91.0269998 44.6521569,90.9368808 L44.6521569,87.8416555 L45.7567796,87.8416555 C45.7430907,87.6675016 45.8354911,87.518444 45.71153,87.4081719 L42.8311453,87.4081719 L42.8311453,87.866752 Z M40.1861347,90.8300309 C40.6066899,91.0505752 41.0238228,91.1015285 41.4523632,91.0665456 C41.9402224,91.0250985 42.4166742,90.6695659 42.5277068,90.2741071 C42.6725816,89.7600107 42.3900567,89.4329968 42.0162722,89.1603584 C41.759224,88.973276 41.4805016,88.8169937 41.2226929,88.6302915 C41.0375117,88.4972045 40.8367404,88.3363592 40.9283803,88.0728468 C41.025724,87.7945047 41.288476,87.767507 41.5371587,87.7907022 C41.757703,87.8116159 41.974825,87.8701742 42.1991718,87.9139028 C42.2615326,87.7682675 42.3832123,87.6560941 42.314007,87.4815599 C41.9782473,87.3070257 41.6151097,87.3005615 41.2508313,87.3180529 C40.8002365,87.3397271 40.470941,87.5507652 40.3142785,87.9838686 C40.165221,88.3952978 40.3161798,88.7386625 40.6291245,88.9972316 C40.9082272,89.2280427 41.2261152,89.4101818 41.52385,89.6181779 C41.7405918,89.7687565 41.9706423,89.9379672 41.8592294,90.2425465 C41.750098,90.5406615 41.4671929,90.619373 41.1835273,90.5919951 C40.9032839,90.5653777 40.6279838,90.4824835 40.3572466,90.4254461 C40.25534,90.544464 40.2074286,90.6661436 40.1861347,90.8300309 Z M57.157019,89.0595924 C57.2866839,89.288122 57.4380229,89.3390753 57.6406955,89.3436383 C58.0049738,89.3527643 58.2464318,89.5497332 58.284837,89.920856 C58.3186791,90.2531934 58.0045936,90.5649975 57.629288,90.6189928 C57.3201457,90.6634819 57.0349591,90.544464 56.7395058,90.481723 C56.6524288,90.5976989 56.5668729,90.7011265 56.6048977,90.8558878 C56.9805836,91.0558987 57.3851683,91.0965853 57.7981185,91.0676864 C58.4118401,91.0247183 58.8943758,90.5878124 58.9555958,90.0356911 C59.0137739,89.5041033 58.740375,89.1660621 58.0768409,88.9443771 C58.0258875,88.9272659 57.9813984,88.8903817 57.9095314,88.8493149 C58.2483331,88.4325622 58.5696433,88.0378639 58.9696651,87.5465825 C58.1783673,87.2256525 57.4448674,87.4488585 56.7299996,87.362542 C56.683229,87.5598912 56.671061,87.7024845 56.7322811,87.9036361 L58.0506037,87.9036361 C57.714844,88.3382605 57.4391636,88.6945536 57.157019,89.0595924 Z M37.6076675,87.388399 L37.6076675,90.9745254 L39.7537918,90.9745254 C39.8028439,90.8205247 39.8218563,90.6813536 39.7195694,90.5049181 L38.2282336,90.5049181 C38.2738634,90.1102199 38.1807025,89.7516453 38.2921154,89.3732977 L39.2959722,89.3732977 C39.3450243,89.199524 39.3560515,89.05579 39.287987,88.874031 L38.2597942,88.874031 L38.2597942,87.8614285 L39.682305,87.8614285 C39.7077817,87.6796695 39.7522708,87.5374565 39.6564481,87.388399 L37.6076675,87.388399 Z M51.0776011,91.1490596 C51.6639448,91.0874593 52.2004759,90.9030386 52.6571547,90.5208886 C53.513475,89.8033591 53.6054952,88.2511835 52.8351111,87.5903111 C52.4058102,87.2210895 51.7266859,87.2104425 51.2772318,87.5659751 C50.8327209,87.9165645 50.6802411,88.5451158 50.9175164,89.045143 C51.1411027,89.515891 51.6559596,89.6911857 52.2936368,89.5238762 C52.3883188,89.4987798 52.4731143,89.3907892 52.6008778,89.4786266 C52.5259688,89.8558334 52.2818491,90.1102199 51.9863958,90.3338062 C51.6814362,90.5653777 51.3019479,90.633062 50.9669487,90.7840208 C50.964287,90.9311771 50.9905242,91.0418295 51.0776011,91.1490596 Z M54.464097,89.1584571 C53.7948591,89.8318778 53.7127253,90.3239197 54.1941203,90.7665293 C54.6854018,91.2175044 55.5873519,91.1749165 56.0501147,90.6786919 C56.512117,90.1832277 56.3843534,89.7003117 55.6132089,89.0238491 C56.2349157,88.5112737 56.3512718,88.0903382 55.9877539,87.6621781 C55.6284188,87.2382007 54.8139259,87.1800226 54.3747385,87.547343 C53.8838373,87.9572512 53.9146375,88.5127947 54.464097,89.1584571 Z M63.6037572,82.0998986 C63.43987,81.900268 63.2554493,81.9420953 63.0805349,81.9280261 C62.5154851,81.8823963 62.3424719,81.7340993 62.3386694,81.165247 C62.3249805,78.9175964 62.3329657,76.6699457 62.3261212,74.422295 C62.3249805,73.9755027 62.5192876,73.7427904 62.9717837,73.723778 C63.0930831,73.7184545 63.2584913,73.7659856 63.3037409,73.5237671 L59.6563944,73.5237671 C59.6913773,73.7066668 59.782637,73.7059063 59.875798,73.719215 C60.5784977,73.8215019 60.6724192,73.9329148 60.6735599,74.6595703 C60.6747007,75.3128377 60.6811649,75.9664854 60.6724192,76.6189924 C60.6518858,78.1677457 60.7233725,79.7164991 60.6302116,81.264492 C60.6039744,81.7013979 60.430581,81.9497003 59.9628749,81.9348706 C59.8533633,81.9314484 59.7065872,81.9021692 59.6590561,82.2154942 C60.9895467,82.1348815 62.2983631,82.2063683 63.6037572,82.0998986 Z M52.1890684,82.063775 C52.2989603,82.2774748 52.4898452,82.2101708 52.639283,82.1991435 C54.1572362,82.0938146 55.6736684,82.2424919 57.1908612,82.218156 C58.4646946,82.1972423 58.3776177,82.4812882 58.5719248,80.9325348 C58.5970212,80.7321437 58.6799155,80.4929672 58.4757219,80.3058847 C58.3038494,80.3910605 58.3323681,80.5443007 58.2981457,80.6694026 C58.1673401,81.1462346 57.8589583,81.4344632 57.3638744,81.4675448 C56.7889382,81.5067105 56.209439,81.5329476 55.636404,81.4447299 C55.0337097,81.351569 54.8656397,81.1964274 54.8595557,80.5815651 C54.8397828,78.5008437 54.8504298,76.4189815 54.8496693,74.3374995 C54.8496693,73.9466038 55.0591864,73.7701683 55.4379142,73.7272002 C55.6071249,73.7081878 55.8345137,73.8135167 55.980149,73.5268091 L52.0651073,73.5268091 C52.1845054,73.7815758 52.3601804,73.7078075 52.4982107,73.7275805 C52.9951959,73.7983067 53.1857005,73.9728409 53.1876018,74.4587989 C53.1948265,76.5399006 53.2058537,78.6217628 53.1826585,80.7032447 C53.1716313,81.7238325 53.1396904,81.7234523 52.2301353,81.9934289 C52.2202488,81.9964709 52.2160661,82.0173846 52.1890684,82.063775 Z M39.670137,73.5192041 C39.8146316,73.7903215 40.006277,73.708568 40.157616,73.7275805 C40.5485118,73.777393 40.8177279,73.9287321 40.8295156,74.3736232 C40.8762863,76.1360764 40.9481533,77.9000506 40.7899698,79.6590815 C40.6812186,80.8678925 39.8591207,81.6135604 38.6525913,81.6671755 C37.447963,81.7207905 36.5114102,81.0610589 36.3288908,79.8781048 C36.0383807,77.9932115 36.1923815,76.0889255 36.2368706,74.1926247 C36.2440953,73.8773985 36.4836521,73.7724498 36.7669374,73.7302422 C36.906869,73.7093285 37.1114429,73.7967857 37.1711419,73.5591302 C36.7718807,73.4066505 33.573608,73.4435346 33.3454587,73.5982959 C33.4515481,73.7937437 33.6431935,73.7074273 33.7956733,73.72682 C34.3341056,73.7948845 34.4846841,73.9374778 34.5029361,74.4785718 C34.5185263,74.9185197 34.5036966,75.3599886 34.5143435,75.8003167 C34.5432424,77.0304216 34.4398148,78.2631882 34.5850698,79.4910116 C34.750478,80.8914679 35.5277066,81.8458924 36.8125673,82.1820323 C37.6008231,82.3885074 38.4088518,82.4170261 39.2088953,82.2820378 C40.6382505,82.04096 41.5740428,81.1374889 41.8683554,79.7579462 C41.976346,79.2503141 41.996119,78.7346967 41.99764,78.2167978 C42.0018227,77.0000017 42.0128499,75.7843462 42.0307216,74.5686908 C42.0402278,73.8880454 42.1143764,73.8108549 42.7600388,73.7211162 C42.8646072,73.7066668 42.9805831,73.7241582 43.0182278,73.5192041 L39.670137,73.5192041 Z M44.8320146,63.8259016 C44.6593816,63.8973884 44.6532976,64.0046186 44.6282012,64.1095672 C44.4350348,64.9293836 44.1194283,65.1898541 43.2805994,65.2621014 C42.7334214,65.3092522 42.1885249,65.283015 41.6424876,65.2529754 C40.6321665,65.1974591 40.39299,65.0042927 40.3614294,64.0046186 C40.2846191,61.5432681 40.319602,59.0807768 40.3564861,56.6194263 C40.3667529,55.929655 40.547371,55.7908642 41.2428461,55.7395306 C41.4158593,55.7266021 41.6523741,55.8216643 41.7333671,55.4976923 L36.9532594,55.4976923 C37.0095362,55.7421923 37.1551715,55.7258416 37.289019,55.7395306 C38.1867865,55.831931 38.3301403,55.9885935 38.3305205,56.8719115 C38.3309008,59.2275528 38.3335625,61.5831942 38.3274785,63.9392158 C38.326718,64.3179436 38.3012414,64.6985726 38.2575127,65.0746387 C38.1879272,65.6723898 38.0787958,65.76441 37.4894102,65.8085189 C37.3342687,65.8199263 37.1369195,65.7655508 37.1171466,66.0172755 C37.2361645,66.2066394 37.4205851,66.1366736 37.5776279,66.1393353 C38.412274,66.1530243 39.2438781,66.0640461 40.081186,66.0971277 C41.4170001,66.1492218 42.7543351,66.1522638 44.0909096,66.1674738 C44.3137354,66.1701355 44.5954998,66.1952319 44.6863793,65.934001 C44.9054026,65.299746 44.9749881,64.6373526 44.942667,63.9669739 C44.9403855,63.9213441 44.8749827,63.8791365 44.8320146,63.8259016 Z M54.1131273,63.855561 C53.8020838,63.8548005 53.8492347,64.0350385 53.8142518,64.1517748 C53.570132,64.9753938 53.2993949,65.1852911 52.4225412,65.2628618 C51.8597729,65.3126744 51.3000467,65.281494 50.7391797,65.2472716 C49.8250616,65.1917553 49.5820826,64.9658875 49.5543244,64.0536707 C49.4782747,61.5634212 49.4904426,59.0724113 49.5467195,56.5817817 C49.5611689,55.9509489 49.7368439,55.7973284 50.3718594,55.7433331 C50.5616035,55.7273626 50.80078,55.8159606 50.9684697,55.5003541 L46.1328457,55.5003541 C46.2252462,55.7992296 46.4176521,55.7277429 46.5708923,55.7391503 C47.2618044,55.7897234 47.4762647,55.9672996 47.4971784,56.6528882 C47.5713269,59.0514976 47.533302,61.4520083 47.5165711,63.8521388 C47.5135291,64.2460765 47.4861512,64.6411551 47.4530696,65.0347126 C47.403257,65.6275204 47.2568612,65.7640298 46.6663348,65.8081386 C46.509292,65.8195461 46.3184071,65.7746767 46.2807625,66.0085298 C46.4005409,66.1929504 46.5815393,66.1381946 46.741624,66.1404761 C47.5755097,66.1518835 48.4067336,66.0648066 49.2436612,66.095987 C50.5939247,66.1454193 51.9464697,66.1480811 53.2978739,66.164812 C53.5229812,66.1674738 53.7929578,66.1823035 53.8781336,65.9123268 C54.0880309,65.2487926 54.1678832,64.5673868 54.1131273,63.855561 Z M48.821585,77.197731 C48.9394621,77.1019083 49.0295811,77.0285203 49.1197001,76.9543718 C49.5915888,76.5703205 49.9471215,76.11098 50.0646183,75.4953571 C50.244476,74.5504389 49.5980531,73.7203557 48.4717561,73.5545672 C47.0070377,73.3382057 45.5271094,73.5298511 44.0551662,73.464068 C43.9745535,73.4602655 43.9102915,73.5013324 43.8791111,73.5815649 C44.0779812,73.7081878 44.0779812,73.7078075 44.2703871,73.7260595 C44.8707999,73.7827165 45.0635861,73.9572507 45.0635861,74.5508191 C45.0635861,76.6798322 45.0723318,78.8080847 45.0225192,80.935957 C44.999324,81.9352509 44.9419065,81.8614826 44.1255123,81.9740362 C44.1076406,81.976698 44.0950924,82.0200464 44.0673342,82.0633947 C44.1650582,82.2831785 44.3749555,82.204467 44.533139,82.1991435 C45.3221553,82.1721459 46.1092703,82.1500914 46.899047,82.198383 C47.5196131,82.2360277 48.1432211,82.2618846 48.7622662,82.1314593 C49.9109978,81.889621 50.7551502,81.102506 50.9140942,80.1073949 C51.0783616,79.0788219 50.5939247,78.1783927 49.5330305,77.5585871 C49.3162887,77.431584 49.0843369,77.3304379 48.821585,77.197731 Z M79.6654667,51.143083 C79.4228679,50.8734866 79.0924317,50.9974477 78.8182723,50.9609439 C78.3558898,50.9004843 78.1440912,50.667772 78.1170935,50.2236414 C78.0946589,49.8449136 78.049029,49.4665661 78.0471278,49.0878383 C78.03534,46.6869473 78.0326783,44.2856761 78.0311573,41.8844049 C78.0311573,41.7239399 77.9794435,41.5520675 78.0957996,41.3858988 C78.9513594,41.462709 79.8217489,41.3296219 80.677689,41.5094796 C81.1860816,41.6167098 81.6054961,41.8254664 81.6039751,42.4475534 C81.6035948,42.5604873 81.6568296,42.6540285 81.9017099,42.6334951 C81.955325,41.9102619 81.9621694,41.1748607 81.9408755,40.4063778 C81.5446562,40.4466842 81.2149805,40.5082845 80.8849246,40.5098055 C78.5749131,40.5185512 76.2652819,40.51665 73.9556506,40.5143685 C73.682632,40.5139882 73.4069516,40.5113265 73.1373552,40.4744424 C72.2555582,40.3535233 72.2487138,40.345538 72.0833055,41.237982 C72.0053545,41.6551149 71.8251166,42.0695861 71.9547814,42.4924228 C72.171143,42.5620083 72.2027037,42.4232175 72.236926,42.3121848 C72.4346554,41.6722261 72.9190924,41.4532028 73.5301522,41.4448373 C74.3473069,41.4334299 75.1648418,41.4417953 76.0048114,41.4417953 C76.0629895,41.5079586 76.0352313,41.6189913 76.0352313,41.7216584 C76.0367523,44.0925097 76.0424561,46.463361 76.0314289,48.8342123 C76.0291474,49.3338592 76.0276264,49.8335062 75.9565198,50.3339136 C75.8922578,50.7852689 75.6485183,50.9575216 75.2332866,50.9928848 C75.0849896,51.0058132 74.8849787,50.912272 74.8108302,51.1449843 C75.0743426,51.3373902 79.3426354,51.3472766 79.6654667,51.143083 Z M72.9308801,79.9263964 C72.7704151,79.734751 72.6487355,79.5659206 72.5038607,79.4210458 C70.5543251,77.458962 68.6013672,75.5003004 66.6472686,73.5431598 C66.5115198,73.4066505 66.3750105,73.1997951 66.1556069,73.2940968 C65.9635813,73.3762306 66.0008457,73.6017181 65.9978037,73.781956 C65.9666233,75.7866277 65.9381046,77.7920599 65.905023,79.7971119 C65.8966575,80.3134897 65.8810673,80.8298676 65.8574919,81.345485 C65.8392399,81.7280153 65.6251599,81.9135767 65.2430098,81.9325891 C65.0924313,81.9409546 64.9007859,81.8641443 64.7452641,82.1961015 C65.8799266,82.1961015 66.9526084,82.1980028 68.0252903,82.1938201 C68.125676,82.1930596 68.1918393,82.124995 68.1587576,82.0059771 C68.0579917,81.9169989 67.9332701,81.9405744 67.813872,81.9295471 C67.2355135,81.8801148 67.0746683,81.7379017 67.0035618,81.1568816 C66.9666776,80.8561048 66.9590727,80.5503847 66.9583122,80.2469462 C66.9537492,78.8419269 66.9564109,77.4372878 66.9564109,75.9740904 C67.098624,76.1398789 67.2564272,76.335707 67.4271589,76.5201277 C69.2371432,78.4711843 71.1988468,80.2667191 73.1259477,82.0983776 C73.2723435,82.2364079 73.4404135,82.3809025 73.6484096,82.3059935 C73.8853046,82.2204375 73.8244648,81.9789795 73.8282673,81.7903761 C73.8579267,80.3172922 73.8796009,78.8438281 73.9077393,77.370364 C73.9263715,76.3832381 73.9484259,75.3968727 73.9754236,74.4093666 C73.986831,73.9819669 74.1830394,73.7230175 74.6435207,73.7184545 C74.7534126,73.7169335 74.9009492,73.7564794 74.9332703,73.5230066 L71.6939308,73.5230066 C71.7604743,73.7519164 71.8988849,73.7074273 72.0133397,73.717694 C72.7206025,73.7754918 72.875744,73.9329148 72.901601,74.6443603 C72.9179517,75.0846884 72.9285986,75.5250165 72.9297394,75.9664854 C72.9331616,77.2498251 72.9308801,78.5331648 72.9308801,79.9263964 Z M78.8243563,69.5737425 L17.2780455,69.5737425 C17.2438231,69.7330668 17.2297539,69.8676749 17.286411,70.0110287 L78.833102,70.0110287 C78.8772109,69.8513242 78.8870974,69.7189976 78.8243563,69.5737425 Z M22.7646555,82.0884911 C22.9528787,82.3018107 23.2144898,82.2116918 23.4338934,82.1949608 C24.3613202,82.1238543 25.2830433,82.1892571 26.2051467,82.2611241 C27.0728744,82.3291886 27.9345182,82.3090354 28.7881768,82.1246148 C31.3137894,81.579338 32.7598755,79.4997573 32.3883725,76.9460063 C32.1164946,75.0729007 30.6396082,73.7709288 28.5383533,73.5519055 C26.6435736,73.3541761 24.7427098,73.5332733 22.8456485,73.4598853 C22.7403196,73.4557026 22.6277659,73.4522803 22.5707286,73.6017181 C22.7106602,73.7853783 22.9270217,73.7013433 23.1084004,73.7317632 C23.470017,73.7933635 23.7373319,73.9329148 23.7456974,74.3622157 C23.7890458,76.6406665 23.8050162,78.9191174 23.7225022,81.1968077 C23.7015886,81.7751661 23.5962596,81.8611024 23.0236049,81.9337299 C22.9216983,81.9466583 22.8015396,81.9257447 22.7646555,82.0884911 Z M77.8410329,55.5611939 C77.9045345,55.7657677 78.0714637,55.7285034 78.215578,55.7380096 C79.1407233,55.8011309 79.3057513,55.9787071 79.3057513,56.9179216 C79.3065118,59.2138639 79.3103143,61.5094259 79.3023291,63.8053682 C79.3008081,64.2445556 79.2521362,64.6837429 79.225899,65.1233105 C79.1989014,65.5799893 78.9684706,65.8149831 78.4992436,65.8111806 C78.3342156,65.8092794 78.1159528,65.7457778 78.0851526,66.0245002 C78.2117755,66.1994146 78.3935344,66.1374341 78.5517179,66.1400958 C79.3262847,66.1534045 80.0970491,66.0663276 80.8738974,66.0952265 C82.1948817,66.1450391 83.5170068,66.1488416 84.8387516,66.1705157 C85.0775479,66.1743182 85.3003737,66.1446588 85.3707197,65.85605 C85.5121723,65.278452 85.5916443,64.6936294 85.5828985,64.09854 C85.580617,64.0030976 85.5391699,63.9240058 85.4243348,63.9008106 C85.2589266,63.9741987 85.261208,64.1331427 85.2345906,64.2783977 C85.125079,64.8769093 84.7775316,65.2092468 84.1645705,65.2803533 C83.5272735,65.3548821 82.892258,65.379218 82.2587635,65.2681853 C81.5507402,65.143844 81.3153662,64.8864155 81.304339,64.1658441 C81.2876081,63.1178783 81.2990155,62.0680114 81.302818,61.018905 C81.302818,60.9485589 81.3370404,60.8778326 81.3378009,60.8751709 C82.1637013,60.8751709 82.9527176,60.850835 83.7386918,60.8846771 C84.2333955,60.9052106 84.4486164,61.1767082 84.5071747,61.6797774 C84.5223846,61.812104 84.4379694,61.9999469 84.7748698,62.0653497 C84.8516801,61.237548 84.9277298,60.4253366 85.0091031,59.5545668 C83.7858427,60.303657 82.5439501,59.8937487 81.3294354,60.0466088 L81.3294354,56.2486837 C82.2062892,56.328536 83.0561452,56.2258688 83.8972556,56.3642794 C84.4748535,56.4593416 84.6220098,56.6308338 84.724677,57.2244021 C84.7433092,57.3323928 84.6953978,57.4799293 84.9528263,57.5415297 C85.1604421,56.8133532 85.1151925,56.0627421 85.2399141,55.2535726 C84.5486218,55.5090998 83.9246335,55.4665119 83.3040675,55.4646107 C81.6473234,55.4566255 79.9905794,55.4417958 78.3342156,55.4368525 C78.1680469,55.4364723 77.9684163,55.3634645 77.8410329,55.5611939 Z M55.4683341,65.9830531 C55.581268,66.2081604 55.7687306,66.1362933 55.9234919,66.1397156 C56.7125082,66.1560663 57.4988627,66.0663276 58.2909209,66.097508 C59.5963151,66.1488416 60.9039907,66.1518835 62.2105256,66.1689947 C62.3877215,66.1712762 62.6295598,66.2058789 62.6934416,65.999784 C62.9025784,65.3252227 63.0919423,64.6403946 62.880524,63.9262873 C62.8771018,63.9137391 62.8269089,63.9156403 62.7824198,63.9084156 C62.6576982,63.9886481 62.651234,64.1377056 62.6307005,64.2624272 C62.5261321,64.8936403 62.1527278,65.21419 61.527979,65.2841558 C60.8754721,65.3567833 60.2248664,65.3834007 59.5773026,65.2544964 C58.974228,65.134718 58.7198416,64.8845143 58.7008291,64.2704125 C58.6681278,63.2068566 58.6879007,62.1421599 58.6799155,61.0778435 C58.677634,60.861482 58.7677529,60.7770667 58.9799318,60.7869532 C59.6784488,60.8181336 60.3769659,60.8284003 61.0735817,60.8740302 C61.6340684,60.910534 61.8234323,61.1246141 61.8895956,61.7101973 C61.9044253,61.8383411 61.8660202,61.9934826 62.0447371,62.0455767 C62.2527332,61.7934718 62.4352526,59.8808203 62.2500715,59.5439198 C62.0010085,59.8990722 61.6386314,59.9762627 61.2503974,59.9838677 C60.5062505,59.9983172 59.7617233,60.0070629 59.0179567,60.0313988 C58.7567257,60.0401445 58.6749722,59.9363366 58.6772537,59.6830909 C58.6871402,58.6503352 58.6882809,57.6156782 58.6764932,56.5817817 C58.6734512,56.3061013 58.7974123,56.2471627 59.0362086,56.2570492 C59.6434659,56.2806246 60.2514838,56.2844271 60.8583609,56.3110445 C61.8226718,56.3536324 61.9991073,56.5163789 62.1599525,57.4658601 C62.1633748,57.4860133 62.2052021,57.4997023 62.3143335,57.5746113 C62.6128288,56.8300841 62.4424774,56.0597001 62.6827946,55.2497701 C61.8991018,55.5136628 61.2165552,55.4665119 60.5381914,55.4638502 C58.9266969,55.4570057 57.315963,55.442176 55.7048488,55.4357118 C55.5379196,55.4353315 55.3424717,55.3801955 55.2166094,55.5726013 C55.4481809,55.7277429 55.4481809,55.7277429 55.6717672,55.7395306 C56.4854996,55.7832592 56.686271,55.987833 56.6870315,56.7981432 C56.6904537,59.2005552 56.692355,61.6029671 56.6855105,64.0057593 C56.6843697,64.3985563 56.6782858,64.7924941 56.614404,65.1860516 C56.5470999,65.6016635 56.3425261,65.8077584 55.9196894,65.8088991 C55.7630269,65.8096596 55.576705,65.759847 55.4683341,65.9830531 Z M63.0630434,40.5896578 C63.2638148,40.7915699 63.2638148,40.7915699 63.4493762,40.8018366 C64.2889656,40.8486072 64.5026654,41.0619268 64.5064679,41.8832642 C64.5148333,43.5559787 64.5228186,45.2286932 64.5201568,46.9014076 C64.5186358,48.0105934 64.5547595,49.1209199 64.4380231,50.2270637 C64.3779438,50.7932541 64.240674,50.9271017 63.6760045,50.9921243 C63.5288482,51.0092355 63.3254151,50.9217782 63.2729408,51.1887129 C63.4109711,51.3560224 63.6075597,51.2993653 63.7767704,51.2940418 C65.0236062,51.2598194 66.2696816,51.2678046 67.5157569,51.2963233 C68.365613,51.3153357 69.2162296,51.326363 70.0657054,51.3373902 C70.3349215,51.3411927 70.5528041,51.2510737 70.5972932,50.9521981 C70.6737232,50.443045 70.7410273,49.9308499 70.7988251,49.4182745 C70.8132745,49.2905109 70.8098523,49.1418336 70.6478663,49.0726283 C70.425801,49.1315669 70.4752333,49.3315777 70.4341665,49.480255 C70.3257956,49.8753335 70.1683726,50.2487379 69.7307062,50.3571088 C68.8770476,50.5696678 68.0127421,50.5708086 67.1590835,50.363573 C66.7883409,50.2730738 66.5632337,49.9973934 66.531673,49.6080186 C66.4331886,48.3817162 66.5541077,47.1561743 66.5111396,45.8884248 C67.3876131,45.9074373 68.2188369,45.8538222 69.0466386,45.9762623 C69.4493221,46.0359614 69.6519947,46.2800811 69.707511,46.6755399 C69.7280444,46.8253579 69.6405872,47.0173835 69.9653197,47.1782288 C70.0504954,46.3177257 70.1303477,45.5108378 70.2178049,44.6317025 C68.9873198,45.4066496 67.7404839,44.9172694 66.545362,45.115379 L66.545362,41.3417899 C67.4256379,41.3281009 68.273973,41.3387479 69.1185056,41.4341903 C69.6364045,41.4927487 69.8504846,41.7387696 69.9193096,42.2661747 C69.9360405,42.3935581 69.8949737,42.5475588 70.1596268,42.6312136 C70.3653414,41.9045581 70.3037411,41.1581297 70.4417714,40.438699 C67.950001,40.6398506 65.5038605,40.4580917 63.0630434,40.5896578 Z M21.7980631,63.4410898 C21.568773,63.5281668 21.6170646,63.7335012 21.5638298,63.8795167 C21.3265545,64.5301224 20.9288143,65.0480213 20.2512109,65.2305407 C18.3408409,65.7465383 16.2973839,65.359445 15.0117627,63.6270315 C13.6656819,61.8140052 13.6580769,59.8127558 14.5440566,57.8061828 C14.9452191,56.8973882 15.7247292,56.3433657 16.7038698,56.1422141 C17.68225,55.9418229 18.6674747,55.9490477 19.6397708,56.2068564 C20.6656821,56.4791145 21.3930981,57.0304753 21.4527971,58.1902341 C21.4581206,58.2989853 21.4771331,58.4278896 21.6067979,58.4309316 C21.7885568,58.4362551 21.8125125,58.2852963 21.8189767,58.141182 C21.8433127,57.5951447 21.8619449,57.0494877 21.8908438,56.5030702 C21.9345724,55.6627203 21.9387551,55.6562561 21.1105732,55.5113813 C19.3640905,55.206802 17.6092422,55.0254233 15.866562,55.4855244 C13.5911531,56.0859372 12.1477287,57.5384877 11.8241369,59.8903265 C11.5214589,62.0908263 12.2100895,63.9802826 14.1573436,65.1978393 C16.3536607,66.5720585 18.7640579,66.5370756 21.2060157,66.0366682 C21.5117357,65.9739271 21.6550895,65.7385531 21.7071836,65.4514653 C21.8014853,64.9290034 21.8893228,64.4050205 21.9684145,63.879897 C21.9927504,63.7205727 22.0178469,63.5403348 21.7980631,63.4410898 Z M71.8262573,60.8846771 C71.9734136,61.2029454 72.2080271,61.1116857 72.4053763,61.1356413 C73.0050286,61.2075084 73.2160667,61.4048575 73.2324174,62.0014679 C73.2567533,62.8825043 73.2616966,63.7643013 73.2662596,64.645718 C73.2696818,65.2518346 73.1510442,65.4309318 72.5536733,65.4872086 C71.0425646,65.6313229 69.6394465,65.3263634 68.4960383,64.2647087 C67.0396854,62.9129242 66.7183752,61.1801304 66.9461442,59.2959976 C67.0712461,58.2613406 67.4994062,57.3761214 68.358008,56.7392047 C69.78242,55.682113 72.7171803,55.7923852 74.0586981,56.9555662 C74.3906553,57.2422738 74.5990316,57.6012287 74.6693776,58.0438383 C74.6918123,58.1879526 74.6526467,58.4400576 74.8960059,58.4145809 C75.1066638,58.393287 75.0865106,58.1677994 75.0903131,58.0061937 C75.1066638,57.3076766 75.0629351,56.6072583 75.1766295,55.912924 C75.2131334,55.6919995 75.0891723,55.6113867 74.8948652,55.5931348 C73.8218031,55.4870454 72.7628101,55.2577553 71.6829035,55.2258144 C70.430364,55.1881698 69.1880911,55.2539529 68.0165446,55.7596838 C65.9894382,56.6346363 64.8574375,58.1765452 64.7118022,60.3812277 C64.5619842,62.6513131 65.3977711,64.4639591 67.4978852,65.4716184 C69.8675958,66.6081821 72.337692,66.5876487 74.8199562,65.8024349 C75.1496319,65.6982467 75.256862,65.4986161 75.2542003,65.1598144 C75.2454546,64.0658386 75.2724522,62.9711023 75.2713115,61.8771265 C75.2709312,61.3999143 75.5237967,61.1972416 75.9610828,61.1386833 C76.1215478,61.1177696 76.3470354,61.1961009 76.4101567,60.8181336 C74.8659663,60.8953241 73.3464921,60.8006421 71.8262573,60.8846771 Z M29.0098619,66.3248968 C32.9910668,66.3245165 35.3413847,64.2377111 35.6269515,60.8470325 C35.8262019,58.4807442 34.5417214,56.461623 32.3123227,55.6581573 C31.0730919,55.2125057 29.7969769,55.1558487 28.4946247,55.2931185 C24.4233008,55.7220391 22.1752699,60.1268413 24.2601741,63.6365377 C25.4286786,65.6031845 27.2839125,66.2830694 29.0098619,66.3248968 Z M36.029635,40.3360318 C35.725436,40.3360318 35.4212369,40.3253848 35.1177984,40.3398343 C34.92159,40.3489603 34.7253816,40.3877456 34.531835,40.4246298 C32.2765793,40.8543109 30.6898011,42.1022875 30.072277,44.340432 C29.4669209,46.5359885 30.0156199,48.5071983 31.6841517,50.0742037 C32.9313678,51.2449897 34.5116818,51.5244726 36.1726086,51.4818847 C39.2693548,51.402793 41.4873461,49.5243639 41.9295754,46.463361 C42.309444,43.8335603 41.1945545,41.5273513 38.410753,40.6379494 C37.6396084,40.3915481 36.8426069,40.2805155 36.029635,40.3360318 Z M16.412219,51.242328 C16.6958846,51.3411927 16.9708045,51.2932813 17.2407811,51.2890986 C18.1674475,51.2761701 19.0910718,51.2647627 20.0184987,51.3419532 C21.1524006,51.4358746 22.288584,51.4712378 23.4262884,51.2879578 C26.2066677,50.8407852 27.9816691,48.9836501 28.2375765,46.2059326 C28.4668666,43.7183449 27.1732601,41.6680434 24.897471,40.923136 C24.0685287,40.6516383 23.2095466,40.5291982 22.3421991,40.5193117 C20.4276464,40.4972573 18.5130936,40.5022005 16.5989212,40.5025808 C16.4479624,40.5025808 16.2612602,40.4375582 16.1540301,40.6269221 C16.2209539,40.8695209 16.4190635,40.7896686 16.5688815,40.7999353 C17.3921202,40.8558319 17.6138052,41.08208 17.6141855,41.8977136 C17.6157065,44.2389055 17.617988,46.5800974 17.6115237,48.9212893 C17.610383,49.3456469 17.5852866,49.7715256 17.5423184,50.193982 C17.4784366,50.8259555 17.365883,50.9236795 16.722502,50.9928848 C16.584852,51.0077145 16.3970091,50.9483957 16.412219,51.242328 Z M49.6547101,46.2028906 C49.8322863,46.0401441 49.9973143,45.8857631 50.1657645,45.7367056 C50.6121766,45.3416271 51.0148601,44.9096644 51.3057504,44.3845408 C52.1251866,42.9072742 51.4916921,41.2862736 49.8908446,40.755066 C49.4402498,40.6056282 48.9771068,40.5204525 48.505218,40.5170302 C46.8941038,40.5041018 45.2829896,40.5018203 43.6714952,40.5025808 C43.5231982,40.5025808 43.3330738,40.4367977 43.2410536,40.6345271 C43.3079773,40.8569727 43.4855535,40.7908094 43.6243444,40.7999353 C44.4973956,40.8565924 44.7023497,41.0733342 44.7034905,41.9631164 C44.7050115,43.3164219 44.7126164,44.6701077 44.701209,46.0234132 C44.6898015,47.4059978 44.7616685,48.7901034 44.6342852,50.1711671 C44.5768676,50.7924936 44.4418793,50.9301437 43.8289182,50.9928848 C43.6908879,51.006954 43.5095092,50.9385092 43.4699633,51.1666585 C43.5752923,51.3640076 43.7631352,51.2936616 43.9175162,51.2944221 C45.1335519,51.2997455 46.3492073,51.303548 47.5652429,51.2898591 C47.7496636,51.2875776 48.0812406,51.4252277 48.094169,51.1404213 C48.106337,50.8715854 47.77476,51.0058132 47.6047888,50.9829983 C46.8127306,50.8776694 46.68953,50.7765232 46.6507446,49.9529043 C46.6130999,49.1479176 46.6047345,48.3421704 46.594848,47.5368034 C46.5921863,47.3010491 46.5492181,47.0569294 46.6458013,46.8078664 C46.7826909,46.8078664 46.9047508,46.8268789 47.0195859,46.8052047 C47.9257188,46.6333322 48.4618696,47.0497047 48.9174077,47.8132443 C49.4904426,48.772612 50.1167124,49.7114463 50.9285436,50.5023638 C51.3909262,50.9529586 51.9278375,51.2525947 52.5803444,51.2776911 C53.2636515,51.303548 53.9507611,51.2598194 54.6310262,51.3153357 C54.8595557,51.3332074 54.9067066,51.0522036 55.1785845,51.159814 C56.1771178,51.5560332 57.2345898,51.5199096 58.2821752,51.4510846 C59.3248174,51.3834003 60.1689698,50.906188 60.7982815,50.0742037 C61.8207706,48.7220389 61.5074456,46.7489279 60.0879768,45.5519046 C59.703165,45.2275524 59.2784271,44.9621387 58.8400002,44.7168783 C58.3764769,44.4583091 57.8966029,44.2252166 57.4771885,43.8951606 C57.1767919,43.6594063 56.8942671,43.4031187 56.7737282,43.0213489 C56.5098355,42.18252 56.9600501,41.4212619 57.8981239,41.153947 C59.3392669,40.7436585 60.668997,41.4341903 60.7043601,42.7331203 C60.7066416,42.810691 60.7632987,42.8703901 60.884598,42.8757136 C61.0169246,42.801565 61.043542,42.6566903 61.048105,42.5026895 C61.0644557,41.9406818 61.0781447,41.3790543 61.0937349,40.8170465 C61.0986781,40.6295839 60.9963912,40.5485909 60.8237582,40.5132277 C59.6195103,40.2668265 58.4087981,40.1618779 57.2186193,40.5425069 C55.3401902,41.1440605 54.5606802,42.9422571 55.4413364,44.5910159 C55.8504841,45.3556963 56.53189,45.8389925 57.2478985,46.2846441 C57.8524941,46.6610904 58.50348,46.9664302 59.0426728,47.4455437 C59.8951906,48.20414 59.9366378,49.5726555 59.0894434,50.2586243 C58.2966247,50.9016251 57.3912523,50.8442075 56.4961466,50.5190948 C55.6789919,50.2221204 55.3131926,49.5711345 55.2264958,48.7334464 C55.2105254,48.5809666 55.2842937,48.38742 54.9785736,48.2531921 C54.7481428,49.1600855 54.8169679,50.0643172 54.7736195,50.9829983 C54.0309936,50.9864205 53.4590994,50.612636 52.9472845,50.120594 C52.4004867,49.5954704 51.9206127,49.01407 51.4612722,48.4090941 C50.89242,47.6603843 50.2710934,46.95084 49.6547101,46.2028906 Z M71.4072232,10.4142535 C71.4026602,10.3834533 71.3973367,10.3526532 71.3927737,10.321853 C71.0805894,10.321853 70.7691657,10.3222333 70.4569814,10.3214728 C67.340082,10.315769 64.2258443,10.3663421 61.1294783,10.7652231 C58.5867545,11.0929976 56.1174188,11.7055784 53.8203358,12.8775052 C51.7426563,13.9376389 50.0581541,15.3977943 49.0079069,17.5500025 C47.3952717,20.8558856 48.5432429,26.2067468 50.4596968,28.3258734 C52.0297441,30.0617091 53.6305916,31.6667393 55.7976295,32.6302898 C58.5426456,33.8508885 61.3945117,34.7068285 64.3524671,35.2190237 C66.4560035,35.5836823 68.5739893,35.7757079 70.7128888,35.7270361 C69.9957396,35.5407141 69.2706051,35.3969801 68.5553571,35.2129397 C65.3144966,34.3790541 62.2226936,33.197621 59.4955491,31.206258 C55.5268924,28.3083819 53.8998078,24.458743 54.8565137,19.5953608 C55.2424663,17.6359388 56.198792,16.0445975 57.9350081,14.9521427 C59.0430531,14.2543861 60.1750538,13.6140472 61.3891882,13.1239065 C64.1163326,12.0227059 66.9807468,11.4112658 69.8345141,10.7625614 C70.3581167,10.6435435 70.8832403,10.5302294 71.4072232,10.4142535 Z M24.2734828,35.3072414 C24.4381305,35.3243526 24.602398,35.3505897 24.767426,35.357054 C28.0676053,35.4905213 31.3632217,35.4509754 34.6417269,35.017872 C37.0403363,34.7007445 39.3933159,34.1786629 41.6238554,33.2063667 C44.0741787,32.1374874 46.0412057,30.5180077 47.1260556,28.0262373 C48.0839023,25.8257375 47.9831364,23.5221902 47.4964179,21.2243467 C46.9697733,18.7363788 45.4617066,16.8621324 43.5654058,15.3034926 C40.7158213,12.9619205 37.3707725,11.6215434 33.7975745,10.8667496 C31.4487777,10.3705249 29.0520695,10.172035 26.6546008,10.0370467 C26.2074282,10.0119503 25.7606358,9.89673487 25.2047121,9.97354512 C25.8347843,10.1340101 26.3621894,10.2659565 26.888834,10.402846 C30.45899,11.3310334 33.808982,12.7094353 36.7878511,14.9540439 C39.7435251,17.1807809 41.3063476,20.106035 41.4329705,23.7735347 C41.5261315,26.4691185 40.6196183,28.7836929 38.4864225,30.5328374 C37.2236162,31.5678747 35.7649818,32.2333101 34.2295372,32.7455052 C30.9719457,33.831876 27.6230945,34.5600525 24.2734828,35.3072414 Z M97.2839147,48.7661478 C97.2861962,75.4790064 75.5032633,97.6821143 47.9869389,97.3661276 C21.8379892,97.065731 -0.330135798,75.6516394 0.0037226509,47.9577388 C0.318948909,21.8175348 21.7174503,-0.333478935 49.3432864,0.00380175345 C75.5268387,0.322830499 97.3010259,21.6536476 97.2839147,48.7661478 Z" id="Fill-7" fill="#214299"></path>
                <path d="M24.2735588,35.3073555 C27.6231705,34.5601666 30.9720217,33.8319901 34.2296132,32.745239 C35.7650579,32.2334241 37.2236923,31.5679887 38.4861183,30.5325712 C40.6196944,28.7834267 41.5262075,26.4688523 41.4330466,23.7736488 C41.3064237,20.1057688 39.7436011,17.180895 36.7879272,14.954158 C33.809058,12.7095493 30.4590661,11.3311474 26.8889101,10.4029601 C26.3622655,10.2660705 25.8348604,10.1341242 25.2047881,9.97327895 C25.7607119,9.89646869 26.207124,10.0120643 26.6546768,10.0367805 C29.0517653,10.1717688 31.4488537,10.3702587 33.7972703,10.8668636 C37.3708486,11.6216575 40.7158973,12.9620345 43.5651016,15.3036067 C45.4617826,16.8622465 46.9694691,18.7364929 47.496494,21.2244608 C47.9832124,23.5219241 48.0839784,25.8254713 47.1261316,28.0263514 C46.0412818,30.5181218 44.0742547,32.1376014 41.6239314,33.2061006 C39.393392,34.1783968 37.0404124,34.7008586 34.6418029,35.0176059 C31.3632977,35.4507093 28.0676814,35.4906354 24.767502,35.3571681 C24.602474,35.3503236 24.4382065,35.3244667 24.2735588,35.3073555" id="Fill-9" fill="#FDFDFE"></path>
                <path d="M71.4072992,10.4140634 C70.8829361,10.5300392 70.3578125,10.6437336 69.8342099,10.7627515 C66.9804426,11.411456 64.1160284,12.0225158 61.3885037,13.1237163 C60.1751298,13.6142373 59.0427489,14.2545763 57.9343236,14.9519526 C56.1988681,16.0444074 55.2421621,17.6361289 54.85697,19.595551 C53.8998838,24.4589332 55.5262079,28.3081918 59.4956252,31.2060679 C62.2231499,33.1974309 65.3149529,34.3788639 68.5554332,35.2131298 C69.2706812,35.3971702 69.9954354,35.5409043 70.7129649,35.7272262 C68.5740654,35.775898 66.4560795,35.5834921 64.3517827,35.2188335 C61.3945877,34.7066384 58.5427217,33.8510786 55.7973253,32.6304799 C53.6306677,31.6669295 52.0298202,30.0618993 50.4593926,28.3256832 C48.5429387,26.2065567 47.3953478,20.8556955 49.0083632,17.5498124 C50.0578499,15.3976042 51.7423521,13.9374488 53.8204118,12.8776954 C56.1174948,11.7053883 58.5864503,11.0928075 61.1299346,10.7654133 C64.2255401,10.3665323 67.3405383,10.3159592 70.4570574,10.3216629 C70.7684812,10.3220432 71.0810457,10.3216629 71.3928498,10.3216629 C71.397793,10.3524631 71.4019757,10.3832632 71.4072992,10.4140634" id="Fill-11" fill="#FDFDFE"></path>
                <path d="M46.587167,43.5911517 C46.587167,44.2428981 46.5860262,44.8950248 46.5879275,45.5471515 C46.5883077,45.6965893 46.5769003,45.8445061 46.7449702,45.940709 C47.3328349,46.2772292 48.7059133,46.0661911 49.1713378,45.5589392 C49.8599684,44.8083281 50.002942,43.3188935 49.4789591,42.3507801 C49.0234211,41.508529 48.0591101,41.103564 46.9324329,41.2636488 C46.6689205,41.3009131 46.57652,41.416889 46.582604,41.6807817 C46.5974337,42.3169379 46.5875472,42.9542349 46.587167,43.5911517 M49.6546341,46.2030807 C50.2710174,46.9510301 50.8923439,47.6601941 51.4611961,48.4092843 C51.9205367,49.0138799 52.4007909,49.5960408 52.9475887,50.1204039 C53.4590233,50.6124458 54.0312978,50.9866107 54.7735435,50.9831884 C54.8172721,50.0645073 54.7480668,49.1595152 54.9784976,48.253002 C55.2845979,48.3872298 55.2100691,48.5811567 55.2260395,48.7332563 C55.3131165,49.5705641 55.6792961,50.2223106 56.4964508,50.5189046 C57.3915565,50.8443976 58.2965486,50.9010547 59.0893674,50.2588144 C59.9365617,49.5720851 59.8954948,48.2039499 59.0425968,47.4457338 C58.503404,46.9662401 57.852418,46.6609003 57.2482027,46.284454 C56.5318139,45.8388024 55.8504081,45.3558864 55.4416406,44.5908258 C54.5602239,42.942067 55.3404944,41.1438704 57.2185433,40.542697 C58.408722,40.1616877 59.6194342,40.2670166 60.8236822,40.5130376 C60.9966954,40.5484008 61.0989823,40.629774 61.0936588,40.8172367 C61.0780686,41.3788641 61.0643797,41.9408719 61.048029,42.5024994 C61.0438462,42.6565001 61.0168486,42.8017552 60.884522,42.8755234 C60.7632226,42.8702 60.7065655,42.8108811 60.704284,42.7333104 C60.6693012,41.4340002 59.3395711,40.7438486 57.8984281,41.1541371 C56.9599741,41.4210718 56.5097595,42.1827101 56.7740324,43.0211587 C56.894191,43.4033088 57.1767159,43.6595965 57.4771125,43.8953507 C57.8969071,44.2250264 58.3764009,44.458119 58.8399242,44.7170684 C59.278351,44.9619486 59.7034692,45.2277425 60.0879007,45.5517145 C61.5073695,46.749118 61.8210748,48.722229 60.7985857,50.0740135 C60.1685135,50.9063782 59.3251216,51.3835904 58.2820992,51.4508944 C57.2345137,51.5193392 56.1766615,51.5562234 55.1781282,51.1600041 C54.9066305,51.0527739 54.8594797,51.3333976 54.6309502,51.3151456 C53.9510653,51.2596293 53.2639557,51.3037382 52.5798881,51.277501 C51.9277614,51.2527848 51.3908501,50.9531488 50.9284676,50.5021737 C50.1166364,49.7112562 49.4899863,48.7728021 48.9173316,47.8130541 C48.4617936,47.0495145 47.9256428,46.6331421 47.0195099,46.8050146 C46.9046747,46.8266888 46.7826149,46.8080566 46.6457253,46.8080566 C46.5491421,47.0567393 46.5921102,47.3012393 46.5951522,47.5369935 C46.6046584,48.3423605 46.6130239,49.1481077 46.6506685,49.9523339 C46.6898342,50.7759528 46.8126545,50.8782397 47.6047128,50.9831884 C47.774684,51.0060033 48.1066412,50.871015 48.094093,51.1398509 C48.0811645,51.4246573 47.7499678,51.2877677 47.5651669,51.2904295 C46.3495115,51.3037382 45.1334758,51.2995554 43.9174401,51.2942319 C43.7630591,51.2934714 43.5752162,51.3641977 43.4698873,51.1664683 C43.5094332,50.9386993 43.6908118,51.0067638 43.8292224,50.9926946 C44.4418032,50.9299536 44.5767916,50.7919233 44.6342091,50.170977 C44.7615925,48.7899133 44.6897254,47.4058077 44.7015132,46.023223 C44.7125404,44.6699175 44.7049354,43.316612 44.7034144,41.9633066 C44.7022737,41.0735244 44.4973196,40.8567825 43.6242683,40.8001255 C43.4854775,40.7909995 43.3079013,40.8567825 43.2409775,40.634337 C43.3329977,40.4366076 43.5231221,40.5027709 43.6717994,40.5027709 C45.2829136,40.5016302 46.8940278,40.5039117 48.5051419,40.5168401 C48.977411,40.5206426 49.4401737,40.6058183 49.8907686,40.7552561 C51.491616,41.2860834 52.1251105,42.9074643 51.3060546,44.3843507 C51.0151643,44.9098545 50.6121006,45.3418172 50.1660687,45.7365154 C49.996858,45.8859532 49.8325905,46.0403342 49.6546341,46.2030807" id="Fill-13" fill="#FDFDFE"></path>
                <path d="M19.6223555,45.4810643 C19.6295802,46.831708 19.5634169,48.184253 19.678252,49.532235 C19.7326276,50.1729543 19.9505102,50.4056665 20.5889479,50.5414154 C21.58558,50.7528337 22.5871554,50.728878 23.5590713,50.4269605 C24.6777633,50.0794131 25.48275,49.3843183 25.8398036,48.2180952 C26.0333503,47.5861217 26.1314545,46.9454024 26.1360174,46.2928955 C26.1481854,44.6521219 25.7276302,43.1934875 24.2819243,42.2162481 C23.014555,41.3595475 21.5943257,41.1633391 20.1048912,41.2895817 C19.7619068,41.3184806 19.6056245,41.453469 19.6132295,41.8363795 C19.6375654,43.0505139 19.6223555,44.2661694 19.6223555,45.4810643 M16.4122951,51.2422139 C16.3970851,50.9482816 16.584928,51.0076004 16.7225781,50.9927707 C17.3659591,50.9235654 17.4785127,50.8262217 17.5423945,50.1946285 C17.5853626,49.7714115 17.610459,49.3455329 17.6115998,48.9211752 C17.618064,46.5799833 17.6157825,44.2387914 17.6142615,41.8979798 C17.6138813,41.0823461 17.3921962,40.8557178 16.5689576,40.7998213 C16.4191395,40.7899348 16.2210299,40.8697871 16.1541061,40.6268081 C16.2613363,40.4374442 16.4476582,40.502847 16.598617,40.502847 C18.5131697,40.5020865 20.4277224,40.4975235 22.3418949,40.5191977 C23.2096227,40.5290841 24.0682245,40.6515242 24.8975471,40.9230219 C27.1733362,41.6683095 28.4669426,43.7182308 28.2376526,46.2058185 C27.9813649,48.983536 26.2067437,50.8410514 23.4263645,51.2878438 C22.2886601,51.4711237 21.1524766,51.4357605 20.0185747,51.3418391 C19.0911479,51.2646486 18.1671433,51.276056 17.2408572,51.2889845 C16.9705003,51.2931672 16.6959607,51.3410786 16.4122951,51.2422139" id="Fill-15" fill="#FDFDFE"></path>
                <path d="M39.7905999,46.2610687 C39.7905999,46.0405244 39.7982048,45.9032545 39.7894591,45.7671255 C39.685271,44.1533495 39.1829623,42.7262758 37.8011381,41.7551203 C35.942482,40.4493459 33.3271307,41.0022277 32.513018,42.9445386 C31.632742,45.045033 31.8753408,47.1223322 33.1077272,49.0277589 C33.8636618,50.197024 35.0610653,50.6776585 36.423877,50.7130216 C37.6767968,50.7449625 38.8989164,49.9426376 39.3080641,48.8448593 C39.6282336,47.9873982 39.8252025,47.1017988 39.7905999,46.2610687 M36.029559,40.3360318 C36.8425309,40.2805155 37.6395324,40.3915481 38.4110572,40.6379494 C41.1944785,41.5273513 42.3093679,43.8335603 41.9294994,46.463361 C41.48727,49.5243639 39.2692788,51.402793 36.1725325,51.4818847 C34.5116057,51.5244726 32.9312917,51.2449897 31.6844559,50.0742037 C30.0155439,48.5071983 29.4668449,46.5359885 30.072201,44.340432 C30.689725,42.1022875 32.2765033,40.8543109 34.5317589,40.4246298 C34.7256858,40.3877456 34.9215139,40.3489603 35.1177223,40.3398343 C35.4211609,40.3253848 35.7257402,40.3360318 36.029559,40.3360318" id="Fill-17" fill="#FDFDFE"></path>
                <path d="M33.4008229,61.1135869 C33.4008229,60.8550177 33.4251589,60.5945473 33.3970204,60.3394003 C33.2255282,58.793689 32.6631403,57.4529317 31.2931038,56.5874854 C29.1089547,55.2071822 26.482196,56.1935476 25.8673336,58.631703 C25.517885,60.0199913 25.5825273,61.4094205 26.1122139,62.7486568 C26.624409,64.0437842 27.5084875,64.9715913 28.8838474,65.3712328 C30.9531614,65.9724061 32.6775897,64.9997297 33.2183035,62.9193885 C33.371924,62.3273411 33.4373268,61.7246467 33.4008229,61.1135869 M29.01009,66.3248968 C27.2837604,66.2830694 25.4289068,65.6031845 24.2604022,63.6365377 C22.1751178,60.1268413 24.4235289,55.7220391 28.4948529,55.2931185 C29.7968248,55.1558487 31.0729398,55.2117452 32.3121706,55.6581573 C34.5415693,56.461623 35.82643,58.4807442 35.6267994,60.8470325 C35.3412326,64.2377111 32.991295,66.3245165 29.01009,66.3248968" id="Fill-19" fill="#FDFDFE"></path>
                <path d="M71.8265615,60.8841068 C73.3467963,60.800452 74.8658902,60.895134 76.4104609,60.8179435 C76.3473396,61.1959108 76.121852,61.1175795 75.961387,61.1388735 C75.5241009,61.1970515 75.2712354,61.3997241 75.2716157,61.8769364 C75.2727564,62.9709122 75.2453785,64.0656485 75.2545045,65.1596243 C75.256786,65.4988062 75.1495558,65.6980566 74.8202604,65.8030053 C72.3376159,66.5870783 69.8679,66.6083722 67.4978092,65.4714283 C65.397695,64.4633887 64.5622884,62.6511229 64.7121064,60.3814178 C64.8577417,58.1767353 65.9889819,56.6344461 68.0160883,55.7594936 C69.1883953,55.2537627 70.4306682,55.1883599 71.6832077,55.2256243 C72.7631143,55.2575652 73.8221073,55.4872355 74.8944089,55.5925644 C75.0894765,55.6115769 75.2126771,55.6921896 75.1769337,55.9131142 C75.0628591,56.6074485 75.106968,57.3078668 75.0906173,58.0063838 C75.0864345,58.1676093 75.106968,58.3930968 74.8959299,58.414771 C74.6529509,58.4398674 74.6917363,58.1877625 74.6696818,58.0436482 C74.5993358,57.6010386 74.3905792,57.242464 74.0590023,56.9549959 C72.7171042,55.792195 69.7827242,55.6819229 68.3583122,56.7393948 C67.4997104,57.3759313 67.0715503,58.261911 66.9464484,59.2958075 C66.7179189,61.1799403 67.0396094,62.9127341 68.4959623,64.2648989 C69.6397507,65.3265535 71.0421083,65.6311328 72.5539775,65.4870185 C73.1505879,65.4303614 73.269986,65.2516445 73.2661835,64.6462884 C73.2612403,63.7641112 73.2566773,62.8826945 73.2319611,62.0012777 C73.2156104,61.4046674 73.0053328,61.2080787 72.40492,61.1354512 C72.2083313,61.1118758 71.9733376,61.2031355 71.8265615,60.8841068" id="Fill-21" fill="#FDFDFE"></path>
                <path d="M21.7982152,63.4411279 C22.017999,63.5403728 21.9929025,63.7198502 21.9685666,63.879935 C21.8894749,64.4050586 21.8016374,64.9290414 21.7069554,65.4515033 C21.6552416,65.7385911 21.5118878,65.9739651 21.2061678,66.0367062 C18.76421,66.5371136 16.3534325,66.571336 14.1574957,65.1978773 C12.2102416,63.9803207 11.521611,62.0908644 11.824289,59.8903645 C12.1478808,57.5389059 13.5913052,56.0859753 15.8663338,55.4855624 C17.6090141,55.0254613 19.3642426,55.20684 21.1103451,55.5114193 C21.938527,55.6555336 21.9347245,55.6627583 21.8906156,56.5031082 C21.862097,57.0487652 21.8430845,57.5951828 21.8187486,58.14122 C21.8126646,58.2845738 21.7887089,58.4362931 21.60695,58.4309696 C21.4769049,58.4271671 21.4582727,58.2994035 21.452569,58.1895116 C21.3932502,57.0305133 20.6658342,56.478392 19.6399229,56.2068944 C18.6676268,55.9490857 17.6820219,55.9411005 16.7040219,56.1422521 C15.7248813,56.3434037 14.9453712,56.8974262 14.5438285,57.8062208 C13.658229,59.8127938 13.665834,61.8140432 15.0115345,63.6270695 C16.297536,65.3594831 18.340993,65.7461961 20.251363,65.2305787 C20.9285861,65.0480593 21.3267066,64.5301604 21.5639819,63.8791745 C21.6168365,63.7339194 21.5685449,63.5282048 21.7982152,63.4411279" id="Fill-23" fill="#FDFDFE"></path>
                <path d="M63.0633856,40.5898099 C65.5042027,40.4582438 67.9503433,40.6400027 70.4413532,40.4384708 C70.3040834,41.1582818 70.3656837,41.90433 70.1599691,42.6313657 C69.8953159,42.5477109 69.9356223,42.3937102 69.9188913,42.2663268 C69.8508268,41.7389217 69.6367467,41.4929008 69.1188478,41.4343424 C68.2743152,41.3385198 67.4255999,41.328253 66.5449437,41.341942 L66.5449437,45.1155311 C67.7408262,44.9170412 68.987662,45.4064214 70.2173866,44.6314744 C70.1306899,45.5106096 70.0508376,46.3178778 69.9649014,47.1780006 C69.6409294,47.0171554 69.7276262,46.8251297 69.707473,46.6753117 C69.6519567,46.2798529 69.4496643,46.0357332 69.0462203,45.9764144 C68.2191792,45.8539743 67.3879553,45.9075894 66.5107213,45.8885769 C66.5540697,47.1559462 66.4327703,48.3814881 66.5320152,49.6081707 C66.5635759,49.9971652 66.7886832,50.2732259 67.1590455,50.3629646 C68.0130843,50.5702002 68.8773898,50.5690594 69.7302879,50.3572609 C70.1687148,50.2485097 70.3261378,49.8754856 70.4345087,49.4804071 C70.4748151,49.3313496 70.4253827,49.131719 70.647448,49.0731607 C70.8101945,49.1416054 70.8136167,49.290663 70.7991673,49.4184266 C70.740609,49.9306217 70.6736852,50.4424366 70.5968749,50.9523502 C70.5523858,51.2504653 70.3352638,51.3409645 70.0660476,51.3379225 C69.2161915,51.3261348 68.3651947,51.3154878 67.5160991,51.2960952 C66.2696436,51.2675765 65.023188,51.2603518 63.7771126,51.2938137 C63.6075217,51.2987569 63.4113133,51.3557942 63.273283,51.1881045 C63.3249968,50.9219303 63.5291904,51.0090073 63.6755862,50.9918961 C64.2406359,50.9276341 64.378286,50.7934062 64.4376048,50.2272158 C64.5551017,49.121072 64.5182176,48.0103653 64.5204991,46.9015597 C64.5231608,45.2288453 64.5144151,43.5561308 64.5068101,41.8834163 C64.5022471,41.0620789 64.2889275,40.848379 63.4497184,40.8019887 C63.2633965,40.791722 63.2633965,40.791722 63.0633856,40.5898099" id="Fill-25" fill="#FDFDFE"></path>
                <path d="M55.4684101,65.982939 C55.5764008,65.759733 55.7627227,65.8095456 55.9197655,65.8087851 C56.3426021,65.8076443 56.547176,65.6015495 56.6148603,65.1859375 C56.6787421,64.79238 56.6840655,64.3984422 56.6852063,64.005265 C56.6928113,61.602853 56.6905298,59.2004411 56.6867273,56.7984094 C56.6859668,55.9873387 56.4855757,55.7835254 55.671463,55.740177 C55.4478767,55.7276288 55.4478767,55.7276288 55.2166854,55.5724873 C55.3425478,55.3800814 55.5383759,55.4355977 55.7045446,55.435978 C57.3156588,55.4420619 58.9271532,55.4568916 60.5382674,55.4637361 C61.216251,55.4667781 61.8987976,55.5131685 62.6832509,55.249656 C62.4425534,56.059586 62.6125246,56.8303503 62.3144096,57.5748775 C62.2056584,57.4995882 62.1630706,57.4858993 62.1604088,57.4665066 C61.9991833,56.5162648 61.8227479,56.3535183 60.8584369,56.3109304 C60.2511796,56.284313 59.6431617,56.2805105 59.0362846,56.2565549 C58.7974884,56.2470487 58.6739075,56.3059872 58.6769495,56.5816676 C58.6887372,57.6155641 58.6872162,58.6498408 58.6769495,59.6837373 C58.6754285,59.9366028 58.7564215,60.0400305 59.0180327,60.031665 C59.7617994,60.0069488 60.5063265,59.9985833 61.2500932,59.9841339 C61.6390877,59.9761487 62.0014648,59.8989582 62.2501475,59.5438058 C62.4349484,59.8807062 62.2531895,61.7933577 62.0448132,62.0458429 C61.865716,61.9929883 61.9045014,61.8389875 61.8900519,61.7104635 C61.8235084,61.1248803 61.6341445,60.91042 61.0732775,60.8739161 C60.3766617,60.8282862 59.6777644,60.8180195 58.9796276,60.7868391 C58.7682092,60.7777131 58.6773298,60.8613679 58.679231,61.0784899 C58.688357,62.1420458 58.6682038,63.2067425 58.7009052,64.2702984 C58.7199176,64.8844002 58.9746843,65.1353644 59.5777589,65.2543823 C60.2249424,65.3829064 60.8759284,65.3570495 61.5284353,65.2840417 C62.1524236,65.2144562 62.5265884,64.8931459 62.6307766,64.2630737 C62.6516903,64.1375916 62.657394,63.9881538 62.7821156,63.9083015 C62.8273652,63.9155263 62.8767976,63.9143855 62.8802198,63.925793 C63.0920184,64.6406607 62.9026545,65.3254888 62.6935176,65.99967 C62.6296358,66.2057648 62.3874173,66.1711622 62.2102214,66.1688807 C60.9040668,66.1517695 59.5960109,66.1491077 58.290997,66.0977741 C57.4989387,66.0665937 56.712204,66.1559522 55.9231877,66.1396015 C55.7688067,66.1361793 55.581344,66.207666 55.4684101,65.982939" id="Fill-27" fill="#FDFDFE"></path>
                <path d="M77.841109,55.5606235 C77.9684923,55.3632744 78.1677427,55.4366624 78.3342917,55.4370426 C79.9902752,55.4419859 81.6477797,55.4571958 83.3037633,55.4640403 C83.9247096,55.4667021 84.5490781,55.5089097 85.2399902,55.2533825 C85.1152686,56.0625519 85.1605182,56.8131631 84.9529023,57.5409593 C84.6947134,57.4801195 84.743005,57.3322027 84.7251333,57.2238318 C84.6220859,56.6306436 84.4745493,56.4591514 83.8977119,56.3640892 C83.0566015,56.2252984 82.205985,56.3291063 81.3298917,56.2492541 L81.3298917,60.0467989 C82.5436459,59.8939389 83.786299,60.3038471 85.0095594,59.5547569 C84.9281861,60.4247662 84.8517561,61.2377381 84.7741854,62.0651595 C84.4384257,62.0005172 84.5220804,61.8119138 84.5068705,61.6799675 C84.4486924,61.1772786 84.2338518,60.9054007 83.7391481,60.8841068 C82.9520331,60.8506449 82.1633971,60.8757413 81.3374967,60.8757413 C81.3367362,60.8776425 81.3028941,60.9483688 81.3028941,61.0187148 C81.2994718,62.0678213 81.2873039,63.117308 81.3036546,64.1660342 C81.3158225,64.8862254 81.5511965,65.1436538 82.2584593,65.2679952 C82.8919538,65.3790279 83.5273496,65.3550722 84.1650268,65.2805434 C84.7772274,65.2086764 85.1247748,64.8763389 85.2342864,64.2785878 C85.2616643,64.1333328 85.2593829,63.9736283 85.4236503,63.901381 C85.539246,63.9238157 85.5806931,64.0029074 85.5822141,64.0983499 C85.5921006,64.6941998 85.5126286,65.2786422 85.371176,65.8558599 C85.3000695,66.1440884 85.0772437,66.1741281 84.8384474,66.1703256 C83.5174631,66.1490317 82.1945775,66.1444687 80.8743537,66.0950364 C80.0975054,66.0665177 79.3259805,66.1532144 78.5514137,66.1399057 C78.3936105,66.137244 78.2122318,66.1996048 78.0856089,66.0250706 C78.1164091,65.7455877 78.3342917,65.8090893 78.4989394,65.8106102 C78.9689269,65.8151732 79.1985972,65.5801795 79.2263553,65.1231204 C79.2522123,64.6835528 79.3012644,64.2447457 79.3027854,63.8055583 C79.3100101,61.5099963 79.3065878,59.2136738 79.3062076,56.9177315 C79.3062076,55.9788972 79.1407994,55.801321 78.2152738,55.7381997 C78.0711595,55.7283132 77.9046105,55.7651974 77.841109,55.5606235" id="Fill-29" fill="#FDFDFE"></path>
                <path d="M25.3868132,77.6525847 C25.3986009,78.6108116 25.3590551,79.7032664 25.446132,80.7942003 C25.475031,81.1611404 25.6438614,81.3744599 25.9788606,81.5018433 C26.5363054,81.7132616 27.1131428,81.6995727 27.6873185,81.6558441 C29.358512,81.5307422 30.3920282,80.6105401 30.6380492,79.0290853 C30.695847,78.6568217 30.7167607,78.27201 30.7023113,77.8948031 C30.6528789,76.6183079 30.2376472,75.5239519 29.0999428,74.8030001 C28.077834,74.1550562 26.9507766,74.0272926 25.7788497,74.1075251 C25.4712285,74.1284387 25.3811095,74.3170421 25.3837712,74.6029892 C25.3921367,75.5749052 25.3868132,76.5468211 25.3868132,77.6525847 M22.7646175,82.0885672 C22.8015016,81.9258207 22.9216602,81.9467344 23.0235669,81.9338059 C23.5962216,81.8604179 23.7015505,81.7752422 23.7224642,81.1965035 C23.8049782,78.9191934 23.7890078,76.6407426 23.7456594,74.3622918 C23.7376742,73.9329909 23.469979,73.7938198 23.1083624,73.731459 C22.9269837,73.7006588 22.7106222,73.7854543 22.5706906,73.6017942 C22.6277279,73.4523564 22.7402816,73.4557786 22.8456105,73.4603416 C24.7426718,73.5333494 26.6435355,73.3542522 28.5383153,73.5519816 C30.6395702,73.7710049 32.1164565,75.0729768 32.3887147,76.9464626 C32.7598375,79.4990728 31.3137513,81.579414 28.7881388,82.1246908 C27.9344802,82.3091115 27.0732167,82.3292647 26.2051087,82.2612001 C25.2830053,82.1893331 24.3612822,82.1239303 23.4338554,82.1950369 C23.2144518,82.2117678 22.9532209,82.302267 22.7646175,82.0885672" id="Fill-31" fill="#FDFDFE"></path>
                <path d="M78.8243943,69.5737806 C78.8871354,69.7736123 78.8776292,69.9551349 78.8323796,70.174322 L17.2868293,70.174322 C17.2301722,69.9771059 17.2442414,69.7929677 17.2780836,69.5737806 L78.8243943,69.5737806 Z" id="Fill-33" fill="#FDFDFE"></path>
                <path d="M72.9309181,79.9262443 C72.9309181,78.5326325 72.9335799,77.2492928 72.9297774,75.9659531 C72.9282564,75.5252447 72.9183699,75.0852968 72.9020192,74.6442082 C72.8754018,73.9327627 72.7202603,73.7753397 72.013758,73.7171616 C71.8985426,73.7076554 71.7608926,73.7521445 71.6939688,73.5228545 L74.9336886,73.5228545 C74.9013674,73.7563273 74.7538309,73.7164011 74.643939,73.7179221 C74.1834577,73.7236259 73.9864888,73.9818148 73.9754616,74.4092145 C73.9488442,75.3963404 73.9260293,76.3838465 73.9073971,77.3702119 C73.8796389,78.843676 73.8579647,80.3171401 73.8279251,81.790224 C73.8248831,81.9788274 73.8857229,82.2202854 73.6488279,82.3058414 C73.4408318,82.3807504 73.2720013,82.2362558 73.126366,82.0978453 C71.1985046,80.2669473 69.236801,78.4706519 67.4268167,76.5199756 C67.256085,76.3363154 67.0982817,76.1397268 66.9564489,75.9739383 C66.9564489,77.4371357 66.9534069,78.8417748 66.9583502,80.2471743 C66.9594909,80.5509931 66.9663354,80.8559527 67.0032195,81.1567295 C67.0750866,81.7385101 67.2351713,81.8803429 67.8142902,81.9301555 C67.9325476,81.940042 68.05841,81.9168468 68.1584154,82.0062053 C68.1914971,82.1248429 68.1253338,82.1925272 68.0257086,82.1932877 C66.9522662,82.1986112 65.8799646,82.1963297 64.7456824,82.1963297 C64.9012042,81.8643725 65.0928496,81.9404223 65.2426676,81.932437 C65.6248176,81.9141851 65.8396582,81.7278632 65.8567694,81.3453329 C65.8811053,80.8297155 65.8966955,80.3140981 65.9046807,79.7969598 C65.9377624,77.7922881 65.9670416,75.7864756 65.998222,73.7818039 C66.0005034,73.601566 65.9639996,73.3760785 66.1560252,73.2947052 C66.3754288,73.2004035 66.5111776,73.4064984 66.6476869,73.5426274 C68.601025,75.5001483 70.5543631,77.4591901 72.504279,79.4205134 C72.6491538,79.5661487 72.7700729,79.7345989 72.9309181,79.9262443" id="Fill-35" fill="#FDFDFE"></path>
                <path d="M79.6658469,51.1431971 C79.3422552,51.3470105 75.0747229,51.3375043 74.8104499,51.1450984 C74.885359,50.9127663 75.0846093,51.0059273 75.2336669,50.9926186 C75.6485183,50.9576357 75.8918775,50.785383 75.9561396,50.3340277 C76.0280066,49.8336202 76.0291474,49.3332128 76.0310486,48.8343264 C76.0428363,46.4634751 76.0367523,44.0926238 76.0348511,41.7217725 C76.0348511,41.6187251 76.0626093,41.5076924 76.0048114,41.4419094 C75.1648418,41.4419094 74.3476871,41.4331637 73.529772,41.4445711 C72.9194726,41.4533169 72.4342752,41.6723402 72.2373063,42.3119187 C72.2030839,42.4229513 72.1715232,42.5621224 71.9551617,42.4925368 C71.8254968,42.0697002 72.0053545,41.6548487 72.0833055,41.238096 C72.2483335,40.3456521 72.2559385,40.3536373 73.1373552,40.4741762 C73.4069516,40.5114406 73.6830122,40.5141023 73.9552704,40.5141023 C76.2656621,40.5167641 78.5752933,40.5186653 80.8849246,40.5095393 C81.2146003,40.5083986 81.544276,40.4467983 81.9404953,40.4064919 C81.9621694,41.1745945 81.955325,41.9103759 81.9020901,42.6336091 C81.6564494,42.6541426 81.6039751,42.5606014 81.6043553,42.4476675 C81.6054961,41.8255804 81.1860816,41.6168238 80.6773087,41.5095937 C79.8213687,41.329736 78.9513594,41.4628231 78.0957996,41.3860128 C77.9790632,41.5518013 78.0307771,41.724054 78.0307771,41.884519 C78.0326783,44.28541 78.0357203,46.6866811 78.0467475,49.0879523 C78.049029,49.4666801 78.0942786,49.8450277 78.1174738,50.2237555 C78.1440912,50.6678861 78.35627,50.9002181 78.8182723,50.9610579 C79.0920515,50.9968013 79.4224877,50.8736007 79.6658469,51.1431971" id="Fill-37" fill="#FDFDFE"></path>
                <path d="M46.654395,77.1018703 C47.3430255,77.1444582 48.0248117,77.3136689 48.477688,76.6075469 C48.8488108,76.0288082 48.7875908,75.14511 48.3377564,74.5602873 C47.9464804,74.0518947 47.351391,73.8876272 46.654395,74.10589 L46.654395,77.1018703 Z M46.6418468,77.7300413 C46.6418468,78.8031035 46.6380443,79.8487877 46.6448887,80.8940916 C46.6464097,81.1112137 46.7224595,81.3100838 46.9160061,81.4443116 C47.7768894,82.0397813 49.093691,81.5116157 49.2948427,80.4887464 C49.6081677,78.8939829 48.3917517,77.5999962 46.6418468,77.7300413 Z M48.8218131,77.197693 C49.0841848,77.3300196 49.3161366,77.431546 49.5332587,77.5585491 C50.5941528,78.1783547 51.0782095,79.0787838 50.9143223,80.1073568 C50.7553783,81.102468 49.911226,81.889583 48.7617338,82.1321817 C48.1434493,82.2618466 47.519461,82.2359896 46.8992752,82.198345 C46.1091182,82.1500534 45.3220032,82.1721079 44.5329869,82.1991055 C44.3748034,82.204429 44.1652863,82.2831405 44.0675624,82.0633567 C44.0953205,82.0196281 44.1074885,81.97666 44.1257404,81.9739982 C44.9417544,81.8610643 44.9991719,81.9352128 45.0227474,80.935919 C45.0721797,78.8080467 45.063434,76.6794139 45.063434,74.5507811 C45.063434,73.9572127 44.8710281,73.7826785 44.270235,73.7260214 C44.0782093,73.7077695 44.0782093,73.7081497 43.8797194,73.5819071 C43.9105196,73.5012944 43.9744014,73.4602275 44.0553944,73.4636498 C45.5269573,73.5298131 47.0068856,73.3389282 48.471604,73.5545292 C49.5982812,73.7203177 50.2447042,74.5504008 50.0644662,75.4953191 C49.9473496,76.1109419 49.5914367,76.5702825 49.1199282,76.9543338 C49.0298092,77.028102 48.93931,77.1018703 48.8218131,77.197693 Z" id="Fill-39" fill="#FDFDFE"></path>
                <path d="M54.1134315,63.855561 C54.1681874,64.5673868 54.0883351,65.2487926 53.8784378,65.9123268 C53.7928818,66.1823035 53.5225249,66.1674738 53.2974176,66.164812 C51.9463936,66.1480811 50.5938486,66.1454193 49.2432049,66.095987 C48.4066575,66.0648066 47.5758139,66.1518835 46.741548,66.1404761 C46.581083,66.1381946 46.4004648,66.1929504 46.2810667,66.0085298 C46.3183311,65.7746767 46.509216,65.8195461 46.666639,65.8081386 C47.2571654,65.7640298 47.4035612,65.6275204 47.4526133,65.0347126 C47.4860751,64.6411551 47.5138333,64.2460765 47.5161148,63.8521388 C47.5336062,61.4520083 47.5708706,59.0514976 47.4974826,56.6525079 C47.4758084,55.9672996 47.2617284,55.7897234 46.5711965,55.7391503 C46.4179563,55.7277429 46.2247899,55.7992296 46.1331499,55.5003541 L50.9683937,55.5003541 C50.8010842,55.8159606 50.5615275,55.7273626 50.3717833,55.7433331 C49.7367678,55.7969481 49.5607126,55.9509489 49.5466434,56.5817817 C49.4903666,59.0724113 49.4785789,61.5634212 49.5546286,64.0536707 C49.5823868,64.9658875 49.8253658,65.1917553 50.7394839,65.2472716 C51.3003509,65.281494 51.8596969,65.3126744 52.4228454,65.2628618 C53.2989386,65.1852911 53.5696757,64.9753938 53.814556,64.1517748 C53.8495389,64.0350385 53.802388,63.8548005 54.1134315,63.855561" id="Fill-41" fill="#FDFDFE"></path>
                <path d="M44.8318625,63.8258636 C44.8748306,63.8787182 44.9402334,63.921306 44.9425149,63.9669359 C44.974836,64.6373145 44.9056307,65.299708 44.6862272,65.933963 C44.5957279,66.1951939 44.3135833,66.1700975 44.0911378,66.1674357 C42.7545632,66.1522258 41.416848,66.1491838 40.0814142,66.0967094 C39.243726,66.0636278 38.4125022,66.1529863 37.577856,66.1392973 C37.4208133,66.1366356 37.2363926,66.2062211 37.1173747,66.0168572 C37.1371477,65.7662732 37.3344968,65.8198883 37.4892581,65.8084809 C38.079024,65.7639917 38.1881554,65.6723518 38.2573606,65.0746007 C38.3014695,64.6985346 38.3265659,64.3179055 38.3277067,63.9391777 C38.3337907,61.5839167 38.3311289,59.2275148 38.3303684,56.8718735 C38.3303684,55.9881753 38.1870146,55.8326535 37.2888669,55.7394925 C37.1553996,55.7258036 37.0093841,55.7421543 36.9534875,55.4972741 L41.733215,55.4972741 C41.652222,55.8216263 41.4157072,55.7265641 41.242694,55.7394925 C40.5472189,55.7908261 40.3666008,55.9296169 40.356334,56.6193883 C40.3194499,59.0807388 40.284467,61.54323 40.3616575,64.0042003 C40.3928379,65.0042546 40.6323947,65.197421 41.6427157,65.2529374 C42.1883728,65.282977 42.7332693,65.3092142 43.2808276,65.2620633 C44.1192762,65.1898161 44.4348827,64.9293456 44.6284293,64.1095292 C44.6535258,64.0042003 44.6592295,63.8973504 44.8318625,63.8258636" id="Fill-43" fill="#FDFDFE"></path>
                <path d="M39.6702891,73.5192041 L43.0179996,73.5192041 C42.9807352,73.7241582 42.8643791,73.7066668 42.7598107,73.7211162 C42.1141482,73.8108549 42.0403799,73.8880454 42.0308737,74.5686908 C42.013002,75.7843462 42.0019748,77.0000017 41.9977921,78.2167978 C41.9962711,78.7346967 41.9761179,79.2503141 41.8681272,79.7579462 C41.5741949,81.1374889 40.6380224,82.04096 39.2090474,82.2820378 C38.4090039,82.4170261 37.6009752,82.3885074 36.8127194,82.1820323 C35.5278587,81.8451319 34.7506301,80.8914679 34.5852219,79.4910116 C34.4399669,78.2631882 34.5433945,77.0304216 34.5141154,75.8003167 C34.5038487,75.3599886 34.5182981,74.9185197 34.5030882,74.4778113 C34.484456,73.9374778 34.3342577,73.7948845 33.7954451,73.72682 C33.6433456,73.7074273 33.4517002,73.7937437 33.3452306,73.5982959 C33.5737601,73.4435346 36.7720328,73.4066505 37.1709138,73.55875 C37.111595,73.7964055 36.9066408,73.7093285 36.7667093,73.7302422 C36.4838042,73.7724498 36.2438672,73.8773985 36.2366425,74.1926247 C36.1925336,76.0889255 36.0385328,77.9932115 36.3290429,79.8781048 C36.5111821,81.0610589 37.4481151,81.7207905 38.6523631,81.6671755 C39.8592728,81.6135604 40.6813707,80.8678925 40.7901219,79.6587013 C40.9483054,77.9000506 40.8760581,76.1360764 40.8296677,74.3736232 C40.81788,73.9287321 40.5486639,73.777393 40.1573879,73.7275805 C40.0064291,73.708568 39.8144034,73.7903215 39.6702891,73.5192041" id="Fill-45" fill="#FDFDFE"></path>
                <path d="M52.1891444,82.0636609 C52.2153816,82.0172705 52.2203248,81.9963569 52.2298311,81.9933149 C53.1397665,81.7233382 53.1717074,81.7237185 53.1823543,80.7031307 C53.2059297,78.6216487 53.1952828,76.540547 53.1876778,74.4586848 C53.1853963,73.9734874 52.9948917,73.7989532 52.4979065,73.7274664 C52.3598762,73.7076934 52.183821,73.7810815 52.0651833,73.5263148 L55.9806053,73.5263148 C55.8345897,73.8130224 55.6068207,73.7080737 55.4379902,73.7270861 C55.0592624,73.7700542 54.8493651,73.9464897 54.8493651,74.338146 C54.8505058,76.4188674 54.8402391,78.5007296 54.8592515,80.5822116 C54.8657158,81.1959331 55.0334055,81.3514549 55.6360998,81.4446158 C56.2091348,81.5328336 56.7893945,81.5065964 57.3635702,81.4681913 C57.8586541,81.4343491 58.1677964,81.1461205 58.2978415,80.6692885 C58.3320639,80.5441867 58.3039254,80.3917069 58.4754177,80.3057707 C58.679231,80.4928531 58.5974775,80.7320296 58.5716206,80.9324207 C58.3773135,82.4819346 58.4647707,82.1978887 57.190557,82.2180419 C55.6737445,82.2427581 54.1576925,82.0937005 52.6397393,82.1990295 C52.4899212,82.2096764 52.2990363,82.2773607 52.1891444,82.0636609" id="Fill-47" fill="#FDFDFE"></path>
                <path d="M63.6040234,82.1000507 C62.2978688,82.2061401 60.9898129,82.1350336 59.6593223,82.2156463 C59.7068534,81.9019411 59.8536294,81.9319807 59.9627609,81.9346425 C60.4300866,81.9494722 60.6034801,81.7011697 60.6304778,81.2646441 C60.7232585,79.716271 60.6513914,78.1675176 60.6726854,76.6191445 C60.6810508,75.965877 60.6749669,75.3126096 60.6738261,74.6601026 C60.6726854,73.9326867 60.5787639,73.821654 59.8753036,73.7193671 C59.7825229,73.7060584 59.6916435,73.7068189 59.6562803,73.5235389 L63.3040071,73.5235389 C63.2583772,73.7661377 63.092969,73.7186066 62.9720499,73.7239301 C62.5187933,73.7425623 62.3252467,73.9756548 62.3263874,74.4228274 C62.3328516,76.6700978 62.3252467,78.9177485 62.3389356,81.1650189 C62.3427381,81.7334909 62.5157513,81.8825484 63.080801,81.9281782 C63.2557155,81.9422474 63.4393757,81.9008003 63.6040234,82.1000507" id="Fill-49" fill="#FDFDFE"></path>
                <path d="M55.6351492,88.2196989 C55.5929416,87.9021911 55.4062394,87.7497114 55.1176306,87.7443879 C54.8195155,87.7390644 54.6217862,87.8919244 54.6271096,88.2044889 C54.6316726,88.5235177 54.8837776,88.734936 55.1355023,88.751667 C55.4233506,88.7710597 55.5682254,88.4851126 55.6351492,88.2196989 M55.0761835,90.633138 C55.3929307,90.6224911 55.611954,90.4901645 55.6587246,90.1718962 C55.6910458,89.9483099 55.164021,89.3935269 54.9468989,89.4444803 C54.6480233,89.5144461 54.514556,89.7859437 54.5122745,90.0597228 C54.5096128,90.4057493 54.7358608,90.5989157 55.0761835,90.633138 M54.4643632,89.1585332 C53.9149036,88.5128707 53.8841035,87.9577075 54.3750047,87.5470388 C54.8138118,87.1800987 55.6279245,87.2382767 55.9880201,87.6622541 C56.3511577,88.0904143 56.2348016,88.51173 55.6127145,89.0239251 C56.3846196,89.700768 56.5123832,90.1833037 56.0503809,90.6787679 C55.5876181,91.1746123 54.685668,91.2175805 54.1943865,90.7662251 C53.712231,90.3239958 53.794745,89.8319538 54.4643632,89.1585332" id="Fill-51" fill="#FDFDFE"></path>
                <path d="M52.6574208,88.6430299 C52.6437319,88.137299 52.370333,87.7418402 52.0277288,87.7456427 C51.6931099,87.7490649 51.4524124,88.0734172 51.4733261,88.4924514 C51.4927188,88.8951348 51.7349372,89.1738572 52.0824847,89.1232841 C52.3406736,89.0856395 52.6984877,89.095526 52.6574208,88.6430299 M51.0778673,91.1492497 C50.9904101,91.0423998 50.9641729,90.9317474 50.9672149,90.7842109 C51.3022141,90.6328719 51.6817024,90.5655678 51.9862817,90.3336161 C52.2821153,90.1100298 52.5258548,89.8556433 52.601144,89.4784365 C52.4733804,89.3909793 52.3885849,89.4989699 52.293903,89.5236861 C51.6558455,89.6913758 51.1413689,89.5160811 50.9177826,89.0457134 C50.6805073,88.5449257 50.8326068,87.9167547 51.2774979,87.5654048 C51.726952,87.2102524 52.4056961,87.2212796 52.8353773,87.5901209 C53.6053811,88.2513736 53.5137412,89.8035492 52.6574208,90.5206985 C52.200742,90.9028485 51.664211,91.0876494 51.0778673,91.1492497" id="Fill-53" fill="#FDFDFE"></path>
                <path d="M37.6076675,87.3882849 L39.6564481,87.3882849 C39.7522708,87.5381029 39.7077817,87.680316 39.682305,87.8613144 L38.2597942,87.8613144 L38.2597942,88.873917 L39.287987,88.873917 C39.3560515,89.0560561 39.3450243,89.1997902 39.2959722,89.3735639 L38.2921154,89.3735639 C38.1807025,89.7511509 38.2734832,90.1101058 38.2282336,90.5048041 L39.7195694,90.5048041 C39.8218563,90.6812395 39.8028439,90.8204106 39.7537918,90.9751718 L37.6076675,90.9751718 L37.6076675,87.3882849 Z" id="Fill-55" fill="#FDFDFE"></path>
                <path d="M57.1572472,89.0596685 C57.4390115,88.6946296 57.7150722,88.3387168 58.0508318,87.9037121 L56.7325092,87.9037121 C56.6712892,87.7025605 56.6830769,87.5599672 56.7302278,87.3626181 C57.4450955,87.4489346 58.1785954,87.2257285 58.9698932,87.5466585 C58.5698715,88.0375597 58.248181,88.4330185 57.9097595,88.8486304 C57.9816266,88.8904578 58.0257354,88.9265814 58.077069,88.9436926 C58.7402229,89.1661382 59.0140021,89.5041793 58.9554437,90.0350067 C58.8942237,90.5882687 58.4120682,91.0247943 57.7983466,91.0677624 C57.3853964,91.0962811 56.9804315,91.0559747 56.6047456,90.8559638 C56.5667208,90.7004421 56.6522767,90.5977749 56.7393537,90.481799 C57.0351873,90.5445401 57.3203739,90.6635579 57.6291359,90.6194491 C58.0048217,90.5650735 58.3189073,90.2532695 58.2850651,89.920932 C58.2462797,89.5498092 58.0048217,89.3528403 57.6405434,89.3437144 C57.4378708,89.3383909 57.286912,89.2885783 57.1572472,89.0596685" id="Fill-57" fill="#FDFDFE"></path>
                <path d="M40.1862487,90.830183 C40.2075427,90.6659155 40.255454,90.5438556 40.3573607,90.4259785 C40.6280979,90.4826356 40.903398,90.5655298 41.1836414,90.5921472 C41.467307,90.6191449 41.7498318,90.5404334 41.8593435,90.2419381 C41.9703761,89.937739 41.7403256,89.7689086 41.523964,89.6179498 C41.225849,89.4107142 40.907961,89.2274343 40.6292386,88.9973837 C40.3162938,88.7388146 40.1653351,88.3958301 40.3140123,87.9844009 C40.4710551,87.5509173 40.7999703,87.339499 41.2509454,87.3185853 C41.6148435,87.3007136 41.9783614,87.3067976 42.3141211,87.4813318 C42.3829461,87.655866 42.2616467,87.7680394 42.1992859,87.9132944 C41.9749391,87.8703263 41.7578171,87.8121482 41.5372727,87.7908543 C41.2882098,87.7672789 41.0258381,87.795037 40.9284944,88.0726187 C40.8364742,88.3361311 41.0376258,88.4969763 41.222807,88.6304436 C41.4806157,88.8163853 41.759338,88.9730478 42.016006,89.1601302 C42.3901708,89.4327686 42.6726957,89.7605431 42.5278209,90.2734987 C42.4167882,90.6689575 41.9399562,91.0252506 41.4524773,91.0659372 C41.0239369,91.1016806 40.6064237,91.0499668 40.1862487,90.830183" id="Fill-59" fill="#FDFDFE"></path>
                <path d="M42.8311073,87.8665618 L42.8311073,87.408362 L45.711492,87.408362 C45.8354531,87.5182539 45.7430527,87.668072 45.7567416,87.8422259 L44.6521188,87.8422259 L44.6521188,90.9366907 C44.4213078,91.0275701 44.2300427,90.9960095 43.9950489,90.978518 L43.9950489,87.8665618 L42.8311073,87.8665618 Z" id="Fill-61" fill="#FDFDFE"></path>
                <path d="M49.8983736,90.9790884 L49.2918767,90.9790884 L49.2918767,87.9800661 C49.0382508,87.8656112 48.8253114,87.9926143 48.6203573,87.9363375 C48.5450681,87.6093235 48.9298799,87.4290856 49.8983736,87.3393469 L49.8983736,90.9790884 Z" id="Fill-63" fill="#FDFDFE"></path>
                <path d="M45.9974771,91.0277603 C45.7381474,91.0076071 45.5951739,90.9053201 45.5925122,90.6638621 C45.5890899,90.3988287 45.7590611,90.2763886 45.9887314,90.2805714 C46.1955868,90.2847541 46.356432,90.4011102 46.360995,90.6448497 C46.3659382,90.9171078 46.1925448,91.0007626 45.9974771,91.0277603" id="Fill-65" fill="#FDFDFE"></path>
                <path d="M46.5873571,43.5911517 C46.5873571,42.9542349 46.5972436,42.3169379 46.5827941,41.6807817 C46.5767101,41.416889 46.6691106,41.3009131 46.9322428,41.2636488 C48.0593002,41.103564 49.0232309,41.508529 49.478769,42.3507801 C50.0027519,43.3188935 49.8597783,44.8083281 49.171528,45.5589392 C48.7057232,46.0661911 47.333025,46.2772292 46.7451604,45.940709 C46.5770904,45.8445061 46.5884978,45.6965893 46.5881176,45.5471515 C46.5858361,44.8950248 46.5873571,44.2428981 46.5873571,43.5911517" id="Fill-67" fill="#214299"></path>
                <path d="M19.6223555,45.4810643 C19.6223555,44.2661694 19.6375654,43.0505139 19.6132295,41.8363795 C19.6056245,41.453469 19.7619068,41.3184806 20.1048912,41.2895817 C21.5943257,41.1633391 23.014555,41.3595475 24.2819243,42.2162481 C25.7276302,43.1934875 26.1481854,44.6521219 26.1360174,46.2928955 C26.1314545,46.9454024 26.0333503,47.5861217 25.8398036,48.2180952 C25.48275,49.3843183 24.6777633,50.0794131 23.5590713,50.4269605 C22.5871554,50.728878 21.58558,50.7528337 20.5889479,50.5414154 C19.9505102,50.4056665 19.7326276,50.1729543 19.678252,49.532235 C19.5634169,48.184253 19.6295802,46.831708 19.6223555,45.4810643" id="Fill-69" fill="#214299"></path>
                <path d="M39.7905999,46.2610687 C39.8252025,47.1017988 39.6282336,47.9873982 39.3080641,48.8448593 C38.8989164,49.9426376 37.6767968,50.7449625 36.423877,50.7130216 C35.0610653,50.6776585 33.8636618,50.197024 33.1077272,49.0277589 C31.8753408,47.1223322 31.632742,45.045033 32.513018,42.9445386 C33.3271307,41.0022277 35.942482,40.4493459 37.8011381,41.7551203 C39.1829623,42.7262758 39.685271,44.1533495 39.7894591,45.7671255 C39.7982048,45.9032545 39.7905999,46.0405244 39.7905999,46.2610687" id="Fill-71" fill="#214299"></path>
                <path d="M33.4008229,61.1135869 C33.4373268,61.7246467 33.371924,62.3273411 33.2183035,62.9193885 C32.6775897,64.9997297 30.9531614,65.9724061 28.8838474,65.3712328 C27.5084875,64.9715913 26.624409,64.0437842 26.1122139,62.7486568 C25.5825273,61.4094205 25.517885,60.0199913 25.8673336,58.631703 C26.482196,56.1935476 29.1089547,55.2071822 31.2931038,56.5874854 C32.6631403,57.4529317 33.2255282,58.793689 33.3970204,60.3394003 C33.4251589,60.5945473 33.4008229,60.8550177 33.4008229,61.1135869" id="Fill-73" fill="#214299"></path>
                <path d="M25.3868132,77.6525847 C25.3868132,76.5468211 25.3921367,75.5749052 25.3837712,74.6029892 C25.3811095,74.3170421 25.4712285,74.1284387 25.7788497,74.1075251 C26.9507766,74.0272926 28.077834,74.1550562 29.0999428,74.8030001 C30.2376472,75.5239519 30.6528789,76.6183079 30.7023113,77.8948031 C30.7167607,78.27201 30.695847,78.6568217 30.6380492,79.0290853 C30.3920282,80.6105401 29.358512,81.5307422 27.6873185,81.6558441 C27.1131428,81.6995727 26.5363054,81.7132616 25.9788606,81.5018433 C25.6438614,81.3744599 25.475031,81.1611404 25.446132,80.7942003 C25.3590551,79.7032664 25.3986009,78.6108116 25.3868132,77.6525847" id="Fill-75" fill="#214299"></path>
                <path d="M46.6417327,77.7301934 C48.3916377,77.5993878 49.6080536,78.8945153 49.2947286,80.4888985 C49.093577,81.5113875 47.7767754,82.0399334 46.9158921,81.444844 C46.7223454,81.3102359 46.6462957,81.111746 46.6447747,80.8938635 C46.6379302,79.8485595 46.6417327,78.8028753 46.6417327,77.7301934" id="Fill-77" fill="#214299"></path>
                <path d="M46.654395,77.1018703 L46.654395,74.10589 C47.351391,73.8876272 47.9464804,74.0518947 48.3377564,74.5602873 C48.7875908,75.14511 48.8488108,76.0288082 48.477688,76.6075469 C48.0248117,77.3136689 47.3430255,77.1444582 46.654395,77.1018703" id="Fill-79" fill="#214299"></path>
                <path d="M55.0766778,90.633024 C54.7359749,90.5988016 54.5097268,90.4056352 54.5123886,90.0596088 C54.5142898,89.7858296 54.6485177,89.5150925 54.947013,89.4443662 C55.1637548,89.3934129 55.6911599,89.9481959 55.6584585,90.1717822 C55.6120681,90.4900504 55.3934251,90.6227573 55.0766778,90.633024" id="Fill-81" fill="#214299"></path>
                <path d="M55.6351492,88.2196989 C55.5682254,88.4851126 55.4233506,88.7710597 55.1355023,88.751667 C54.8837776,88.734936 54.6316726,88.5235177 54.6271096,88.2044889 C54.6217862,87.8919244 54.8195155,87.7390644 55.1176306,87.7443879 C55.4062394,87.7497114 55.5929416,87.9021911 55.6351492,88.2196989" id="Fill-83" fill="#214299"></path>
                <path d="M52.6574208,88.6430299 C52.6984877,89.095526 52.3406736,89.0856395 52.0824847,89.1232841 C51.7349372,89.1738572 51.4927188,88.8951348 51.4733261,88.4924514 C51.4524124,88.0734172 51.6931099,87.7490649 52.0277288,87.7456427 C52.370333,87.7418402 52.6437319,88.137299 52.6574208,88.6430299" id="Fill-85" fill="#214299"></path>
            </g>
        </g>
    </g>
</svg>