<svg xmlns="http://www.w3.org/2000/svg" width="508" height="508" viewBox="0 0 508 508">
  <g fill="none">
    <circle cx="254" cy="254" r="254" fill="#E3A900"/>
    <path fill="#324A5E" d="M419.6,129.2 L88.4,129.2 C81.6,129.2 76,134.8 76,141.6 L76,365.6 C76,372.4 81.6,378 88.4,378 L420,378 C426.8,378 432.4,372.4 432.4,365.6 L432.4,142 C432.4,135.2 426.8,129.2 419.6,129.2 Z"/>
    <path fill="#FFF" d="M91.6,330.8 L91.6,177.2 C109.2,177.2 123.6,162.8 123.6,145.2 L384.4,145.2 C384.4,162.8 398.8,177.2 416.4,177.2 L416.4,330.8 C398.8,330.8 384.4,345.2 384.4,362.8 L123.6,362.8 C123.6,345.2 109.2,330.8 91.6,330.8 Z"/>
    <g fill="#E6E9EE" transform="translate(129 179)">
      <rect width="170.4" height="13.2" x="39.8" y=".6"/>
      <rect width="248.8" height="13.2" x=".6" y="25.8"/>
      <rect width="216.8" height="13.2" x="16.6" y="54.2"/>
    </g>
  </g>
</svg>
