<svg xmlns="http://www.w3.org/2000/svg" width="508" height="508" viewBox="0 0 508 508">
  <g fill="none">
    <circle cx="254" cy="254" r="254" fill="#E3A900"/>
    <path fill="#FFF" d="M379.6,434.8 L128.4,434.8 C120.4,434.8 114,428.4 114,420.4 L114,87.6 C114,79.6 120.4,73.2 128.4,73.2 L379.2,73.2 C387.2,73.2 393.6,79.6 393.6,87.6 L393.6,420.4 C394,428.4 387.6,434.8 379.6,434.8 Z"/>
    <g fill="#E6E9EE" transform="translate(139 106)">
      <rect width="228.8" height="12.4" x=".6"/>
      <rect width="228.8" height="12.4" x=".6" y="36"/>
      <rect width="228.8" height="12.4" x=".6" y="72"/>
      <rect width="228.8" height="12.4" x=".6" y="108.4"/>
      <rect width="228.8" height="12.4" x=".6" y="144.4"/>
      <rect width="120.4" height="12.4" x=".6" y="180.4"/>
      <rect width="120.4" height="12.4" x=".6" y="216.4"/>
    </g>
    <g fill="#FFD05B" transform="translate(280 337)">
      <polygon points="82.8 71.8 66.4 61.8 58.4 79.4 44.4 33 41.6 24.6 36.4 7.8 41.6 6.2 48.8 3.8 60.8 .2 67.6 22.2"/>
      <polygon points="46.8 7.8 41.6 24.6 39.2 33 24.8 79.4 17.2 61.8 .8 71.8 16 22.2 22.8 .2 34.8 3.8 41.6 6.2"/>
    </g>
    <path fill="#F9B54C" d="M347.6,359.2 C345.6,359.6 344.4,361.2 343.6,363.2 L343.6,363.2 C342.4,366 340,367.6 337.2,367.6 C336.4,367.6 335.2,367.6 334.4,367.2 C333.6,366.8 332.8,366.8 331.6,366.8 C329.6,366.8 328,367.6 326.8,368.8 C326,369.6 325.2,370 324.4,370.4 L322,362 L319.2,370 C318.4,369.6 317.6,369.2 316.8,368.4 C315.6,367.2 313.6,366.4 312,366.4 C311.2,366.4 310.4,366.4 309.2,366.8 C305.6,368.4 301.6,366.8 300,363.2 L300,363.2 C299.2,361.2 297.6,360 296,359.2 L302.8,337.2 L314.8,340.8 L321.6,342.8 L328.4,340.8 L340.4,337.2 L347.6,359.2 Z"/>
    <path fill="#FF7058" d="M366.4,324.8 L366.4,324.8 C369.2,322 369.2,317.6 366.4,314.8 L366.4,314.8 C364.4,312.8 364,310 364.8,307.2 L364.8,307.2 C366.4,303.6 364.4,299.6 361.2,298 L361.2,298 C358.4,296.8 356.8,294.4 356.8,291.6 L356.8,291.6 C356.8,287.6 353.6,284.8 350,284.8 L350,284.8 C347.2,284.8 344.8,283.2 343.6,280.4 L343.6,280.4 C342,276.8 338,275.2 334.4,276.8 L334.4,276.8 C331.6,278 328.8,277.2 326.8,275.2 L326.8,275.2 C324,272.4 319.6,272.4 316.8,275.2 L316.8,275.2 C314.8,277.2 312,277.6 309.2,276.8 L309.2,276.8 C305.6,275.2 301.6,277.2 300,280.4 L300,280.4 C298.8,283.2 296.4,284.8 293.6,284.8 L293.6,284.8 C289.6,284.8 286.8,288 286.8,291.6 L286.8,291.6 C286.8,294.4 285.2,296.8 282.4,298 L282.4,298 C278.8,299.6 277.2,303.6 278.8,307.2 L278.8,307.2 C280,310 279.2,312.8 277.2,314.8 L277.2,314.8 C274.4,317.6 274.4,322 277.2,324.8 L277.2,324.8 C279.2,326.8 279.6,329.6 278.8,332.4 L278.8,332.4 C277.2,336 279.2,340 282.4,341.6 L282.4,341.6 C285.2,342.8 286.8,345.2 286.8,348 L286.8,348 C286.8,352 290,354.8 293.6,354.8 L293.6,354.8 C296.4,354.8 298.8,356.4 300,359.2 L300,359.2 C301.6,362.8 305.6,364.4 309.2,362.8 L309.2,362.8 C312,361.6 314.8,362.4 316.8,364.4 L316.8,364.4 C319.6,367.2 324,367.2 326.8,364.4 L326.8,364.4 C328.8,362.4 331.6,362 334.4,362.8 L334.4,362.8 C338,364.4 342,362.4 343.6,359.2 L343.6,359.2 C344.8,356.4 347.2,354.8 350,354.8 L350,354.8 C354,354.8 356.8,351.6 356.8,348 L356.8,348 C356.8,345.2 358.4,342.8 361.2,341.6 L361.2,341.6 C364.8,340 366.4,336 364.8,332.4 L364.8,332.4 C363.6,329.6 364.4,326.8 366.4,324.8 Z"/>
    <circle cx="321.6" cy="319.6" r="31.2" fill="#FFF"/>
    <circle cx="321.6" cy="319.6" r="27.2" fill="#FF7058"/>
  </g>
</svg>
