<svg xmlns="http://www.w3.org/2000/svg" width="509" height="509" viewBox="0 0 509 509">
  <g fill="none" transform="translate(.547 .5)">
    <circle cx="254" cy="254" r="254" fill="#E3A900"/>
    <path fill="#2B3B4E" d="M256.8,177.6 L156.8,177.6 L156.8,297.2 C221.2,280 257.2,321.2 257.2,321.2 C257.2,321.2 293.2,280 357.6,297.2 L357.6,177.6 L256.8,177.6 Z"/>
    <polygon fill="#F1543F" points="252.8 349.2 233.2 349.2 233.2 398 252.8 381.6 272.4 398 272.4 349.2"/>
    <path fill="#E6E9EE" d="M418.8,277.6 C309.2,292 197.2,292 87.2,277.6 L87.2,277.6 L87.2,374.4 L87.2,374.4 C196.8,360 308.8,360 418.8,374.4 L418.8,374.4 L418.8,277.6 L418.8,277.6 Z"/>
    <path fill="#FF7058" d="M275.6,288.4 L275.6,364 C268,364 260.4,364 253.2,364 C245.6,364 238,364 230.8,364 L230.8,288.4 C245.6,288.8 260.4,288.8 275.6,288.4 Z"/>
    <polygon fill="#F9B54C" points="409.2 304 368 304 376.8 269.2 400.4 269.2"/>
    <rect width="8" height="103.2" x="384.8" y="177.6" fill="#FF7058"/>
    <polygon fill="#324A5E" points="256.8 110 92.8 177.6 256.8 244.8 420.8 177.6"/>
    <circle cx="388.8" cy="269.2" r="16.4" fill="#FFD05B"/>
  </g>
</svg>
