<svg xmlns="http://www.w3.org/2000/svg" width="508" height="508" viewBox="0 0 508 508">
  <g fill="none">
    <circle cx="254" cy="254" r="254" fill="#E3A900"/>
    <path fill="#FFF" d="M268.8,254 C294.4,232.8 343.6,184.8 344.4,128.4 L163.6,128.4 C164.4,184.8 214,232.8 239.2,254 C214,275.2 164.4,323.2 163.6,379.6 L344.4,379.6 C343.6,323.2 294,275.2 268.8,254 Z"/>
    <g fill="#FF7058" transform="translate(127 105)">
      <path d="M241.8 23.4L12.2 23.4C5.8 23.4.6 18.2.6 11.8L.6 11.8C.6 5.4 5.8.2 12.2.2L241.4.2C247.8.2 253 5.4 253 11.8L253 11.8C253 18.2 248.2 23.4 241.8 23.4zM241.8 297.4L12.2 297.4C5.8 297.4.6 292.2.6 285.8L.6 285.8C.6 279.4 5.8 274.2 12.2 274.2L241.4 274.2C247.8 274.2 253 279.4 253 285.8L253 285.8C253 292.2 248.2 297.4 241.8 297.4z"/>
    </g>
    <g fill="#84DBFF" transform="translate(174 196)">
      <path d="M25.6 0C44.8 26.8 69.6 47.2 80 55.2 90.8 47.2 115.2 26.8 134.4 0L25.6 0zM26 115.2C14 132 4 151.2.8 171.6L158.8 171.6C155.6 151.2 145.6 132 133.6 115.2L26 115.2z"/>
      <ellipse cx="80" cy="72.8" rx="6" ry="6.8"/>
      <ellipse cx="80" cy="92.8" rx="6" ry="6.8"/>
    </g>
    <g fill="#E6E9EE" transform="translate(142 128)">
      <rect width="12" height="250.8" x="212" y=".4"/>
      <rect width="12" height="250.8" x=".4" y=".4"/>
    </g>
  </g>
</svg>
