<svg xmlns="http://www.w3.org/2000/svg" width="508" height="508" viewBox="0 0 508 508">
  <g fill="none">
    <circle cx="254" cy="254" r="254" fill="#E3A900"/>
    <path fill="#54C0EB" d="M48.4,402.8 C94.4,466.4 169.6,508 254,508 C338.8,508 413.6,466.4 459.6,402.8 L48.4,402.8 Z"/>
    <rect width="244" height="227.6" x="132" y="154.4" fill="#324A5E"/>
    <path fill="#E6E9EE" d="M410,164.4 L94.4,164.4 C88.8,164.4 84.4,160 84.4,154.4 L84.4,154.4 C84.4,148.8 88.8,144.4 94.4,144.4 L410,144.4 C415.6,144.4 420,148.8 420,154.4 L420,154.4 C420.4,160 415.6,164.4 410,164.4 Z"/>
    <polygon fill="#FFF" points="252.4 52.4 97.6 144.4 406.8 144.4"/>
    <g fill="#E6E9EE" transform="translate(150 69)">
      <polygon points=".4 61 102.4 .2 204 61"/>
      <path d="M210,95.4 C202.8,132.6 200.4,230.6 202.4,271.8 C202.4,272.6 202.4,273.4 202.4,274.2 L236.8,274.2 C236.8,273.4 236.8,272.6 236.8,271.8 C238.8,230.6 236,132.6 229.2,95.4 L210,95.4 Z"/>
    </g>
    <g fill="#FFF" transform="translate(341 164)">
      <path d="M9.8.4L9.8 6.8C9.8 10.8 12.6 13.6 15.8 13.6L41.4 13.6C45 13.6 47.4 10.4 47.4 6.8L47.4.4 9.8.4zM56.2 196.4L56.2 189.2C56.2 183.6 52.2 179.2 47 179.2L9.8 179.2C5 179.2.6 183.6.6 189.2L.6 196.4 56.2 196.4z"/>
    </g>
    <path fill="#E6E9EE" d="M282,164.4 C274.8,201.6 272.4,299.6 274.4,340.8 C274.4,341.6 274.4,342.4 274.4,343.2 L308.8,343.2 C308.8,342.4 308.8,341.6 308.8,340.8 C310.8,299.6 308,201.6 301.2,164.4 L282,164.4 Z"/>
    <g fill="#FFF" transform="translate(263 164)">
      <path d="M9.4.4L9.4 6.8C9.4 10.8 12.2 13.6 15.4 13.6L41 13.6C44.6 13.6 47 10.4 47 6.8L47 .4 9.4.4zM56.2 196.4L56.2 189.2C56.2 183.6 52.2 179.2 47 179.2L9.8 179.2C5 179.2.6 183.6.6 189.2L.6 196.4 56.2 196.4z"/>
    </g>
    <path fill="#E6E9EE" d="M203.6,164.4 C196.4,201.6 194,299.6 196,340.8 C196,341.6 196,342.4 196,343.2 L230.4,343.2 C230.4,342.4 230.4,341.6 230.4,340.8 C232.4,299.6 229.6,201.6 222.8,164.4 L203.6,164.4 Z"/>
    <g fill="#FFF" transform="translate(185 164)">
      <path d="M9.4.4L9.4 6.8C9.4 10.8 12.2 13.6 15.4 13.6L41 13.6C44.6 13.6 47 10.4 47 6.8L47 .4 9.4.4zM55.8 196.4L55.8 189.2C55.8 183.6 51.8 179.2 46.6 179.2L9.4 179.2C4.6 179.2.2 183.6.2 189.2L.2 196.4 55.8 196.4z"/>
    </g>
    <path fill="#E6E9EE" d="M125.6,164.4 C118.4,201.6 116,299.6 118,340.8 C118,341.6 118,342.4 118,343.2 L152.4,343.2 C152.4,342.4 152.4,341.6 152.4,340.8 C154.4,299.6 151.6,201.6 144.8,164.4 L125.6,164.4 Z"/>
    <g fill="#FFF" transform="translate(107 164)">
      <path d="M9.4.4L9.4 6.8C9.4 10.8 12.2 13.6 15.4 13.6L41 13.6C44.6 13.6 47 10.4 47 6.8L47 .4 9.4.4zM55.8 196.4L55.8 189.2C55.8 183.6 51.8 179.2 46.6 179.2L9.4 179.2C4.6 179.2.2 183.6.2 189.2L.2 196.4 55.8 196.4z"/>
    </g>
    <rect width="339.2" height="42.4" x="84.4" y="360.4" fill="#E6E9EE"/>
    <rect width="174.4" height="21.6" x="166.8" y="381.6" fill="#ACB3BA"/>
    <rect width="174.4" height="21.6" x="166.8" y="360.4" fill="#CED5E0"/>
  </g>
</svg>
