<svg xmlns="http://www.w3.org/2000/svg" width="509" height="508" viewBox="0 0 509 508">
  <g fill="none" transform="translate(.389)">
    <circle cx="254" cy="254" r="254" fill="#E3A900"/>
    <path fill="#324A5E" d="M254,172.4 L81.2,144 C79.6,143.6 78.4,144.8 78.4,146.4 L78.4,367.6 C78.4,368.8 79.2,370 80.4,370 L254,398.4 L254,172.4 Z"/>
    <polygon fill="#CED5E0" points="254 180.8 87.6 153.6 87.6 363.2 254 390.4"/>
    <path fill="#324A5E" d="M254,172.4 L426.8,144 C428.4,143.6 429.6,144.8 429.6,146.4 L429.6,367.6 C429.6,368.8 428.8,370 427.6,370 L254,398.4 L254,172.4 Z"/>
    <polygon fill="#ACB3BA" points="254 180.8 420.4 153.6 420.4 363.2 254 390.4"/>
    <path fill="#CED5E0" d="M404,142.4 C356,128.8 299.2,142.8 254,181.2 L254,390.4 C299.2,352 356,337.6 404,351.6 L404,142.4 Z"/>
    <g fill="#E6E9EE" transform="translate(104 109)">
      <path d="M284 .6C241.2-2.6 190.4 23.8 150 72.2L150 281.4C190.4 233 241.2 206.6 284 209.8L284 .6zM0 33.4C48 19.8 104.8 33.8 150 72.2L150 281.4C104.8 243 48 228.6 0 242.6L0 33.4z"/>
    </g>
    <path fill="#FFF" d="M120,109.6 C162.8,106.4 213.6,132.8 254,181.2 L254,390.4 C213.6,342 162.8,315.6 120,318.8 L120,109.6 Z"/>
  </g>
</svg>
