<svg xmlns="http://www.w3.org/2000/svg" width="509" height="508" viewBox="0 0 509 508">
  <g fill="none" transform="translate(.84)">
    <circle cx="254" cy="254" r="254" fill="#E3A900"/>
    <g fill="#F1543F" transform="translate(115 79)">
      <path d="M228.2 93.4L203 79.4C196.6 75.8 194.6 68.2 197.8 61.8L227.8 7.4C231.4 1 239-1 245.4 2.2L270.6 16.2C277 19.8 279 27.4 275.8 33.8L245.8 88.2C242.2 94.6 234.2 97 228.2 93.4zM49.8 93.4L75 79.4C81.4 75.8 83.4 68.2 80.2 61.8L50.2 7.4C46.6 1 39-1 32.6 2.2L7.4 16.2C1 19.8-1 27.4 2.2 33.8L32.2 88.2C35.8 94.6 43.8 97 49.8 93.4z"/>
    </g>
    <path fill="#FFF" d="M290.4,118.4 L217.6,118.4 C208.4,118.4 201.2,111.2 201.2,102 L201.2,81.2 C201.2,72 208.4,64.8 217.6,64.8 L290.4,64.8 C299.6,64.8 306.8,72 306.8,81.2 L306.8,102 C306.8,111.2 299.2,118.4 290.4,118.4 Z M217.6,77.2 C215.2,77.2 213.6,79.2 213.6,81.2 L213.6,102 C213.6,104.4 215.6,106 217.6,106 L290.4,106 C292.8,106 294.4,104 294.4,102 L294.4,81.2 C294.4,78.8 292.4,77.2 290.4,77.2 L217.6,77.2 Z"/>
    <g fill="#F1543F" transform="translate(86 270)">
      <path d="M276.8 138.4L302 138.4C320.8 138.4 335.6 123.2 335.6 104.8L335.6 59.6C335.6 27.2 309.2.8 276.8.8L276.8.8 276.8 138.4 276.8 138.4zM59.2 138.4L34 138.4C15.2 138.4.4 123.2.4 104.8L.4 59.6C.4 27.2 26.8.8 59.2.8L59.2.8 59.2 138.4z"/>
    </g>
    <path fill="#FF7058" d="M355.2,443.2 L152.8,443.2 C137.6,443.2 125.2,430.8 125.2,415.6 L125.2,162.4 C125.2,126.8 154,98 189.6,98 L318.8,98 C354.4,98 383.2,126.8 383.2,162.4 L383.2,415.6 C382.8,430.8 370.4,443.2 355.2,443.2 Z"/>
    <g fill="#F1543F" transform="translate(140 112)">
      <path d="M228 84.4L228 52C228 23.2 204.8 0 176 0L52 0C23.2 0 0 23.2 0 52L0 84.4C0 91.6 6 97.6 13.2 97.6L215.2 97.6C222 97.6 228 92 228 84.4zM210.8 311.6L12 311.6C5.6 311.6 0 306.4 0 299.6L0 170.8C0 164.4 5.2 158.8 12 158.8L210.8 158.8C217.2 158.8 222.8 164 222.8 170.8L222.8 299.6C222.8 306.4 217.2 311.6 210.8 311.6z"/>
    </g>
    <rect width="166" height="10" x="168.4" y="291.6" fill="#FFF"/>
  </g>
</svg>
