<?xml version="1.0" encoding="UTF-8"?>
<svg width="503px" height="509px" viewBox="0 0 503 509" version="1.1" xmlns="http://www.w3.org/2000/svg" xmlns:xlink="http://www.w3.org/1999/xlink">
    <!-- Generator: Sketch 49.3 (51167) - http://www.bohemiancoding.com/sketch -->
    <title>wallet</title>
    <desc>Created with Sketch.</desc>
    <defs></defs>
    <g id="Page-1" stroke="none" stroke-width="1" fill="none" fill-rule="evenodd">
        <g id="wallet" transform="translate(-1.000000, 0.000000)" fill-rule="nonzero">
            <ellipse id="Oval" fill="#E3A900" cx="252.317195" cy="254.323654" rx="250.772484" ry="253.830685"></ellipse>
            <g id="Group" transform="translate(100.043380, 104.204727)">
                <path d="M297.840087,243.911197 C297.840087,261.133032 293.848824,260.804386 276.022766,260.804386 L35.525409,260.804386 C17.6914319,260.804386 3.23894165,246.840953 3.23894165,229.619118 L3.23894165,83.2315199 C3.23894165,66.0096849 17.6914319,52.0382362 35.525409,52.0382362 L274.300347,52.0382362 C292.134323,52.0382362 297.840087,58.2143701 297.840087,75.4362047 L297.840087,243.911197 Z" id="Shape" fill="#525252"></path>
                <path d="M291.560183,238.716992 C291.560183,255.938827 286.666135,255.610181 269.596357,255.610181 L40.4194578,255.610181 C23.3496809,255.610181 9.5069669,241.646748 9.5069669,224.424913 L9.5069669,91.2432599 C9.5069669,74.0214249 23.3496809,60.0579921 40.4194578,60.0579921 L271.607827,60.0579921 C288.685524,60.0579921 291.560183,67.9575118 291.560183,85.1793462 L291.560183,238.716992 Z" id="Shape" fill="#444545"></path>
                <g transform="translate(63.353384, 48.094485)">
                    <g>
                        <rect id="Rectangle-path" fill="#63BD6E" transform="translate(109.559954, 58.873366) rotate(7.596915) translate(-109.559954, -58.873366) " x="7.25054003" y="14.0623511" width="204.618827" height="89.6220297"></rect>
                        <path d="M202.212116,112.460945 L6.27594443,86.0169919 L16.9113934,5.28638583 L212.847566,31.7383543 L202.212116,112.460945 Z M210.836096,33.594 L18.3645616,7.62297636 L8.27949513,84.1733703 L200.758948,110.140386 L210.836096,33.594 Z" id="Shape" fill="#117F4A"></path>
                        <path d="M144.1725,63.5488505 C146.726433,44.1988346 133.291556,26.4199055 114.174673,23.8308189 C95.0577903,21.2537559 77.485146,34.8524725 74.9510104,54.2024882 C72.393118,73.5525037 85.8240348,91.3394485 104.948837,93.9125037 C124.06572,96.4975825 141.630445,82.9028741 144.1725,63.5488505 Z" id="Shape" fill="#117F4A"></path>
                    </g>
                    <path d="M104.802332,88.0369609 L105.566533,82.2736377 C103.246215,81.6083306 101.405007,80.7065589 100.058748,79.5643151 C98.7045692,78.4300868 97.6236023,76.7628108 96.8277256,74.5705037 C96.0080908,72.3781967 95.7150816,69.7570471 95.928899,66.7190788 L100.80711,66.3182916 C100.759595,69.4163778 101.115957,71.7730081 101.860359,73.3881811 C102.90569,75.6125515 104.366778,76.9591967 106.192147,77.436134 L108.619373,59.1121339 C106.73065,58.4147638 104.861726,57.2244252 102.988842,55.5571496 C101.610906,54.3507795 100.644766,52.7877087 100.082505,50.867937 C99.5083655,48.9481654 99.377699,46.828 99.6786272,44.5194646 C100.221091,40.4194094 101.836602,37.2612047 104.544959,35.056874 C106.386167,33.5779685 108.900504,32.8485354 112.068174,32.8805984 L112.432455,30.1231811 L115.231883,30.507937 L114.859682,33.2573386 C117.5522,33.9787559 119.607226,35.2452441 121.001,37.0768425 C122.802612,39.4495039 123.6856,42.5035039 123.638084,46.2188032 L118.617329,46.415189 C118.641087,44.1066535 118.284724,42.2910866 117.55616,40.9765039 C116.835515,39.6539055 115.722871,38.7000315 114.230107,38.0948425 L112.040456,54.7114882 C114.321178,55.7294882 115.821861,56.5110236 116.558344,57.0520866 C117.928361,58.0380236 118.99349,59.1562205 119.75373,60.4187008 C120.52585,61.6771732 121.060394,63.1119919 121.353403,64.7311731 C121.654332,66.3423387 121.686009,68.0496929 121.452393,69.8331967 C120.90993,73.8490868 119.440923,77.0433623 117.005778,79.4240391 C114.578551,81.8047165 111.692013,82.8587872 108.36596,82.5862519 L107.60176,88.4096929 L104.802332,88.0369609 Z M111.446518,37.6499685 C109.565715,37.7501654 108.013557,38.4635669 106.74253,39.7861654 C105.499219,41.100748 104.738979,42.7439764 104.485566,44.7118425 C104.232152,46.667685 104.453889,48.3830551 105.182453,49.8298976 C105.903097,51.2767401 107.284993,52.5392205 109.343978,53.6173386 L111.446518,37.6499685 Z M108.991575,77.8128741 C110.864459,77.7968424 112.519566,77.0313387 113.941057,75.5123542 C115.35463,74.0013859 116.229699,72.0214963 116.554385,69.580701 C116.839475,67.4845825 116.633576,65.7451656 115.952527,64.3744727 C115.279397,62.9877481 113.72328,61.6250708 111.311892,60.2824331 L108.991575,77.8128741 Z" id="Shape" fill="#63BD6E"></path>
                </g>
                <g transform="translate(35.636280, 0.000000)">
                    <g>
                        <rect id="Rectangle-path" fill="#63BD6E" transform="translate(114.801227, 87.471503) rotate(-24.419770) translate(-114.801227, -87.471503) " x="12.4901287" y="42.6654923" width="204.622196" height="89.6120217"></rect>
                        <path d="M221.447788,83.1994566 L41.441031,165.909953 L8.1884246,91.756268 L188.187262,9.04577165 L221.447788,83.1994566 Z M187.450779,11.6989842 L10.6394086,92.9425986 L42.1854333,163.268764 L218.996804,82.017134 L187.450779,11.6989842 Z" id="Shape" fill="#117F4A"></path>
                        <ellipse id="Oval" fill="#117F4A" cx="114.816126" cy="87.479866" rx="34.9235518" ry="35.3494488"></ellipse>
                    </g>
                    <path d="M126.045513,114.753449 L123.67768,109.471071 C121.357363,110.152409 119.322136,110.372842 117.591796,110.128362 C115.853538,109.883882 114.055885,109.062268 112.226557,107.623441 C110.401187,106.200646 108.769838,104.140599 107.360225,101.447307 L111.288135,98.4814801 C112.879889,101.142708 114.412249,102.958275 115.881255,103.920166 C117.94024,105.242764 119.872518,105.611488 121.682049,105.022331 L114.127158,88.193268 C112.171123,88.6100868 109.957714,88.6100868 107.50673,88.193268 C105.705118,87.9127165 104.065849,87.0991179 102.581004,85.7805273 C101.096159,84.4579293 99.864728,82.7345434 98.9144275,80.6143778 C97.2276432,76.8429684 96.9504725,73.296 98.0789543,69.9694646 C98.866912,67.7210471 100.61705,65.7652047 103.321447,64.0899132 L102.196924,61.5609449 L104.762736,60.378622 L105.899138,62.9075906 C108.544141,62.0779609 110.95553,62.0619292 113.089746,62.8514801 C115.865417,63.9015434 118.217411,66.0136929 120.118012,69.1999529 L115.972326,72.0495515 C114.764651,70.0856929 113.521342,68.7470633 112.214678,68.0096141 C110.915934,67.2721656 109.470685,67.0557401 107.89081,67.3523226 L114.736935,82.6183151 C117.203757,82.2576061 118.89054,82.1173306 119.793326,82.1814566 C121.464272,82.2816538 122.964955,82.6583939 124.271618,83.323701 C125.586201,83.9649609 126.778037,84.9068108 127.882761,86.1091731 C128.987486,87.3235589 129.90215,88.7463542 130.634674,90.3975986 C132.289781,94.0848424 132.705537,97.5837165 131.893822,100.902236 C131.066269,104.228772 129.177546,106.669567 126.215775,108.220614 L128.611325,113.567118 L126.045513,114.753449 Z M105.289361,68.4745273 C103.749082,69.5686774 102.806701,71.0115118 102.42658,72.7950155 C102.062299,74.5865354 102.280076,76.3860707 103.091791,78.1896141 C103.895587,79.9971656 104.988433,81.3197636 106.35449,82.1654249 C107.732426,83.0030707 109.573634,83.3317165 111.862274,83.1433462 L105.289361,68.4745273 Z M124.25974,103.840008 C125.835655,102.830024 126.817633,101.295008 127.237349,99.2389684 C127.649146,97.1949529 127.352177,95.0507401 126.338523,92.7983151 C125.487212,90.8745354 124.406245,89.5118586 123.115419,88.7102835 C121.816675,87.904701 119.789367,87.5760552 117.029535,87.7323623 L124.25974,103.840008 Z" id="Shape" fill="#63BD6E"></path>
                </g>
                <g id="Shape" transform="translate(0.000000, 64.125986)">
                    <path d="M284.365615,194.081299 C284.365615,211.303134 277.630358,216.172701 260.616016,216.172701 L20.5581725,216.172701 C3.54382981,216.172701 3.23498207,214.55352 3.23498207,197.331685 L3.23498207,20.8329292 C3.23498207,20.8329292 3.4290018,16.604622 3.63885988,13.9834725 C4.08629314,8.0558268 8.37056559,2.20833859 8.37056559,2.20833859 C8.37056559,2.20833859 10.9363776,13.041622 18.2061782,16.0635591 C29.5979082,20.8088819 38.435705,20.4000787 38.435705,20.4000787 L260.612056,20.4000787 C277.626399,20.4000787 284.361655,22.6605197 284.361655,39.8823543 L284.361655,194.081299 L284.365615,194.081299 Z" fill="#616161"></path>
                    <g id="Group" transform="translate(0.000000, 24.047246)" fill="#717171">
                        <path d="M23.5674581,8.16804727 L7.72911263,8.16003151 C5.53946134,8.16003151 3.76952623,6.36049609 3.76952623,4.15215748 C3.76952623,1.93580315 5.53946134,0.144283465 7.72911263,0.144283465 L23.5674581,0.152299213 C25.7571094,0.152299213 27.5270445,1.9438189 27.5270445,4.16017323 C27.5270445,6.37652754 25.7571094,8.16804727 23.5674581,8.16804727 Z" id="Shape"></path>
                        <path d="M254.838979,187.324024 L247.018796,187.324024 C244.837064,187.324024 243.059209,185.532504 243.059209,183.31615 C243.059209,181.099795 244.837064,179.308275 247.018796,179.308275 L254.838979,179.308275 C268.04024,179.308275 270.221972,178.141984 271.358374,173.853559 C271.924595,171.717362 274.082569,170.430834 276.208867,171.019992 C278.319327,171.593118 279.582435,173.781417 279.008294,175.929638 C275.999009,187.324024 265.719923,187.324024 254.838979,187.324024 Z M215.128288,187.324024 L183.2259,187.324024 C181.036249,187.324024 179.266314,185.532504 179.266314,183.31615 C179.266314,181.099795 181.036249,179.308275 183.2259,179.308275 L215.128288,179.308275 C217.310019,179.308275 219.087874,181.099795 219.087874,183.31615 C219.087874,185.532504 217.310019,187.324024 215.128288,187.324024 Z M151.327472,187.324024 L119.425085,187.324024 C117.235434,187.324024 115.465498,185.532504 115.465498,183.31615 C115.465498,181.099795 117.235434,179.308275 119.425085,179.308275 L151.327472,179.308275 C153.509205,179.308275 155.287059,181.099795 155.287059,183.31615 C155.287059,185.532504 153.509205,187.324024 151.327472,187.324024 Z M87.5226972,187.324024 L55.6203099,187.324024 C53.4306586,187.324024 51.6607234,185.532504 51.6607234,183.31615 C51.6607234,181.099795 53.4306586,179.308275 55.6203099,179.308275 L87.5226972,179.308275 C89.7123483,179.308275 91.4822836,181.099795 91.4822836,183.31615 C91.4822836,185.532504 89.7123483,187.324024 87.5226972,187.324024 Z M276.022766,146.684181 C273.833115,146.684181 272.06318,144.892661 272.06318,142.676307 L272.06318,110.384866 C272.06318,108.168512 273.833115,106.376992 276.022766,106.376992 C278.212418,106.376992 279.982353,108.168512 279.982353,110.384866 L279.982353,142.676307 C279.982353,144.888654 278.212418,146.684181 276.022766,146.684181 Z M276.022766,82.101299 C273.833115,82.101299 272.06318,80.3097798 272.06318,78.0934249 L272.06318,45.8019842 C272.06318,43.5936457 273.833115,41.7941102 276.022766,41.7941102 C278.212418,41.7941102 279.982353,43.5936457 279.982353,45.8019842 L279.982353,78.0934249 C279.982353,80.3097798 278.212418,82.101299 276.022766,82.101299 Z M274.799254,17.6466693 C273.120389,17.6466693 271.560312,16.5525197 271.025769,14.8451654 C269.905205,11.2460945 267.972927,8.26824411 255.698209,8.26824411 L246.868332,8.26022835 C244.678681,8.26022835 242.908745,6.46870868 242.908745,4.25235433 C242.908745,2.036 244.678681,0.244480315 246.868332,0.244480315 L255.698209,0.252496063 C265.605095,0.252496063 275.234809,1.72338583 278.580659,12.4244094 C279.237951,14.5365591 278.077792,16.7929921 275.999009,17.4582992 C275.599091,17.5865512 275.195213,17.6466693 274.799254,17.6466693 Z M214.965944,8.25622047 L183.063557,8.24018896 C180.873906,8.24018896 179.103971,6.44065354 179.103971,4.23231496 C179.103971,2.01596063 180.881825,0.224440945 183.063557,0.224440945 L183.071476,0.224440945 L214.973864,0.240472441 C217.155595,0.240472441 218.925531,2.03199213 218.925531,4.24834646 C218.925531,6.46470081 217.155595,8.25622047 214.965944,8.25622047 Z M151.173048,8.22415751 L151.165129,8.22415751 L119.262742,8.20812599 C117.08101,8.20812599 115.303156,6.41660633 115.311074,4.20025197 C115.311074,1.98389764 117.08101,0.192377953 119.270661,0.192377953 L151.173048,0.208409449 C153.3627,0.208409449 155.132635,2.00794488 155.132635,4.21628346 C155.124715,6.4286299 153.350821,8.22415751 151.173048,8.22415751 Z M87.3682733,8.19209448 L55.465886,8.18407872 C53.2762347,8.18407872 51.5062996,6.3845433 51.5062996,4.16818898 C51.5062996,1.95985039 53.2762347,0.168330708 55.465886,0.168330708 L87.3682733,0.176346457 C89.5579245,0.176346457 91.3278598,1.97588189 91.3278598,4.19223622 C91.3278598,6.40057481 89.5579245,8.19209448 87.3682733,8.19209448 Z" id="Shape"></path>
                        <path d="M23.5674581,187.324024 L7.72911263,187.324024 C5.53946134,187.324024 3.76952623,185.532504 3.76952623,183.31615 C3.76952623,181.099795 5.53946134,179.308275 7.72911263,179.308275 L23.5674581,179.308275 C25.7571094,179.308275 27.5270445,181.099795 27.5270445,183.31615 C27.5270445,185.532504 25.7571094,187.324024 23.5674581,187.324024 Z" id="Shape"></path>
                    </g>
                    <path d="M269.156843,186.462331 C269.156843,201.071032 264.084614,202.173197 249.311397,202.173197 L3.6626174,202.173197 L3.6626174,32.9607559 L250.099354,33.0689685 C264.88445,33.0689685 269.156843,37.2010866 269.156843,51.8017717 L269.156843,186.462331 Z" fill="#616161"></path>
                </g>
                <g transform="translate(205.898491, 132.259845)">
                    <path d="M92.4721801,56.8637166 L15.4463465,56.8637166 C10.4651868,56.8637166 1.17203757,47.8299685 1.17203757,29.5981496 C1.17203757,11.3663307 10.4691464,2.84959842 15.4463465,2.84959842 L92.4721801,2.84959842 C95.0340329,2.8536063 94.7568615,56.8637166 92.4721801,56.8637166 Z" id="Shape" fill="#727172"></path>
                    <path d="M92.4721801,61.1962283 L15.4463465,61.1962283 C10.4651868,61.1962283 1.17203757,52.1704961 1.17203757,33.9386772 C1.17203757,15.7068583 10.4691464,7.18211024 15.4463465,7.18211024 L92.4721801,7.18211024 C95.0340329,7.18211024 94.7568615,61.1962283 92.4721801,61.1962283 Z" id="Shape" fill="#575656"></path>
                    <ellipse id="Oval" fill="#D6CB78" cx="25.4086658" cy="34.3434725" rx="10.0533898" ry="11.9073937"></ellipse>
                    <ellipse id="Oval" fill="#ECE17E" cx="25.4086658" cy="34.3434725" rx="8.09735414" ry="9.59885825"></ellipse>
                </g>
            </g>
        </g>
    </g>
</svg>