<?xml version="1.0" encoding="UTF-8"?>
<svg width="32px" height="32px" viewBox="0 0 32 32" version="1.1" xmlns="http://www.w3.org/2000/svg" xmlns:xlink="http://www.w3.org/1999/xlink">
    <!-- Generator: Sketch 48.2 (47327) - http://www.bohemiancoding.com/sketch -->
    <title>b</title>
    <desc>Created with Sketch.</desc>
    <defs></defs>
    <g id="Page-1" stroke="none" stroke-width="1" fill="none" fill-rule="evenodd">
        <g id="b">
            <rect id="Rectangle-30" fill="#FFFFFF" x="1" y="1" width="30" height="30"></rect>
            <path d="M19.661,18 L13.968,18 C13.433,18 13,18.433 13,18.962 C13,19.486 13.433,19.924 13.968,19.924 L19.661,19.924 C20.19,19.924 20.623,19.486 20.623,18.962 C20.623,18.433 20.19,18 19.661,18" id="Fill-135" fill="#14235D"></path>
            <path d="M13.968,13.93 L16.769,13.93 C17.304,13.93 17.737,13.492 17.737,12.962 C17.737,12.433 17.304,12 16.769,12 L13.968,12 C13.433,12 13,12.433 13,12.962 C13,13.492 13.433,13.93 13.968,13.93" id="Fill-136" fill="#14235D"></path>
            <path d="M23.939,18.954 C23.923,21.729 21.667,24 18.887,24 L13.082,24 C10.302,24 8.03,21.729 8.03,18.954 L8.03,13.058 C8.03,10.278 10.302,8 13.082,8 L16.615,8 C18.139,8 19.817,9.273 20.518,10.759 C20.71,11.176 20.787,11.416 20.972,12.475 C21.082,13.107 21.1,13.581 21.384,13.843 C21.785,14.207 23.228,14.047 23.565,14.191 C23.971,14.365 23.971,14.87 23.971,14.87 L23.939,18.954 Z M0,32 L32,32 L32,0 L0,0 L0,32 Z" id="Fill-137" fill="#14235D"></path>
        </g>
    </g>
</svg>