<svg xmlns="http://www.w3.org/2000/svg" width="509" height="509" viewBox="0 0 509 509">
  <g fill="none" transform="translate(.014 .5)">
    <circle cx="254" cy="254" r="254" fill="#E3A900"/>
    <path fill="#E6E9EE" d="M98.8,195.6 L98.8,400.8 C98.8,414 109.6,424.4 122.4,424.4 L385.6,424.4 C398.8,424.4 409.2,413.6 409.2,400.8 L409.2,195.6 L98.8,195.6 Z"/>
    <polygon fill="#B1B1B1" points="409.2 195.6 254 332.4 98.8 195.6 254 83.6"/>
    <polygon fill="#FFF" points="382 106.4 382 219.2 254 332.4 126 219.2 126 106.4"/>
    <path fill="#B1B1B1" d="M402.4,416.4 C398,421.6 392,424.8 385.6,424.8 L122.4,424.8 C116,424.8 110,421.6 105.6,416.4 L227.6,309.2 L254,332.4 L280.4,309.2 L402.4,416.4 Z"/>
    <path fill="#E6E9EE" d="M402.4,417.6 C398,422 392,424.4 385.6,424.4 L122.4,424.4 C116,424.4 110,421.6 105.6,417.6 L236.4,314 C246.8,306 261.2,306 271.6,314 L402.4,417.6 Z"/>
    <g fill="#E6E9EE" transform="translate(154 131)">
      <rect width="198" height="12.4" x=".8" y=".2"/>
      <rect width="198" height="12.4" x=".8" y="31.8"/>
      <rect width="198" height="12.4" x=".8" y="63.8"/>
    </g>
  </g>
</svg>
