<?xml version="1.0" encoding="UTF-8"?>
<svg width="32px" height="32px" viewBox="0 0 32 32" version="1.1" xmlns="http://www.w3.org/2000/svg" xmlns:xlink="http://www.w3.org/1999/xlink">
    <!-- Generator: Sketch 48.2 (47327) - http://www.bohemiancoding.com/sketch -->
    <title>linkedin</title>
    <desc>Created with Sketch.</desc>
    <defs></defs>
    <g id="Page-1" stroke="none" stroke-width="1" fill="none" fill-rule="evenodd">
        <g id="linkedin">
            <rect id="Rectangle-30" fill="#FFFFFF" x="2" y="0" width="30" height="30"></rect>
            <path d="M25.3165339,22.985 L21.6815627,22.985 L21.6815627,17.797 C21.6815627,16.56 21.6574392,14.969 19.7922549,14.969 C17.900754,14.969 17.6123686,16.317 17.6123686,17.709 L17.6123686,22.985 L13.9806869,22.985 L13.9806869,12.317 L17.4654346,12.317 L17.4654346,13.776 L17.5158747,13.776 C18.0005375,12.937 19.1869746,12.052 20.955665,12.052 C24.6366901,12.052 25.3165339,14.261 25.3165339,17.134 L25.3165339,22.985 Z M9.88188678,10.86 C8.71409059,10.86 7.77217798,9.998 7.77217798,8.937 C7.77217798,7.876 8.71409059,7.014 9.88188678,7.014 C11.0442004,7.014 11.988306,7.876 11.988306,8.937 C11.988306,9.998 11.0442004,10.86 9.88188678,10.86 L9.88188678,10.86 Z M11.6999207,22.985 L8.06056333,22.985 L8.06056333,12.317 L11.6999207,12.317 L11.6999207,22.985 Z M-1,31 L34.0887119,31 L34.0887119,-1 L-1,-1 L-1,31 Z" id="Fill-118" fill="#14235D"></path>
            <rect id="Rectangle-2" fill="#14235D" x="0" y="27" width="32" height="5"></rect>
        </g>
    </g>
</svg>