<?xml version="1.0" encoding="UTF-8"?>
<svg width="1490px" height="600px" viewBox="0 0 1490 600" version="1.1" xmlns="http://www.w3.org/2000/svg" xmlns:xlink="http://www.w3.org/1999/xlink">
    <!-- Generator: Sketch 48.2 (47327) - http://www.bohemiancoding.com/sketch -->
    <title>ux/ui</title>
    <desc>Created with Sketch.</desc>
    <defs>
        <rect id="path-1" x="0" y="0" width="110.51956" height="32.6491329" rx="13.8372527"></rect>
        <rect id="path-3" x="0" y="25.8000935" width="129.985012" height="159.130094" rx="6"></rect>
        <rect id="path-4" x="9.26269134" y="35.3678935" width="111.45963" height="139.994494"></rect>
        <ellipse id="path-5" cx="23.4034254" cy="22.9997885" rx="23.0962975" ry="22.9785462"></ellipse>
    </defs>
    <g id="Page-1" stroke="none" stroke-width="1" fill="none" fill-rule="evenodd">
        <g id="ux/ui">
            <g id="Group" transform="translate(277.000000, 73.000000)">
                <g id="Group-10" transform="translate(80.000000, 28.000000)"></g>
                <g id="Group-49" transform="translate(173.094420, 216.579228) rotate(-10.000000) translate(-173.094420, -216.579228) translate(32.094420, 22.079228)">
                    <g id="Group-43" transform="translate(141.000000, 194.500000) rotate(-360.000000) translate(-141.000000, -194.500000) translate(-0.000000, 0.000000)">
                        <g id="Group-45" transform="translate(141.019594, 194.122659) rotate(-90.000000) translate(-141.019594, -194.122659) translate(-52.980406, 53.622659)">
                            <g id="Ipad-Mini" transform="translate(194.040541, 140.562697) rotate(-990.000000) translate(-194.040541, -140.562697) translate(54.313956, -52.607015)">
                                <path d="M259.749,386 L19.251,386 C8.62242857,386 0,377.175241 0,366.287379 L0,19.7126207 C0,8.82475862 8.62242857,0 19.251,0 L259.749,0 C270.377571,0 279,8.82475862 279,19.7126207 L279,366.287379 C279,377.175241 270.377571,386 259.749,386 L259.749,386 Z" id="Fill-1113" fill="#E5E6E7" fill-rule="evenodd"></path>
                                <path d="M259.749,386 L19.251,386 C8.62242857,386 0,377.175241 0,366.287379 L0,19.7126207 C0,8.82475862 8.62242857,0 19.251,0 L259.749,0 C270.377571,0 279,8.82475862 279,19.7126207 L279,366.287379 C279,377.175241 270.377571,386 259.749,386 L259.749,386 Z" id="Stroke-1114" stroke="#6D6E71" stroke-width="2" stroke-linecap="round"></path>
                                <path d="M139.5,19.9655172 L146.142857,19.9655172" id="Stroke-1438" stroke="#6D6E71" stroke-width="2" stroke-linecap="round"></path>
                                <polygon id="Fill-1439" fill="#FFFFFF" fill-rule="evenodd" points="19.9285714 39.9310345 259.071429 39.9310345 259.071429 319.448276 19.9285714 319.448276"></polygon>
                                <polygon id="Stroke-1440" stroke="#6D6E71" stroke-width="2" stroke-linecap="round" points="19.9285714 39.9310345 259.071429 39.9310345 259.071429 319.448276 19.9285714 319.448276"></polygon>
                                <path d="M159.428571,352.724138 C159.428571,363.751759 150.507214,372.689655 139.5,372.689655 C128.492786,372.689655 119.571429,363.751759 119.571429,352.724138 C119.571429,341.696517 128.492786,332.758621 139.5,332.758621 C150.507214,332.758621 159.428571,341.696517 159.428571,352.724138 L159.428571,352.724138 Z" id="Fill-1441" fill="#FFFFFF" fill-rule="evenodd"></path>
                                <path d="M159.428571,352.724138 C159.428571,363.751759 150.507214,372.689655 139.5,372.689655 C128.492786,372.689655 119.571429,363.751759 119.571429,352.724138 C119.571429,341.696517 128.492786,332.758621 139.5,332.758621 C150.507214,332.758621 159.428571,341.696517 159.428571,352.724138 L159.428571,352.724138 Z" id="Stroke-1442" stroke="#6D6E71" stroke-width="2" stroke-linecap="round"></path>
                            </g>
                        </g>
                        <g id="Group-3" transform="translate(94.907468, 295.119142) rotate(-360.000000) translate(-94.907468, -295.119142) translate(39.407468, 278.619142)">
                            <g id="Rectangle-6-Clipped-Copy" transform="translate(-0.000000, 0.000000)">
                                <g id="Rectangle-6-Clipped">
                                    <mask id="mask-2" fill="white">
                                        <use xlink:href="#path-1"></use>
                                    </mask>
                                    <g id="path-1"></g>
                                    <g id="Rectangle-6" mask="url(#mask-2)" fill="#A7CD96" fill-rule="nonzero">
                                        <g transform="translate(-0.433996, 0.000000)" id="path-1">
                                            <rect x="0.278717787" y="0" width="110.51956" height="32.6491329" rx="13.8372527"></rect>
                                        </g>
                                    </g>
                                </g>
                            </g>
                            <path d="M18.0785137,10.2134948 L20.4291644,10.2134948 L24.4363138,21.6481132 L22.4169629,21.6481132 L21.3441828,18.5209662 L17.1950477,18.5209662 L16.1538199,21.6481132 L14.2764546,21.6481132 L18.0785137,10.2134948 Z M20.9182259,16.9731864 L19.2617271,11.9192113 L19.2301748,11.9192113 L17.5578998,16.9731864 L20.9182259,16.9731864 Z M32.7819125,9.72389095 L32.7819125,21.6481132 L31.2673993,21.6481132 L31.1411899,20.8268423 L31.1096375,20.8268423 C30.4628142,21.4427955 29.6582291,21.8376373 28.5381204,21.8376373 C26.6607551,21.8376373 25.3828846,20.6531119 25.3828846,17.6996953 C25.3828846,14.4619925 27.0551595,13.3090545 28.8220916,13.3090545 C29.7528861,13.3090545 30.4628142,13.5459596 31.0149804,14.0197697 L31.0149804,9.72389095 L32.7819125,9.72389095 Z M30.9676519,19.5317612 L30.9676519,15.4254065 C30.620576,15.1569141 29.9737526,14.7936596 29.2007199,14.7936596 C27.7808638,14.7936596 27.2602499,15.978185 27.2602499,17.6839016 C27.2602499,19.4527928 27.8124161,20.3688258 29.121839,20.3688258 C29.8159908,20.3688258 30.5259189,19.9897777 30.9676519,19.5317612 Z M41.9794248,9.72389095 L41.9794248,21.6481132 L40.4649116,21.6481132 L40.3387022,20.8268423 L40.3071498,20.8268423 C39.6603265,21.4427955 38.8557414,21.8376373 37.7356327,21.8376373 C35.8582674,21.8376373 34.5803969,20.6531119 34.5803969,17.6996953 C34.5803969,14.4619925 36.2526719,13.3090545 38.0196039,13.3090545 C38.9503984,13.3090545 39.6603265,13.5459596 40.2124928,14.0197697 L40.2124928,9.72389095 L41.9794248,9.72389095 Z M40.1651642,19.5317612 L40.1651642,15.4254065 C39.8180883,15.1569141 39.171265,14.7936596 38.3982322,14.7936596 C36.9783761,14.7936596 36.4577622,15.978185 36.4577622,17.6839016 C36.4577622,19.4527928 37.0099284,20.3688258 38.3193513,20.3688258 C39.0135032,20.3688258 39.7234312,19.9897777 40.1651642,19.5317612 Z M51.6344463,21.6481132 L49.7886334,21.6481132 L49.7886334,11.7612746 L46.3652026,11.7612746 L46.3652026,10.2134948 L55.0263248,10.2134948 L55.0263248,11.7612746 L51.6344463,11.7612746 L51.6344463,21.6481132 Z M58.2762176,21.8376373 C55.4049531,21.8376373 54.42683,20.0371587 54.42683,17.6049332 C54.42683,14.9831837 55.7835814,13.3090545 58.481308,13.3090545 C61.1790346,13.3090545 62.2518147,14.9989774 62.2518147,17.4154092 C62.2518147,20.1003334 61.0843775,21.8376373 58.2762176,21.8376373 Z M58.3708747,20.4320005 C59.6171929,20.4320005 60.3586733,19.6107296 60.3586733,17.5101712 C60.3586733,15.4727875 59.6960738,14.777866 58.4182033,14.777866 C57.1245566,14.777866 56.3199715,15.5517559 56.3199715,17.5417585 C56.3199715,19.5317612 56.9510186,20.4320005 58.3708747,20.4320005 Z M71.8910601,21.8376373 C73.910411,21.8376373 76.0559713,20.9058107 76.4503758,18.3156485 L74.8096532,17.999775 C74.4783534,19.4527928 73.6895445,20.2740638 71.9857171,20.2740638 C69.855933,20.2740638 68.6569434,19.0579511 68.6569434,15.9623914 C68.6569434,12.9773874 69.9821424,11.6033379 72.1434789,11.6033379 C73.8473063,11.6033379 74.620339,12.4404025 74.8096532,14.1619128 L76.5134805,14.003976 C76.3399425,11.2558771 74.620339,10.008177 72.1592551,10.008177 C68.7673766,10.008177 66.7638019,12.3298468 66.7638019,16.0887407 C66.7638019,19.5475549 68.2152104,21.8376373 71.8910601,21.8376373 Z M84.3384653,16.1519154 L84.3384653,19.926603 C84.3384653,20.3688258 84.4173462,20.5583499 84.8275268,20.5583499 C84.9695124,20.5583499 85.111498,20.5267625 85.3165883,20.4635878 L85.3796931,21.5375575 C85.0641695,21.6954943 84.5435556,21.80605 84.1018226,21.80605 C83.2499089,21.80605 82.8712806,21.4743829 82.729295,20.842636 C82.1771287,21.4427955 81.2778865,21.8376373 80.1420017,21.8376373 C78.0910984,21.8376373 77.7282463,20.4477942 77.7282463,19.6423169 C77.7282463,17.5259649 79.5267307,16.8310433 81.7196196,16.8310433 C82.0982478,16.8310433 82.3348905,16.846837 82.555757,16.8626307 L82.555757,16.2466775 C82.555757,15.2516761 82.3348905,14.6831039 81.1359009,14.6831039 C80.1420017,14.6831039 79.8107019,15.0937394 79.6371639,15.9465977 L78.0437699,15.6623116 C78.2961887,14.1303254 79.2743118,13.3090545 81.2778865,13.3090545 C83.3603422,13.3090545 84.3384653,14.1145317 84.3384653,16.1519154 Z M82.5715332,19.7212853 L82.5715332,18.1103307 C82.4137714,18.0945371 82.2244573,18.0787434 81.8142766,18.0787434 C80.8992582,18.0787434 79.5740592,18.1892991 79.5740592,19.3896182 C79.5740592,19.9581903 79.8264781,20.4793815 80.788825,20.4793815 C81.5303054,20.4793815 82.2086811,20.1003334 82.5715332,19.7212853 Z M91.453522,13.3248481 C91.3430887,13.3248481 91.2168793,13.3090545 91.1222222,13.3090545 C89.9232326,13.3090545 89.1028713,13.7828646 88.456048,14.6988976 L88.3140623,13.4827849 L86.783773,13.4827849 L86.783773,21.6481132 L88.5980336,21.6481132 L88.5980336,15.978185 C89.2764093,15.3780255 90.4280703,15.014771 91.453522,15.1411204 L91.453522,13.3248481 Z M97.3380367,19.973984 C97.0067369,20.1635081 96.4387945,20.3530321 95.949733,20.3530321 C95.0662669,20.3530321 94.8611766,19.926603 94.8611766,19.1211257 L94.8611766,14.825247 L97.0698417,14.825247 L97.0698417,13.4827849 L94.8611766,13.4827849 L94.8611766,10.8452417 L93.046916,11.0979404 L93.046916,13.4827849 L91.8005979,13.4827849 L91.8005979,14.825247 L93.046916,14.825247 L93.046916,19.3738245 C93.046916,21.1111284 93.8672773,21.8376373 95.4764476,21.8376373 C96.3441374,21.8376373 97.2276034,21.5375575 97.6377841,21.2690651 L97.3380367,19.973984 Z" id="Add-To-Cart" fill="#FFFFFF"></path>
                        </g>
                        <g id="Group-6" transform="translate(197.913257, 90.597794) rotate(-360.000000) translate(-197.913257, -90.597794) translate(155.413257, 83.597794)">
                            <polygon id="Triangle-Copy" fill="#ECECEC" transform="translate(3.895431, 8.646245) rotate(-270.000000) translate(-3.895431, -8.646245) " points="7.51268393 8.64624458 0.278178929 12.267508 0.278178929 5.02498119"></polygon>
                            <path d="M19.2281968,2.35520916 C20.9008931,2.35520916 21.3646109,3.30025284 21.5302244,4.44425309 L23.3188503,4.22871681 C23.0869913,1.5593829 21.3480496,0.780136352 19.2447581,0.780136352 C16.876485,0.780136352 15.0712979,2.0401946 15.0712979,4.2121371 C15.0712979,8.75497867 21.4805404,6.79857245 21.4805404,9.83266006 C21.4805404,11.2585154 20.2715618,11.6564286 19.0791446,11.6564286 C17.1414666,11.6564286 16.6280648,10.5953269 16.3630832,9.36842808 L14.5744574,9.6337035 C14.839439,12.3527766 16.6777488,13.198342 19.0460219,13.198342 C21.3314882,13.198342 23.4182184,12.1703997 23.4182184,9.56738464 C23.4182184,5.22349964 17.0089758,6.88147101 17.0089758,3.98002111 C17.0089758,3.01839771 17.6548685,2.35520916 19.2281968,2.35520916 Z M28.8337799,13.198342 C25.7533687,13.198342 24.7928104,11.0761386 24.7928104,8.72181924 C24.7928104,5.62141277 26.6476816,4.24529653 28.8834639,4.24529653 C31.3676664,4.24529653 32.3944701,5.82036933 32.3944701,8.04205098 C32.3944701,8.39022497 32.3779088,8.7881381 32.3447861,9.18605123 L26.7967338,9.18605123 C26.8464178,10.99324 27.707608,11.6398489 28.9497093,11.6398489 C30.0427584,11.6398489 30.5064762,11.1258777 30.7052124,10.2471529 L32.3282247,10.645066 C31.9969977,12.269878 30.6886511,13.198342 28.8337799,13.198342 Z M26.8298565,7.85967413 L30.4236695,7.85967413 C30.4236695,6.40065932 29.9102676,5.75405048 28.7675345,5.75405048 C27.8069761,5.75405048 26.9126632,6.33434046 26.8298565,7.85967413 Z M37.8928384,13.198342 C34.8124273,13.198342 33.851869,11.0761386 33.851869,8.72181924 C33.851869,5.62141277 35.7067402,4.24529653 37.9425225,4.24529653 C40.426725,4.24529653 41.4535287,5.82036933 41.4535287,8.04205098 C41.4535287,8.39022497 41.4369673,8.7881381 41.4038446,9.18605123 L35.8557923,9.18605123 C35.9054764,10.99324 36.7666666,11.6398489 38.0087679,11.6398489 C39.101817,11.6398489 39.5655348,11.1258777 39.764271,10.2471529 L41.3872833,10.645066 C41.0560563,12.269878 39.7477096,13.198342 37.8928384,13.198342 Z M35.888915,7.85967413 L39.482728,7.85967413 C39.482728,6.40065932 38.9693262,5.75405048 37.826593,5.75405048 C36.8660347,5.75405048 35.9717218,6.33434046 35.888915,7.85967413 Z M59.0085599,0.995672631 L56.1268849,0.995672631 L53.0133511,10.645066 L52.9636671,10.645066 L49.8335719,0.995672631 L46.9187743,0.995672631 L46.9187743,12.9993854 L48.7074001,12.9993854 L48.7074001,2.98523828 L48.7405228,2.98523828 L51.9699861,12.9993854 L53.85798,12.9993854 L57.1536887,3.01839771 L57.2033727,3.01839771 L57.2033727,12.9993854 L59.0085599,12.9993854 L59.0085599,0.995672631 Z M65.2025048,13.198342 C62.1883391,13.198342 61.1615354,11.3082546 61.1615354,8.75497867 C61.1615354,6.00274619 62.5858115,4.24529653 65.4178024,4.24529653 C68.2497933,4.24529653 69.3759651,6.0193259 69.3759651,8.5560221 C69.3759651,11.3745734 68.1504252,13.198342 65.2025048,13.198342 Z M65.3018729,11.7227474 C66.6102196,11.7227474 67.3886031,10.8606023 67.3886031,8.65550039 C67.3886031,6.51671731 66.6930264,5.78720991 65.351557,5.78720991 C63.9935263,5.78720991 63.1488974,6.59961588 63.1488974,8.68865981 C63.1488974,10.7777037 63.8113514,11.7227474 65.3018729,11.7227474 Z M76.1661187,4.26187624 C76.0501892,4.26187624 75.9176984,4.24529653 75.8183303,4.24529653 C74.5596677,4.24529653 73.6984775,4.74268794 73.0194621,5.70431134 L72.87041,4.42767338 L71.263959,4.42767338 L71.263959,12.9993854 L73.1685143,12.9993854 L73.1685143,7.04726815 C73.8806523,6.41723903 75.0896309,6.03590561 76.1661187,6.16854332 L76.1661187,4.26187624 Z M80.8032967,13.198342 C77.7228856,13.198342 76.7623273,11.0761386 76.7623273,8.72181924 C76.7623273,5.62141277 78.6171985,4.24529653 80.8529808,4.24529653 C83.3371833,4.24529653 84.363987,5.82036933 84.363987,8.04205098 C84.363987,8.39022497 84.3474256,8.7881381 84.3143029,9.18605123 L78.7662506,9.18605123 C78.8159347,10.99324 79.6771249,11.6398489 80.9192262,11.6398489 C82.0122753,11.6398489 82.4759931,11.1258777 82.6747293,10.2471529 L84.2977416,10.645066 C83.9665146,12.269878 82.6581679,13.198342 80.8032967,13.198342 Z M78.7993733,7.85967413 L82.3931863,7.85967413 C82.3931863,6.40065932 81.8797845,5.75405048 80.7370513,5.75405048 C79.776493,5.75405048 78.8821801,6.33434046 78.7993733,7.85967413 Z" id="See-More-Copy" fill="#6D6E71"></path>
                        </g>
                        <rect id="Rectangle-9" fill="#ECECEC" transform="translate(68.538625, 66.250669) rotate(-360.000000) translate(-68.538625, -66.250669) " x="39.4074684" y="56.5295163" width="58.2623124" height="19.442305"></rect>
                        <polyline id="Rectangle-9" fill="#ECECEC" points="149.840721 58.2039326 174.508231 58.2039326 174.508231 69.2031047 149.840721 69.2031047"></polyline>
                        <polyline id="Rectangle-9" fill="#ECECEC" points="183.708633 58.2039326 208.376143 58.2039326 208.376143 69.2031047 183.708633 69.2031047"></polyline>
                        <polyline id="Rectangle-9" fill="#ECECEC" points="217.576544 58.2039326 242.244055 58.2039326 242.244055 69.2031047 217.576544 69.2031047"></polyline>
                        <rect id="Rectangle-12" fill="#ECECEC" transform="translate(86.607316, 132.306423) rotate(-360.000000) translate(-86.607316, -132.306423) " x="39.4074684" y="90.0281532" width="94.399696" height="84.5565402"></rect>
                        <g id="Cowboy-Hat" transform="translate(86.725984, 142.180973) rotate(-360.000000) translate(-86.725984, -142.180973) translate(55.968819, 110.858819)">
                            <path d="M51.3477586,27.0366102 C51.4354138,27.410339 51.2504828,27.7947458 50.903069,27.9591864 L45.9655172,30.308339 C36.2603793,35.395322 26.0955862,35.4027966 16.0344828,30.308339 L11.096931,27.9591864 C10.7495172,27.7947458 10.5645862,27.410339 10.6522414,27.0366102 L16.0344828,4.0309322 C16.2397241,2.80083051 17.0403793,1.83554237 18.0772759,1.35610169 C19.1430345,0.863847458 20.4012069,1.03149153 21.4060345,1.638 L24.6321724,3.58672881 C28.5477931,5.95083051 33.4522069,5.95083051 37.3667586,3.58672881 L40.5939655,1.638 C41.5987931,1.03149153 42.8569655,0.863847458 43.9227241,1.35610169 C44.9596207,1.83554237 45.7602759,2.80083051 45.9655172,4.0309322 L51.3477586,27.0366102 L51.3477586,27.0366102 Z" id="Fill-322" fill="#A7CD96" fill-rule="evenodd"></path>
                            <path d="M51.3477586,27.0366102 C51.4354138,27.410339 51.2504828,27.7947458 50.903069,27.9591864 L45.9655172,30.308339 C36.2603793,35.395322 26.0955862,35.4027966 16.0344828,30.308339 L11.096931,27.9591864 C10.7495172,27.7947458 10.5645862,27.410339 10.6522414,27.0366102 L16.0344828,4.0309322 C16.2397241,2.80083051 17.0403793,1.83554237 18.0772759,1.35610169 C19.1430345,0.863847458 20.4012069,1.03149153 21.4060345,1.638 L24.6321724,3.58672881 C28.5477931,5.95083051 33.4522069,5.95083051 37.3667586,3.58672881 L40.5939655,1.638 C41.5987931,1.03149153 42.8569655,0.863847458 43.9227241,1.35610169 C44.9596207,1.83554237 45.7602759,2.80083051 45.9655172,4.0309322 L51.3477586,27.0366102 L51.3477586,27.0366102 Z" id="Stroke-323" stroke="#6D6E71" stroke-width="2" stroke-linecap="round"></path>
                            <path d="M43.9227241,1.35610169 C42.8569655,0.862779661 41.5987931,1.03149153 40.5939655,1.638 L37.3667586,3.58672881 C33.4522069,5.95083051 28.5477931,5.95083051 24.6321724,3.58672881 L21.4060345,1.638 C20.4012069,1.03149153 19.1430345,0.862779661 18.0772759,1.35610169 C17.0403793,1.83554237 16.2397241,2.80083051 16.0344828,4.0309322 L12.0761034,20.9501695 L16.0344828,22.8337627 C26.0955862,27.9271525 36.2603793,27.9207458 45.9655172,22.8337627 L49.9238966,20.9501695 L45.9655172,4.0309322 C45.7602759,2.80083051 44.9596207,1.83554237 43.9227241,1.35610169 L43.9227241,1.35610169 Z" id="Fill-324" fill="#FFFFFF" fill-rule="evenodd"></path>
                            <path d="M43.9227241,1.35610169 C42.8569655,0.862779661 41.5987931,1.03149153 40.5939655,1.638 L37.3667586,3.58672881 C33.4522069,5.95083051 28.5477931,5.95083051 24.6321724,3.58672881 L21.4060345,1.638 C20.4012069,1.03149153 19.1430345,0.862779661 18.0772759,1.35610169 C17.0403793,1.83554237 16.2397241,2.80083051 16.0344828,4.0309322 L12.0761034,20.9501695 L16.0344828,22.8337627 C26.0955862,27.9271525 36.2603793,27.9207458 45.9655172,22.8337627 L49.9238966,20.9501695 L45.9655172,4.0309322 C45.7602759,2.80083051 44.9596207,1.83554237 43.9227241,1.35610169 L43.9227241,1.35610169 Z" id="Stroke-325" stroke="#6D6E71" stroke-width="2" stroke-linecap="round"></path>
                            <path d="M50.7918966,24.6564915 L51.3477586,27.0355424 C51.4354138,27.410339 51.2504828,27.7947458 50.903069,27.9591864 L45.9655172,30.308339 C36.2603793,35.395322 26.0955862,35.4027966 16.0344828,30.308339 L11.096931,27.9591864 C10.7495172,27.7947458 10.5645862,27.410339 10.6522414,27.0355424 L11.2091724,24.6564915 C4.36137931,22.3842203 0,21.0323898 0,26.6511356 C0,36.676678 13.8794483,44.803678 31,44.803678 C48.1205517,44.803678 62,36.676678 62,26.6511356 C62,21.0323898 57.6386207,22.3842203 50.7918966,24.6564915 L50.7918966,24.6564915 Z" id="Fill-326" fill="#FFFFFF" fill-rule="evenodd"></path>
                            <path d="M50.7918966,24.6564915 L51.3477586,27.0355424 C51.4354138,27.410339 51.2504828,27.7947458 50.903069,27.9591864 L45.9655172,30.308339 C36.2603793,35.395322 26.0955862,35.4027966 16.0344828,30.308339 L11.096931,27.9591864 C10.7495172,27.7947458 10.5645862,27.410339 10.6522414,27.0355424 L11.2091724,24.6564915 C4.36137931,22.3842203 0,21.0323898 0,26.6511356 C0,36.676678 13.8794483,44.803678 31,44.803678 C48.1205517,44.803678 62,36.676678 62,26.6511356 C62,21.0323898 57.6386207,22.3842203 50.7918966,24.6564915 L50.7918966,24.6564915 Z" id="Stroke-327" stroke="#6D6E71" stroke-width="2" stroke-linecap="round"></path>
                        </g>
                        <g id="Group-42" transform="translate(149.840721, 128.722571)" fill="#ECECEC">
                            <rect id="Rectangle-13" transform="translate(46.150030, 2.915609) rotate(-360.000000) translate(-46.150030, -2.915609) " x="0.286711867" y="0.428651676" width="91.726636" height="4.97391413"></rect>
                            <rect id="Rectangle-13" transform="translate(46.150030, 19.495322) rotate(-360.000000) translate(-46.150030, -19.495322) " x="0.286711867" y="17.0083654" width="91.726636" height="4.97391413"></rect>
                            <rect id="Rectangle-13" transform="translate(46.150030, 36.075036) rotate(-360.000000) translate(-46.150030, -36.075036) " x="0.286711867" y="33.5880792" width="91.726636" height="4.97391413"></rect>
                            <rect id="Rectangle-13" transform="translate(46.150030, 52.654750) rotate(-360.000000) translate(-46.150030, -52.654750) " x="0.286711867" y="50.167793" width="91.726636" height="4.97391413"></rect>
                            <rect id="Rectangle-13" transform="translate(29.472460, 69.234464) rotate(-360.000000) translate(-29.472460, -69.234464) " x="0.286711867" y="66.7475067" width="58.3714956" height="4.97391413"></rect>
                        </g>
                        <g id="Group-42" transform="translate(39.407468, 225.740841)" fill="#ECECEC">
                            <rect id="Rectangle-13" transform="translate(102.430554, 2.915609) rotate(-360.000000) translate(-102.430554, -2.915609) " x="0.636360485" y="0.428651676" width="203.588387" height="4.97391413"></rect>
                            <rect id="Rectangle-13" transform="translate(102.430554, 19.495322) rotate(-360.000000) translate(-102.430554, -19.495322) " x="0.636360485" y="17.0083654" width="203.588387" height="4.97391413"></rect>
                            <rect id="Rectangle-13" transform="translate(69.747295, 36.075036) rotate(-360.000000) translate(-69.747295, -36.075036) " x="0.636360485" y="33.5880792" width="138.221869" height="4.97391413"></rect>
                        </g>
                        <rect id="Rectangle-14" fill="#ECECEC" transform="translate(49.573589, 194.480350) rotate(-360.000000) translate(-49.573589, -194.480350) " x="39.4074684" y="184.532522" width="20.3322422" height="19.8956565"></rect>
                        <rect id="Rectangle-14" fill="#ECECEC" transform="translate(74.262741, 194.480350) rotate(-360.000000) translate(-74.262741, -194.480350) " x="64.0966197" y="184.532522" width="20.3322422" height="19.8956565"></rect>
                        <rect id="Rectangle-14" fill="#ECECEC" transform="translate(98.951892, 194.480350) rotate(-360.000000) translate(-98.951892, -194.480350) " x="88.7857709" y="184.532522" width="20.3322422" height="19.8956565"></rect>
                        <rect id="Rectangle-14" fill="#ECECEC" transform="translate(123.641043, 194.480350) rotate(-360.000000) translate(-123.641043, -194.480350) " x="113.474922" y="184.532522" width="20.3322422" height="19.8956565"></rect>
                    </g>
                    <g id="Group-18" transform="translate(77.467440, 54.260299)">
                        <g id="Group-10" transform="translate(100.936771, 110.957307) rotate(-15.000000) translate(-100.936771, -110.957307) translate(21.436771, 17.957307)">
                            <g id="Group-77" transform="translate(86.518206, 81.341215) rotate(-360.000000) translate(-86.518206, -81.341215) translate(70.018206, 32.841215)" fill="#A7CD96">
                                <g id="Group-76" transform="translate(0.400824, 0.621583)">
                                    <g id="Group-6" transform="translate(13.612040, 0.297184)">
                                        <polygon id="Triangle-Copy" transform="translate(9.094111, 8.693967) rotate(-326.000000) translate(-9.094111, -8.693967) " points="15.2748913 8.69396653 2.91333096 14.8659932 2.91333096 2.52193985"></polygon>
                                    </g>
                                    <polygon id="Triangle-Copy" transform="translate(8.692245, 86.504476) rotate(-217.000000) translate(-8.692245, -86.504476) " points="14.8692792 86.5044759 2.51521115 92.6727617 2.51521115 80.3361901"></polygon>
                                </g>
                            </g>
                            <path d="M140.217333,73.6759585 L19.8196256,165.181678" id="Line" stroke="#A7CD96" stroke-width="2" stroke-linecap="square"></path>
                            <ellipse id="Oval-2" stroke="#ECECEC" fill="#A7CD96" cx="49.8480311" cy="17.1246056" rx="16.5926989" ry="16.5691996"></ellipse>
                            <ellipse id="Oval-2" stroke="#ECECEC" fill="#A7CD96" cx="141.660369" cy="68.9579759" rx="16.5926989" ry="16.5691996"></ellipse>
                            <path d="M42.3201152,12.3810399 L137.232834,68.1233461" id="Line" stroke="#A7CD96" stroke-width="2" stroke-linecap="square"></path>
                            <ellipse id="Oval-2" stroke="#ECECEC" fill="#A7CD96" cx="16.8495485" cy="169.34217" rx="16.5926989" ry="16.5691996"></ellipse>
                            <path d="M51.6730613,23.9870554 L51.6730613,8.57330001 L50.1380276,8.57330001 C49.1359918,9.68036531 47.7501975,10.1913185 45.7887657,10.3616363 L45.938005,12.34158 C46.6415621,12.34158 48.5177144,12.0648137 49.2425913,11.660309 L49.2425913,23.9870554 L51.6730613,23.9870554 Z M58.3248737,22.6458032 C58.3248737,21.5813173 57.7492361,21.0277847 56.6619206,21.0277847 C55.5532852,21.0277847 54.9989675,21.5813173 54.9989675,22.6458032 C54.9989675,23.7102891 55.5532852,24.242532 56.6619206,24.242532 C57.770556,24.242532 58.3248737,23.6889993 58.3248737,22.6458032 Z" id="1." fill="#6D6E71" transform="translate(52.056820, 16.407916) rotate(-345.000000) translate(-52.056820, -16.407916) "></path>
                            <path d="M140.799208,62.9814656 C138.645476,62.9814656 136.911539,64.0021283 136.583003,66.4808806 L138.444704,66.8089507 C138.645476,65.5513485 139.083523,64.6947209 140.598437,64.6947209 C141.766563,64.6947209 142.441885,65.2050522 142.441885,66.38975 C142.441885,67.9389701 141.529287,69.0325373 139.758846,71.1285411 L136.783775,74.6644082 L136.783775,76.4141157 L144.741634,76.4141157 L144.741634,74.627956 L139.174783,74.627956 L139.174783,74.5915038 L141.693555,71.7117769 C143.555256,69.597547 144.559114,68.2670403 144.559114,66.3168455 C144.559114,64.111485 143.153712,62.9814656 140.799208,62.9814656 Z M149.195114,75.2658702 C149.195114,74.3545642 148.702311,73.8806851 147.77146,73.8806851 C146.822358,73.8806851 146.347807,74.3545642 146.347807,75.2658702 C146.347807,76.1771762 146.822358,76.6328291 147.77146,76.6328291 C148.720563,76.6328291 149.195114,76.15895 149.195114,75.2658702 Z" id="2." fill="#6D6E71" transform="translate(142.889059, 69.807147) rotate(-345.000000) translate(-142.889059, -69.807147) "></path>
                            <path d="M11.6079149,173.791 C11.8816944,176.105718 13.5243716,177.017023 15.6416,177.017023 C18.2881355,177.017023 20.0585765,175.467803 20.0585765,173.080182 C20.0585765,171.093535 19.0182142,170.091098 17.2842772,169.744802 L17.2842772,169.690123 C18.4524032,169.343827 19.8030489,168.396069 19.8030489,166.518779 C19.8030489,164.58681 18.5071591,163.36566 16.0978992,163.36566 C14.0901827,163.36566 12.3744976,164.131157 11.9364504,166.445874 L13.7616472,166.828623 C14.0354268,165.680377 14.491726,165.060689 15.8788756,165.060689 C17.2842772,165.060689 17.7223245,165.789734 17.7223245,166.79217 C17.7223245,168.177356 16.7367181,169.070435 15.0027811,169.070435 L14.1631905,169.070435 L14.1631905,170.729012 L15.3860725,170.729012 C16.9374898,170.729012 17.9048442,171.312248 17.9048442,172.989051 C17.9048442,174.647628 16.8827339,175.303768 15.659852,175.303768 C14.1266866,175.303768 13.6886394,174.574723 13.5061197,173.426478 L11.6079149,173.791 Z M24.6580726,175.650065 C24.6580726,174.738759 24.1652694,174.264879 23.234419,174.264879 C22.2853167,174.264879 21.8107655,174.738759 21.8107655,175.650065 C21.8107655,176.56137 22.2853167,177.017023 23.234419,177.017023 C24.1835214,177.017023 24.6580726,176.543144 24.6580726,175.650065 Z" id="3." fill="#6D6E71" transform="translate(18.132994, 170.191342) rotate(-345.000000) translate(-18.132994, -170.191342) "></path>
                        </g>
                    </g>
                </g>
                <g id="Group-48" transform="translate(538.002739, 240.447736) rotate(-354.000000) translate(-538.002739, -240.447736) translate(293.002739, 50.947736)">
                    <g id="Group-62" transform="translate(251.871285, 194.783960) rotate(-270.000000) translate(-251.871285, -194.783960) translate(87.371285, -43.216040)">
                        <g id="Group-7" transform="translate(248.217119, 180.164312)">
                            <g id="Group-110" transform="translate(-0.000000, -0.000000)"></g>
                        </g>
                        <g id="Group-8" transform="translate(255.770679, 238.038403)"></g>
                        <g id="Group-121" transform="translate(164.384534, 238.139989) rotate(-360.000000) translate(-164.384534, -238.139989) translate(0.384534, 0.639989)">
                            <path d="M245.79036,57.6264723 L245.79036,98.5309485 C245.79036,103.046803 242.131191,106.711844 237.612485,106.711844 L90.3779964,106.826376 C85.7856163,106.826376 82.0691447,103.11225 82.0691447,98.5309485 L82.0691447,57.6264723 L32.9527801,57.6264723 C14.8697719,57.6264723 0.208537081,72.2784557 0.208537081,90.3500533 L0.208537081,442.128549 C0.208537081,460.200146 14.8697719,474.85213 32.9527801,474.85213 L294.906725,474.85213 C312.989733,474.85213 327.650968,460.200146 327.650968,442.128549 L327.650968,90.3500533 C327.650968,72.2784557 312.989733,57.6264723 294.906725,57.6264723 L245.79036,57.6264723 Z" id="Fill-138" fill="#FFFFFF"></path>
                            <path d="M245.79036,57.6264723 L245.79036,98.5309485 C245.79036,103.046803 242.131191,106.711844 237.612485,106.711844 L90.3779964,106.826376 C85.7856163,106.826376 82.0691447,103.11225 82.0691447,98.5309485 L82.0691447,57.6264723 L32.9527801,57.6264723 C14.8697719,57.6264723 0.208537081,72.2784557 0.208537081,90.3500533 L0.208537081,442.128549 C0.208537081,460.200146 14.8697719,474.85213 32.9527801,474.85213 L294.906725,474.85213 C312.989733,474.85213 327.650968,460.200146 327.650968,442.128549 L327.650968,90.3500533 C327.650968,72.2784557 312.989733,57.6264723 294.906725,57.6264723 L245.79036,57.6264723 L245.79036,57.6264723 Z" id="Stroke-139" stroke="#6D6E71" stroke-width="2" stroke-linecap="round" stroke-linejoin="round"></path>
                            <path d="M204.860056,33.0837866 L204.860056,16.6074636 C204.860056,7.56757434 197.525346,0.360205636 188.487935,0.360205636 L139.37157,0.360205636 C130.334159,0.360205636 122.999449,7.56757434 122.999449,16.6074636 L122.999449,33.0837866 L90.2552055,33.0837866 C85.7364999,33.0837866 82.0691447,36.6342951 82.0691447,41.1501493 L82.0691447,98.5309485 C82.0691447,103.11225 85.6710114,106.826376 90.2552055,106.826376 L237.489694,106.711844 C242.073888,106.711844 245.79036,103.11225 245.79036,98.5309485 L245.79036,41.1501493 C245.79036,36.6342951 242.123005,33.0837866 237.604299,33.0837866 L204.860056,33.0837866 Z" id="Fill-136" fill="#E5E6E7"></path>
                            <path d="M204.860056,33.0837866 L204.860056,16.6074636 C204.860056,7.56757434 197.525346,0.360205636 188.487935,0.360205636 L139.37157,0.360205636 C130.334159,0.360205636 122.999449,7.56757434 122.999449,16.6074636 L122.999449,33.0837866 L90.2552055,33.0837866 C85.7364999,33.0837866 82.0691447,36.6342951 82.0691447,41.1501493 L82.0691447,98.5309485 C82.0691447,103.11225 85.6710114,106.826376 90.2552055,106.826376 L237.489694,106.711844 C242.073888,106.711844 245.79036,103.11225 245.79036,98.5309485 L245.79036,41.1501493 C245.79036,36.6342951 242.123005,33.0837866 237.604299,33.0837866 L204.860056,33.0837866 L204.860056,33.0837866 Z" id="Stroke-137" stroke="#6D6E71" stroke-width="2" stroke-linecap="round" stroke-linejoin="round"></path>
                        </g>
                    </g>
                    <g id="Group-39" transform="translate(-0.000000, 0.000000)">
                        <g id="Group-36" transform="translate(211.636959, 189.755912) rotate(12.000000) translate(-211.636959, -189.755912) translate(28.636959, 35.255912)">
                            <g id="Group-71" transform="translate(182.950528, 180.957120) rotate(-12.000000) translate(-182.950528, -180.957120) translate(16.450528, 85.957120)">
                                <path d="M281.384164,7.15494925 L281.384164,171.342832" id="Line" stroke="#ECECEC" stroke-width="2" stroke-linecap="square" stroke-dasharray="2"></path>
                                <path d="M180.618678,7.15494925 L180.618678,171.342832" id="Line" stroke="#ECECEC" stroke-width="2" stroke-linecap="square" stroke-dasharray="2"></path>
                                <path d="M75.4720845,7.15494925 L75.4720845,171.342832" id="Line" stroke="#ECECEC" stroke-width="2" stroke-linecap="square" stroke-dasharray="2"></path>
                                <path d="M14.6897517,126.150702 C14.6897517,126.150702 32.8900385,113.302703 64.3943192,113.302703 C95.8986,113.302703 102.470262,66.3839552 176.949099,62.0056117 C251.427937,57.6272682 260.190153,10.7993539 279.905139,6.84866392 C299.620126,2.89797392 330.287882,2.89797392 330.287882,2.89797392" id="Path-3" stroke="#6D6E71"></path>
                                <g id="Group-22" transform="translate(-0.000000, 0.379362)">
                                    <g id="Group-19" transform="translate(-0.000000, 0.000000)">
                                        <path d="M1.79959117,173.550966 L331.766907,173.550966" id="Stroke-942" stroke="#6D6E71" stroke-width="2" stroke-linecap="round"></path>
                                        <polygon id="Triangle-Copy-6" fill="#6D6E71" points="179.692333 169.054827 187.250616 174.450193 172.13405 174.450193"></polygon>
                                        <polygon id="Triangle-Copy-6" fill="#6D6E71" points="73.8938173 169.504746 81.4521002 174.900113 66.3355344 174.900113"></polygon>
                                        <polygon id="Triangle-Copy-7" fill="#6D6E71" points="281.090331 169.054827 288.648614 174.450193 273.532048 174.450193"></polygon>
                                        <path d="M16.7961843,160.062549 L16.7961843,1.14184218e-11" id="Stroke-942" stroke="#6D6E71" stroke-width="2" stroke-linecap="round"></path>
                                        <g id="215---Sad-(Webby)" transform="translate(-0.000000, 154.667182)">
                                            <g id="Page-1">
                                                <g>
                                                    <g id="Icons">
                                                        <g id="Sad">
                                                            <path d="M33.5923685,16.828406 C33.5923685,26.1224942 26.0724769,33.656812 16.7961843,33.656812 C7.51989163,33.656812 6.21724894e-14,26.1224942 6.21724894e-14,16.828406 C6.21724894e-14,7.53431777 7.51989163,8.95283847e-13 16.7961843,8.95283847e-13 C26.0724769,8.95283847e-13 33.5923685,7.53431777 33.5923685,16.828406 L33.5923685,16.828406 Z" id="Fill-129" fill="#FFFFFF"></path>
                                                            <path d="M33.5923685,16.828406 C33.5923685,26.1224942 26.0724769,33.656812 16.7961843,33.656812 C7.51989163,33.656812 2.27373675e-13,26.1224942 2.27373675e-13,16.828406 C2.27373675e-13,7.53431777 7.51989163,-4.26325641e-14 16.7961843,-4.26325641e-14 C26.0724769,-4.26325641e-14 33.5923685,7.53431777 33.5923685,16.828406 L33.5923685,16.828406 Z" id="Stroke-130" stroke="#6D6E71" stroke-width="2" stroke-linecap="round" stroke-linejoin="round"></path>
                                                            <path d="M10.3486503,25.6923669 C10.3486503,22.1247387 13.2353871,19.232464 16.7961843,19.232464 C20.3569814,19.232464 23.2437182,22.1247387 23.2437182,25.6923669" id="Path" stroke="#6D6E71" stroke-width="2" stroke-linecap="round" stroke-linejoin="round"></path>
                                                            <path d="M6.39854638,12.8216427 C6.39854638,11.0514546 7.83102095,9.61623199 9.59781957,9.61623199 C11.3646182,9.61623199 12.7970928,11.0514546 12.7970928,12.8216427" id="Path" stroke="#6D6E71" stroke-width="2" stroke-linecap="round" stroke-linejoin="round"></path>
                                                            <path d="M20.7952757,12.8216427 C20.7952757,11.0514546 22.2277503,9.61623199 23.9945489,9.61623199 C25.7613475,9.61623199 27.1938221,11.0514546 27.1938221,12.8216427" id="Path" stroke="#6D6E71" stroke-width="2" stroke-linecap="round" stroke-linejoin="round"></path>
                                                        </g>
                                                    </g>
                                                </g>
                                            </g>
                                        </g>
                                        <g id="217---Happy-(Webby)" transform="translate(-0.000000, 16.186100)">
                                            <g id="Page-1">
                                                <g>
                                                    <g id="Icons">
                                                        <g id="Happy">
                                                            <path d="M33.5923685,16.828406 C33.5923685,26.1224942 26.0724769,33.656812 16.7961843,33.656812 C7.51989163,33.656812 -5.86197757e-14,26.1224942 -5.86197757e-14,16.828406 C-5.86197757e-14,7.53431777 7.51989163,-9.09494702e-13 16.7961843,-9.09494702e-13 C26.0724769,-9.09494702e-13 33.5923685,7.53431777 33.5923685,16.828406 L33.5923685,16.828406 Z" id="Fill-125" fill="#FFFFFF"></path>
                                                            <path d="M33.5923685,16.828406 C33.5923685,26.1224942 26.0724769,33.656812 16.7961843,33.656812 C7.51989163,33.656812 0,26.1224942 0,16.828406 C0,7.53431777 7.51989163,0 16.7961843,0 C26.0724769,0 33.5923685,7.53431777 33.5923685,16.828406 L33.5923685,16.828406 Z" id="Stroke-126" stroke="#6D6E71" stroke-width="2" fill="#A7CD96" stroke-linecap="round" stroke-linejoin="round"></path>
                                                            <path d="M13.5969111,10.818261 C13.5969111,12.3672757 12.3435958,13.6229953 10.797547,13.6229953 C9.25149825,13.6229953 7.99818298,12.3672757 7.99818298,10.818261 C7.99818298,9.26924629 9.25149825,8.01352666 10.797547,8.01352666 C12.3435958,8.01352666 13.5969111,9.26924629 13.5969111,10.818261" id="Fill-141" fill="#6D6E71"></path>
                                                            <path d="M23.5946398,13.6229953 C22.048591,13.6229953 20.7952757,12.3672757 20.7952757,10.818261 C20.7952757,9.26924629 22.048591,8.01352666 23.5946398,8.01352666 C25.1406886,8.01352666 26.3940038,9.26924629 26.3940038,10.818261 C26.3940038,12.3672757 25.1406886,13.6229953 23.5946398,13.6229953 Z" id="Fill-142" fill="#6D6E71"></path>
                                                            <path d="M25.5941855,19.232464 C25.5941855,24.1006814 21.6550804,28.0473433 16.7961843,28.0473433 C11.9372881,28.0473433 7.99818298,24.1006814 7.99818298,19.232464 L25.5941855,19.232464 L25.5941855,19.232464 Z" id="Fill-154" fill-opacity="0.5" fill="#457CA8"></path>
                                                            <path d="M25.5941855,19.232464 C25.5941855,24.1006814 21.6550804,28.0473433 16.7961843,28.0473433 C11.9372881,28.0473433 7.99818298,24.1006814 7.99818298,19.232464 L25.5941855,19.232464 L25.5941855,19.232464 Z" id="Stroke-155" stroke="#6D6E71" stroke-width="2" fill="#E5E6E7" stroke-linecap="round" stroke-linejoin="round"></path>
                                                        </g>
                                                    </g>
                                                </g>
                                            </g>
                                        </g>
                                        <g id="213---Impassive-(Webby)" transform="translate(-0.000000, 107.907336)">
                                            <g id="Page-1">
                                                <g>
                                                    <g id="Icons">
                                                        <g id="Impassive">
                                                            <path d="M33.5923685,16.828406 C33.5923685,26.1224942 26.0724769,33.656812 16.7961843,33.656812 C7.51989163,33.656812 0,26.1224942 0,16.828406 C0,7.53431777 7.51989163,0 16.7961843,0 C26.0724769,0 33.5923685,7.53431777 33.5923685,16.828406 L33.5923685,16.828406 Z" id="Fill-127" fill="#FFFFFF"></path>
                                                            <path d="M33.5923685,16.828406 C33.5923685,26.1224942 26.0724769,33.656812 16.7961843,33.656812 C7.51989163,33.656812 0,26.1224942 0,16.828406 C0,7.53431777 7.51989163,0 16.7961843,0 C26.0724769,0 33.5923685,7.53431777 33.5923685,16.828406 L33.5923685,16.828406 Z" id="Stroke-128" stroke="#6D6E71" stroke-width="2" stroke-linecap="round" stroke-linejoin="round"></path>
                                                            <path d="M12.7970928,10.818261 C12.7970928,12.3672757 11.5437775,13.6229953 9.99772872,13.6229953 C8.45167995,13.6229953 7.19836468,12.3672757 7.19836468,10.818261 C7.19836468,9.26924629 8.45167995,8.01352666 9.99772872,8.01352666 C11.5437775,8.01352666 12.7970928,9.26924629 12.7970928,10.818261" id="Fill-143" fill="#6D6E71"></path>
                                                            <path d="M25.5941855,10.818261 C25.5941855,12.3672757 24.3408703,13.6229953 22.7948215,13.6229953 C21.2487727,13.6229953 19.9954574,12.3672757 19.9954574,10.818261 C19.9954574,9.26924629 21.2487727,8.01352666 22.7948215,8.01352666 C24.3408703,8.01352666 25.5941855,9.26924629 25.5941855,10.818261" id="Fill-144" fill="#6D6E71"></path>
                                                            <path d="M6.97037921,23.0014455 L27.1576259,23.0014455" id="Path" stroke="#6D6E71" stroke-width="2" stroke-linecap="round"></path>
                                                        </g>
                                                    </g>
                                                </g>
                                            </g>
                                        </g>
                                        <g id="216---Smile-(Webby)-Copy" transform="translate(-0.000000, 62.945946)">
                                            <g id="216---Smile-(Webby)">
                                                <g id="Page-1">
                                                    <g id="Icons">
                                                        <g id="Smile">
                                                            <path d="M33.5923685,16.828406 C33.5923685,26.1224942 26.0724769,33.656812 16.7961843,33.656812 C7.51989163,33.656812 0,26.1224942 0,16.828406 C0,7.53431777 7.51989163,0 16.7961843,0 C26.0724769,0 33.5923685,7.53431777 33.5923685,16.828406 L33.5923685,16.828406 Z" id="Fill-117" fill="#FFFFFF"></path>
                                                            <path d="M33.5923685,16.828406 C33.5923685,26.1224942 26.0724769,33.656812 16.7961843,33.656812 C7.51989163,33.656812 0,26.1224942 0,16.828406 C0,7.53431777 7.51989163,0 16.7961843,0 C26.0724769,0 33.5923685,7.53431777 33.5923685,16.828406 L33.5923685,16.828406 Z" id="Stroke-118" stroke="#6D6E71" stroke-width="2" stroke-linecap="round" stroke-linejoin="round"></path>
                                                            <path d="M25.5941855,19.232464 C25.5941855,24.1006814 21.6550804,28.0473433 16.7961843,28.0473433 C11.9372881,28.0473433 7.99818298,24.1006814 7.99818298,19.232464" id="Path" stroke="#6D6E71" stroke-width="2" stroke-linecap="round" stroke-linejoin="round"></path>
                                                            <path d="M6.39854638,15.2257007 C6.39854638,13.4555126 7.83102095,12.02029 9.59781957,12.02029 C11.3646182,12.02029 12.7970928,13.4555126 12.7970928,15.2257007" id="Path" stroke="#6D6E71" stroke-width="2" stroke-linecap="round" stroke-linejoin="round"></path>
                                                            <path d="M20.7952757,15.2257007 C20.7952757,13.4555126 22.2277503,12.02029 23.9945489,12.02029 C25.7613475,12.02029 27.1938221,13.4555126 27.1938221,15.2257007" id="Path" stroke="#6D6E71" stroke-width="2" stroke-linecap="round" stroke-linejoin="round"></path>
                                                        </g>
                                                    </g>
                                                </g>
                                            </g>
                                        </g>
                                        <ellipse id="Oval" fill="#A7CD96" cx="65.6850777" cy="112.403475" rx="2.69938675" ry="2.6976834"></ellipse>
                                    </g>
                                </g>
                            </g>
                            <path d="M15.1765692,56.9888562 C10.9575621,56.9888562 9.81409288,54.7821711 9.81409288,50.3293957 L9.81409288,33.0699655 L3.70244711,33.0699655 L3.70244711,51.1569026 C3.70244711,58.604465 7.05399479,62.0721131 14.9399893,62.0721131 C22.0768144,62.0721131 26.4535414,58.8803006 26.4535414,51.314523 L26.4535414,33.0699655 L20.3813256,33.0699655 L20.3813256,50.447611 C20.3813256,55.0974118 19.1984264,56.9888562 15.1765692,56.9888562 Z M40.0609308,40.6357431 C35.4870539,40.6357431 31.5046267,42.8030231 31.5046267,47.3346087 C31.5046267,52.3390554 35.329334,53.1665623 38.9174616,53.8364489 C41.3226899,54.2699049 42.7421689,54.5063354 42.7421689,56.043134 C42.7421689,57.3040969 41.7958496,57.9739835 39.784921,57.9739835 C36.9853929,57.9739835 36.1573635,56.4371849 35.6842038,54.8609812 L30.8343171,56.4371849 C31.5440567,59.8260228 34.3041547,62.0721131 39.5877711,62.0721131 C44.6348076,62.0721131 48.6172348,59.8260228 48.6172348,55.1368169 C48.6172348,50.2899906 44.9896774,49.5018888 41.4015498,48.8714073 C38.9568915,48.4379513 37.2219727,48.1227105 37.2219727,46.6253171 C37.2219727,45.4431643 38.1288621,44.8126828 39.8243509,44.8126828 C41.9929994,44.8126828 42.8604588,45.8766203 43.3730485,47.6104443 L48.2623651,46.0736458 C47.2766158,42.6454028 44.7136675,40.6357431 40.0609308,40.6357431 Z M61.9880444,62.0721131 C54.3780597,62.0721131 51.9334014,56.9494511 51.9334014,51.3933332 C51.9334014,43.9851759 56.4678482,40.6357431 61.9880444,40.6357431 C68.2179801,40.6357431 70.8203583,44.4186319 70.8203583,50.1323702 C70.8203583,50.8022568 70.7809283,52.1026248 70.7020684,52.8119165 L58.202767,52.8119165 C58.3210569,56.2007544 59.740536,57.4617173 62.3429142,57.4617173 C64.4721327,57.4617173 65.3001621,56.2795646 65.6944618,54.5457405 L70.7020684,55.7672984 C69.9528989,59.5895923 66.877361,62.0721131 61.9880444,62.0721131 Z M58.281627,49.0290277 L64.6692826,49.0290277 C64.6692826,46.0736458 63.6046733,44.9308981 61.6726046,44.9308981 C59.9771158,44.9308981 58.3210569,46.0342407 58.281627,49.0290277 Z M88.331315,40.6751482 C87.9764452,40.6751482 87.6215755,40.6357431 87.3061357,40.6357431 C84.1517379,40.6357431 82.2196692,42.2907569 80.8396202,44.3004166 L80.4058905,41.0691991 L75.319424,41.0691991 L75.319424,61.599252 L81.2733499,61.599252 L81.2733499,48.319736 C83.0082687,46.9405578 85.6500768,46.2312661 88.331315,46.4676967 L88.331315,40.6751482 Z M106.24062,49.8171295 L117.557022,49.8171295 L117.557022,44.8520879 L106.24062,44.8520879 L106.24062,38.1532223 L118.266762,38.1532223 L118.266762,33.0699655 L100.168404,33.0699655 L100.168404,61.599252 L118.976501,61.599252 L118.976501,56.47659 L106.24062,56.47659 L106.24062,49.8171295 Z M141.652785,41.0691991 L135.935438,41.0691991 L131.834721,47.3346087 L127.852294,41.0691991 L121.425209,41.0691991 L128.246594,51.314523 L121.543498,61.599252 L127.260844,61.599252 L131.322132,55.2550322 L135.501709,61.599252 L141.849934,61.599252 L134.949689,51.0386873 L141.652785,41.0691991 Z M145.323821,69.9531314 L145.323821,41.0691991 L150.370857,41.0691991 L150.725727,43.157669 C152.500076,41.3844398 154.865874,40.6357431 157.152813,40.6357431 C161.52954,40.6357431 164.881087,43.3152893 164.881087,50.881067 C164.881087,59.037921 161.05638,62.0721131 156.521933,62.0721131 C153.998415,62.0721131 152.381786,61.2840112 151.080597,60.1018585 L151.080597,69.9531314 L145.323821,69.9531314 Z M151.198887,46.9405578 L151.198887,55.9249187 C151.790336,56.47659 153.328105,57.3040969 154.787014,57.3040969 C157.547112,57.3040969 158.651152,55.0186016 158.651152,51.0386873 C158.651152,46.9011527 157.428822,45.3643541 155.023594,45.3643541 C153.643545,45.3643541 152.105776,46.191861 151.198887,46.9405578 Z M178.646197,62.0721131 C171.036212,62.0721131 168.591554,56.9494511 168.591554,51.3933332 C168.591554,43.9851759 173.126,40.6357431 178.646197,40.6357431 C184.876132,40.6357431 187.47851,44.4186319 187.47851,50.1323702 C187.47851,50.8022568 187.43908,52.1026248 187.360221,52.8119165 L174.860919,52.8119165 C174.979209,56.2007544 176.398688,57.4617173 179.001066,57.4617173 C181.130285,57.4617173 181.958314,56.2795646 182.352614,54.5457405 L187.360221,55.7672984 C186.611051,59.5895923 183.535513,62.0721131 178.646197,62.0721131 Z M174.939779,49.0290277 L181.327435,49.0290277 C181.327435,46.0736458 180.262825,44.9308981 178.330757,44.9308981 C176.635268,44.9308981 174.979209,46.0342407 174.939779,49.0290277 Z M204.989467,40.6751482 C204.634597,40.6751482 204.279728,40.6357431 203.964288,40.6357431 C200.80989,40.6357431 198.877821,42.2907569 197.497772,44.3004166 L197.064043,41.0691991 L191.977576,41.0691991 L191.977576,61.599252 L197.931502,61.599252 L197.931502,48.319736 C199.666421,46.9405578 202.308229,46.2312661 204.989467,46.4676967 L204.989467,40.6751482 Z M214.456709,41.0691991 L208.502784,41.0691991 L208.502784,61.599252 L214.456709,61.599252 L214.456709,41.0691991 Z M215.087589,34.7643844 C215.087589,32.4788891 213.74697,31.178521 211.499461,31.178521 C209.212523,31.178521 207.911334,32.4788891 207.911334,34.7643844 C207.911334,37.0498797 209.212523,38.3896529 211.499461,38.3896529 C213.74697,38.3896529 215.087589,37.0498797 215.087589,34.7643844 Z M229.010418,62.0721131 C221.400433,62.0721131 218.955775,56.9494511 218.955775,51.3933332 C218.955775,43.9851759 223.490222,40.6357431 229.010418,40.6357431 C235.240354,40.6357431 237.842732,44.4186319 237.842732,50.1323702 C237.842732,50.8022568 237.803302,52.1026248 237.724442,52.8119165 L225.225141,52.8119165 C225.343431,56.2007544 226.76291,57.4617173 229.365288,57.4617173 C231.494506,57.4617173 232.322536,56.2795646 232.716836,54.5457405 L237.724442,55.7672984 C236.975273,59.5895923 233.899735,62.0721131 229.010418,62.0721131 Z M225.304001,49.0290277 L231.691656,49.0290277 C231.691656,46.0736458 230.627047,44.9308981 228.694978,44.9308981 C226.99949,44.9308981 225.343431,46.0342407 225.304001,49.0290277 Z M260.992175,47.5710393 C260.992175,42.8818333 259.020676,40.6357431 254.486229,40.6357431 C251.686701,40.6357431 249.439193,41.7390857 247.940854,43.1182639 L247.625414,41.0691991 L242.341798,41.0691991 L242.341798,61.599252 L248.295724,61.599252 L248.295724,47.0587731 C249.084323,46.3494814 250.700952,45.4431643 252.317581,45.4431643 C254.17079,45.4431643 255.038249,46.3888865 255.038249,48.5955716 L255.038249,61.599252 L260.992175,61.599252 L260.992175,47.5710393 Z M275.230444,62.0721131 C280.0409,62.0721131 283.747318,59.7866177 284.457057,54.6245507 L279.449451,53.6788285 C279.094581,56.2795646 277.911682,57.4223122 275.624744,57.4223122 C273.101225,57.4223122 271.563456,55.8067035 271.563456,51.0386873 C271.563456,46.2706712 273.456095,45.2067337 275.703603,45.2067337 C278.029972,45.2067337 278.818571,46.6253171 279.055151,49.186648 L284.378197,48.3985462 C283.983898,43.3940995 280.75064,40.6357431 275.821893,40.6357431 C269.158228,40.6357431 265.333521,44.6156574 265.333521,51.6691688 C265.333521,57.737553 268.369629,62.0721131 275.230444,62.0721131 Z M297.749007,62.0721131 C290.139022,62.0721131 287.694364,56.9494511 287.694364,51.3933332 C287.694364,43.9851759 292.228811,40.6357431 297.749007,40.6357431 C303.978943,40.6357431 306.581321,44.4186319 306.581321,50.1323702 C306.581321,50.8022568 306.541891,52.1026248 306.463031,52.8119165 L293.96373,52.8119165 C294.08202,56.2007544 295.501499,57.4617173 298.103877,57.4617173 C300.233095,57.4617173 301.061125,56.2795646 301.455424,54.5457405 L306.463031,55.7672984 C305.713862,59.5895923 302.638324,62.0721131 297.749007,62.0721131 Z M294.04259,49.0290277 L300.430245,49.0290277 C300.430245,46.0736458 299.365636,44.9308981 297.433567,44.9308981 C295.738078,44.9308981 294.08202,46.0342407 294.04259,49.0290277 Z" id="User-Experience" fill="#6D6E71" transform="translate(155.141884, 50.565826) rotate(-12.000000) translate(-155.141884, -50.565826) "></path>
                            <ellipse id="Oval-8" fill="#A7CD96" transform="translate(188.991918, 144.069903) rotate(4.000000) translate(-188.991918, -144.069903) " cx="188.991918" cy="144.069903" rx="10.9527702" ry="10.9458588"></ellipse>
                            <ellipse id="Oval-8" fill="#A7CD96" transform="translate(278.234888, 69.677659) rotate(4.000000) translate(-278.234888, -69.677659) " cx="278.234888" cy="69.6776593" rx="10.9527702" ry="10.9458588"></ellipse>
                            <ellipse id="Oval-8" fill="#A7CD96" transform="translate(98.200137, 215.722011) rotate(4.000000) translate(-98.200137, -215.722011) " cx="98.2001369" cy="215.722011" rx="10.9527702" ry="10.9458588"></ellipse>
                        </g>
                    </g>
                    <path d="M81.6567505,332.573441 C77.5298315,332.573441 75.837622,329.898676 75.837622,326.171262 C75.837622,322.461104 77.8924478,319.648287 81.9330296,319.648287 C85.9908788,319.648287 87.6658208,322.461104 87.6658208,325.92967 C87.6658208,329.984959 85.7145997,332.573441 81.6567505,332.573441 Z M81.7603552,330.33009 C83.6252391,330.33009 84.9202973,329.173901 84.9202973,326.084979 C84.9202973,323.203136 83.7979135,321.891638 81.8812273,321.891638 C79.8609364,321.891638 78.5831456,323.220392 78.5831456,326.119492 C78.5831456,329.104875 79.7918666,330.33009 81.7603552,330.33009 Z M97.4564613,326.223032 C97.4564613,324.169502 96.5930891,323.185879 94.6073331,323.185879 C93.3813446,323.185879 92.3971004,323.669063 91.7409375,324.273042 L91.602798,323.375701 L89.2889605,323.375701 L89.2889605,332.366362 L91.8963445,332.366362 L91.8963445,325.998696 C92.2416934,325.688079 92.9496586,325.291178 93.6576237,325.291178 C94.4691936,325.291178 94.8490773,325.705335 94.8490773,326.671702 L94.8490773,332.366362 L97.4564613,332.366362 L97.4564613,326.223032 Z M101.58338,332.366362 L99.390415,332.366362 L99.390415,319.337669 L101.945997,319.337669 L101.945997,324.186759 C102.671229,323.479241 103.551869,323.185879 104.656985,323.185879 C106.470067,323.185879 107.972334,324.359324 107.972334,327.672582 C107.972334,331.192917 106.38373,332.573441 104.225299,332.573441 C103.120183,332.573441 102.308613,332.159284 101.756055,331.607074 L101.704252,331.607074 L101.58338,332.366362 Z M101.980532,325.964183 L101.980532,329.898676 C102.308613,330.140268 102.895706,330.485399 103.551869,330.485399 C104.708788,330.485399 105.226811,329.588058 105.226811,327.741608 C105.226811,326.309314 104.881462,325.273921 103.638206,325.273921 C103.016578,325.273921 102.360415,325.619052 101.980532,325.964183 Z M113.566986,332.573441 C110.303439,332.573441 109.181055,330.606195 109.181055,327.914173 C109.181055,325.03233 110.683323,323.185879 113.80873,323.185879 C116.934138,323.185879 118.142859,325.066843 118.142859,327.724351 C118.142859,330.657964 116.795998,332.573441 113.566986,332.573441 Z M113.687858,330.640708 C114.827509,330.640708 115.43187,329.915933 115.43187,327.810634 C115.43187,325.843388 114.896579,325.153126 113.739661,325.153126 C112.565474,325.153126 111.909312,325.895157 111.909312,327.845147 C111.909312,329.846907 112.410067,330.640708 113.687858,330.640708 Z M126.828383,326.361084 L126.828383,330.123011 C126.828383,330.606195 126.91472,330.813273 127.363673,330.813273 C127.51908,330.813273 127.674487,330.77876 127.898964,330.709734 L127.968034,332.211054 C127.622685,332.383619 126.862918,332.556184 126.310359,332.556184 C125.274313,332.556184 124.652685,332.262823 124.462743,331.417252 C123.892917,332.159284 123.029545,332.573441 121.786289,332.573441 C119.541522,332.573441 119.109835,331.072121 119.109835,330.174781 C119.109835,327.43099 121.958964,327.016833 124.272801,327.034089 L124.272801,326.706215 C124.272801,325.688079 124.134662,325.066843 122.99501,325.066843 C122.131638,325.066843 121.803557,325.42923 121.630882,326.309314 L119.420649,325.877901 C119.696929,324.186759 120.76751,323.185879 123.219487,323.185879 C125.619662,323.185879 126.828383,324.117733 126.828383,326.361084 Z M124.290069,330.140268 L124.290069,328.552665 L123.87565,328.552665 C122.632394,328.587179 121.734487,328.82877 121.734487,329.743367 C121.734487,330.261064 121.958964,330.72699 122.787801,330.72699 C123.409429,330.72699 124.013789,330.416373 124.290069,330.140268 Z M134.840477,323.203136 C134.68507,323.203136 134.529663,323.185879 134.391523,323.185879 C133.010128,323.185879 132.164023,323.910654 131.559662,324.790738 L131.36972,323.375701 L129.14222,323.375701 L129.14222,332.366362 L131.749604,332.366362 L131.749604,326.550906 C132.509372,325.946927 133.66629,325.636309 134.840477,325.739848 L134.840477,323.203136 Z M143.957687,319.337669 L143.957687,332.366362 L141.781989,332.366362 L141.626582,331.486279 L141.574779,331.469022 C140.953152,332.159284 140.107047,332.573441 138.915593,332.573441 C136.808965,332.573441 135.375767,331.2792 135.375767,328.052226 C135.375767,324.445607 137.309721,323.185879 139.174605,323.185879 C140.176117,323.185879 140.884082,323.410214 141.453907,323.945167 L141.453907,319.337669 L143.957687,319.337669 Z M141.36757,329.88142 L141.36757,325.757105 C141.022221,325.498257 140.504198,325.256665 139.917105,325.256665 C138.604779,325.256665 138.104023,326.412854 138.104023,327.965943 C138.104023,329.570802 138.604779,330.519912 139.830768,330.519912 C140.383326,330.519912 140.953152,330.261064 141.36757,329.88142 Z" id="Onboard" fill="#6D6E71"></path>
                    <path d="M192.795773,327.206655 L197.751529,327.206655 L197.751529,325.03233 L192.795773,325.03233 L192.795773,322.098717 L198.062343,322.098717 L198.062343,319.872622 L190.136586,319.872622 L190.136586,332.366362 L198.373157,332.366362 L198.373157,330.123011 L192.795773,330.123011 L192.795773,327.206655 Z M208.07746,326.223032 C208.07746,324.169502 207.214088,323.185879 205.228332,323.185879 C204.002344,323.185879 203.018099,323.669063 202.361936,324.273042 L202.223797,323.375701 L199.909959,323.375701 L199.909959,332.366362 L202.517343,332.366362 L202.517343,325.998696 C202.862692,325.688079 203.570657,325.291178 204.278623,325.291178 C205.090193,325.291178 205.470076,325.705335 205.470076,326.671702 L205.470076,332.366362 L208.07746,332.366362 L208.07746,326.223032 Z M213.723914,323.185879 C214.708159,323.185879 215.519728,323.341188 216.106821,323.738089 C216.417635,323.065083 216.918391,322.374821 217.764496,322.374821 C217.988973,322.374821 218.230717,322.426591 218.489729,322.53013 L218.489729,324.238529 C217.954438,324.186759 217.505484,324.221272 217.004729,324.376581 C217.522752,324.963304 217.747229,325.670822 217.747229,326.395597 C217.747229,328.414613 216.106821,329.622571 213.792984,329.622571 C213.188624,329.622571 212.791472,329.570802 212.290716,329.432749 C212.135309,329.588058 211.962635,329.760624 211.962635,329.984959 C211.962635,330.243807 212.118042,330.416373 212.774205,330.450886 L215.329787,330.606195 C217.246473,330.72699 218.351589,331.382739 218.351589,333.194677 C218.351589,335.403515 216.296763,336.249086 213.654845,336.249086 C210.356763,336.249086 209.320716,335.403515 209.320716,334.161043 C209.320716,333.315473 209.959612,332.72875 210.943856,332.538928 L210.943856,332.469902 C210.063216,332.211054 209.63153,331.693357 209.63153,330.951326 C209.63153,330.053985 210.184088,329.553545 211.030193,328.949566 C210.218623,328.483639 209.717867,327.655325 209.717867,326.516393 C209.717867,324.600916 211.151065,323.185879 213.723914,323.185879 Z M215.364321,326.37834 C215.364321,325.446487 214.777228,325.015073 213.827519,325.015073 C212.895077,325.015073 212.187112,325.411974 212.187112,326.37834 C212.187112,327.275681 212.687868,327.758864 213.792984,327.758864 C214.725426,327.758864 215.364321,327.258424 215.364321,326.37834 Z M215.813275,333.660604 C215.813275,333.315473 215.640601,333.004855 214.708159,332.953085 L212.204379,332.797776 C211.876298,333.039368 211.669089,333.332729 211.669089,333.660604 C211.669089,334.368122 212.653333,334.575201 213.862054,334.575201 C215.018973,334.575201 215.813275,334.402635 215.813275,333.660604 Z M226.674497,326.361084 L226.674497,330.123011 C226.674497,330.606195 226.760834,330.813273 227.209788,330.813273 C227.365195,330.813273 227.520602,330.77876 227.745078,330.709734 L227.814148,332.211054 C227.468799,332.383619 226.709032,332.556184 226.156474,332.556184 C225.120427,332.556184 224.498799,332.262823 224.308857,331.417252 C223.739032,332.159284 222.875659,332.573441 221.632403,332.573441 C219.387636,332.573441 218.95595,331.072121 218.95595,330.174781 C218.95595,327.43099 221.805078,327.016833 224.118915,327.034089 L224.118915,326.706215 C224.118915,325.688079 223.980776,325.066843 222.841124,325.066843 C221.977752,325.066843 221.649671,325.42923 221.476996,326.309314 L219.266764,325.877901 C219.543043,324.186759 220.613624,323.185879 223.065601,323.185879 C225.465776,323.185879 226.674497,324.117733 226.674497,326.361084 Z M224.136183,330.140268 L224.136183,328.552665 L223.721764,328.552665 C222.478508,328.587179 221.580601,328.82877 221.580601,329.743367 C221.580601,330.261064 221.805078,330.72699 222.633915,330.72699 C223.255543,330.72699 223.859904,330.416373 224.136183,330.140268 Z M232.6663,323.185879 C233.650544,323.185879 234.462114,323.341188 235.049207,323.738089 C235.360021,323.065083 235.860777,322.374821 236.706882,322.374821 C236.931358,322.374821 237.173103,322.426591 237.432114,322.53013 L237.432114,324.238529 C236.896823,324.186759 236.44787,324.221272 235.947114,324.376581 C236.465137,324.963304 236.689614,325.670822 236.689614,326.395597 C236.689614,328.414613 235.049207,329.622571 232.73537,329.622571 C232.131009,329.622571 231.733858,329.570802 231.233102,329.432749 C231.077695,329.588058 230.905021,329.760624 230.905021,329.984959 C230.905021,330.243807 231.060428,330.416373 231.71659,330.450886 L234.272172,330.606195 C236.188858,330.72699 237.293975,331.382739 237.293975,333.194677 C237.293975,335.403515 235.239149,336.249086 232.59723,336.249086 C229.299148,336.249086 228.263102,335.403515 228.263102,334.161043 C228.263102,333.315473 228.901997,332.72875 229.886241,332.538928 L229.886241,332.469902 C229.005602,332.211054 228.573916,331.693357 228.573916,330.951326 C228.573916,330.053985 229.126474,329.553545 229.972579,328.949566 C229.161009,328.483639 228.660253,327.655325 228.660253,326.516393 C228.660253,324.600916 230.093451,323.185879 232.6663,323.185879 Z M234.306707,326.37834 C234.306707,325.446487 233.719614,325.015073 232.769904,325.015073 C231.837463,325.015073 231.129497,325.411974 231.129497,326.37834 C231.129497,327.275681 231.630253,327.758864 232.73537,327.758864 C233.667812,327.758864 234.306707,327.258424 234.306707,326.37834 Z M234.75566,333.660604 C234.75566,333.315473 234.582986,333.004855 233.650544,332.953085 L231.146765,332.797776 C230.818683,333.039368 230.611474,333.332729 230.611474,333.660604 C230.611474,334.368122 231.595718,334.575201 232.804439,334.575201 C233.961358,334.575201 234.75566,334.402635 234.75566,333.660604 Z M242.370603,332.573441 C239.037986,332.573441 237.967405,330.33009 237.967405,327.896917 C237.967405,324.652686 239.953161,323.185879 242.370603,323.185879 C245.098859,323.185879 246.23851,324.842508 246.23851,327.344707 C246.23851,327.638068 246.221243,328.207535 246.186708,328.518152 L240.712928,328.518152 C240.764731,330.002215 241.386359,330.554425 242.52601,330.554425 C243.458452,330.554425 243.821068,330.036729 243.993743,329.27744 L246.186708,329.812393 C245.858627,331.486279 244.511766,332.573441 242.370603,332.573441 Z M240.747463,326.861524 L243.544789,326.861524 C243.544789,325.567283 243.078568,325.066843 242.232464,325.066843 C241.489963,325.066843 240.764731,325.550026 240.747463,326.861524 Z" id="Engage" fill="#6D6E71"></path>
                    <path d="M297.447992,332.573441 C299.69276,332.573441 302.196539,331.538048 302.59369,328.552665 L300.193516,328.138508 C299.899969,329.450006 299.278341,330.38186 297.482527,330.38186 C295.514038,330.38186 294.426189,329.191158 294.426189,326.119492 C294.426189,323.151366 295.63491,321.839868 297.672469,321.839868 C299.278341,321.839868 300.038109,322.564643 300.193516,324.342068 L302.628225,324.134989 C302.490086,320.994298 300.50433,319.648287 297.707004,319.648287 C293.787294,319.648287 291.680666,322.288539 291.680666,326.257545 C291.680666,330.123011 293.303806,332.573441 297.447992,332.573441 Z M307.9984,332.573441 C304.734853,332.573441 303.612469,330.606195 303.612469,327.914173 C303.612469,325.03233 305.114737,323.185879 308.240144,323.185879 C311.365552,323.185879 312.574273,325.066843 312.574273,327.724351 C312.574273,330.657964 311.227412,332.573441 307.9984,332.573441 Z M308.119272,330.640708 C309.258923,330.640708 309.863284,329.915933 309.863284,327.810634 C309.863284,325.843388 309.327993,325.153126 308.171074,325.153126 C306.996888,325.153126 306.340725,325.895157 306.340725,327.845147 C306.340725,329.846907 306.841481,330.640708 308.119272,330.640708 Z M322.313111,326.223032 C322.313111,324.169502 321.449739,323.185879 319.463983,323.185879 C318.237994,323.185879 317.25375,323.669063 316.597587,324.273042 L316.459447,323.375701 L314.14561,323.375701 L314.14561,332.366362 L316.752994,332.366362 L316.752994,325.998696 C317.098343,325.688079 317.806308,325.291178 318.514273,325.291178 C319.325843,325.291178 319.705727,325.705335 319.705727,326.671702 L319.705727,332.366362 L322.313111,332.366362 L322.313111,326.223032 Z M329.116483,332.366362 L332.293693,323.375701 L329.617239,323.375701 L327.700553,329.864163 L327.631483,329.864163 L325.714797,323.375701 L322.900204,323.375701 L326.077413,332.366362 L329.116483,332.366362 Z M336.955903,332.573441 C333.623286,332.573441 332.552705,330.33009 332.552705,327.896917 C332.552705,324.652686 334.538461,323.185879 336.955903,323.185879 C339.684159,323.185879 340.82381,324.842508 340.82381,327.344707 C340.82381,327.638068 340.806543,328.207535 340.772008,328.518152 L335.298228,328.518152 C335.350031,330.002215 335.971659,330.554425 337.11131,330.554425 C338.043752,330.554425 338.406368,330.036729 338.579042,329.27744 L340.772008,329.812393 C340.443926,331.486279 339.097066,332.573441 336.955903,332.573441 Z M335.332763,326.861524 L338.130089,326.861524 C338.130089,325.567283 337.663868,325.066843 336.817763,325.066843 C336.075263,325.066843 335.350031,325.550026 335.332763,326.861524 Z M348.093404,323.203136 C347.937997,323.203136 347.78259,323.185879 347.64445,323.185879 C346.263055,323.185879 345.41695,323.910654 344.81259,324.790738 L344.622648,323.375701 L342.395147,323.375701 L342.395147,332.366362 L345.002531,332.366362 L345.002531,326.550906 C345.762299,325.946927 346.919218,325.636309 348.093404,325.739848 L348.093404,323.203136 Z M354.810439,330.088498 C354.465091,330.295577 353.843463,330.502655 353.325439,330.502655 C352.496602,330.502655 352.272125,330.088498 352.272125,329.294697 L352.272125,325.273921 L354.655032,325.273921 L354.655032,323.375701 L352.272125,323.375701 L352.272125,320.373062 L349.664741,320.718193 L349.664741,323.375701 L348.317881,323.375701 L348.317881,325.273921 L349.664741,325.273921 L349.664741,329.657085 C349.664741,331.710614 350.648985,332.573441 352.531137,332.573441 C353.670788,332.573441 354.724102,332.22831 355.173056,331.934949 L354.810439,330.088498 Z" id="Convert" fill="#6D6E71"></path>
                </g>
                <g id="Group-64" transform="translate(863.000000, 261.500000) rotate(5.000000) translate(-863.000000, -261.500000) translate(798.000000, 169.000000)">
                    <g id="Group-23" transform="translate(64.992506, 16.774875) rotate(-360.000000) translate(-64.992506, -16.774875) translate(55.157833, 0.369270)"></g>
                    <g id="Rectangle-3" transform="translate(64.992506, 105.365141) rotate(-360.000000) translate(-64.992506, -105.365141) ">
                        <use fill="#ECECEC" fill-rule="evenodd" xlink:href="#path-3"></use>
                        <rect stroke="#6D6E71" stroke-width="2" x="1" y="26.8000935" width="127.985012" height="157.130094" rx="6"></rect>
                    </g>
                    <polygon id="Stroke-883" stroke="#6D6E71" stroke-width="2" fill="#A7CD96" stroke-linecap="round" stroke-linejoin="round" transform="translate(65.007189, 20.218218) rotate(-360.000000) translate(-65.007189, -20.218218) " points="56.8116285 32.6435461 73.2027505 32.6435461 73.2027505 7.79288975 56.8116285 7.79288975"></polygon>
                    <path d="M73.2027505,7.95757945 C73.2027505,4.31980224 69.533871,1.37138051 65.0071895,1.37138051 C60.480508,1.37138051 56.8116285,4.31980224 56.8116285,7.95757945 L73.2027505,7.95757945 L73.2027505,7.95757945 Z" id="Stroke-884" stroke="#6D6E71" stroke-width="2" fill="#FFFFFF" stroke-linecap="round" stroke-linejoin="round" transform="translate(65.007189, 4.664480) rotate(-360.000000) translate(-65.007189, -4.664480) "></path>
                    <g id="Rectangle-3" transform="translate(64.992506, 105.365141) rotate(-360.000000) translate(-64.992506, -105.365141) ">
                        <use fill="#FFFFFF" fill-rule="evenodd" xlink:href="#path-4"></use>
                        <rect stroke="#6D6E71" stroke-width="2" x="10.2626913" y="36.3678935" width="109.45963" height="137.994494"></rect>
                    </g>
                    <path d="M26.6847466,58.8913946 L26.6847466,66.8098332 L25.1111989,66.8098332 L25.1111989,60.5975775 L25.0674892,60.5975775 L23.1989013,66.8098332 L21.6799907,66.8098332 L19.8769673,60.5866404 L19.8332576,60.5866404 L19.8332576,66.8098332 L18.2924922,66.8098332 L18.2924922,58.8913946 L20.8057975,58.8913946 L22.477692,64.6771046 L22.5214016,64.6771046 L24.1823687,58.8913946 L26.6847466,58.8913946 Z M32.7385343,63.0037329 L32.7385343,65.3880141 C32.7385343,65.6942521 32.7931714,65.8254969 33.0772842,65.8254969 C33.1756309,65.8254969 33.2739777,65.8036228 33.4160341,65.7598745 L33.4597437,66.7113996 C33.2411954,66.8207703 32.7603892,66.930141 32.4107119,66.930141 C31.755067,66.930141 31.3616801,66.7442108 31.2414785,66.2082943 C30.8808739,66.6785883 30.3345031,66.941078 29.5477293,66.941078 C28.1271654,66.941078 27.85398,65.9895529 27.85398,65.4208253 C27.85398,63.6818312 29.6570034,63.4193415 31.121277,63.4302786 L31.121277,63.2224743 C31.121277,62.5771871 31.0338577,62.1834526 30.3126483,62.1834526 C29.7662776,62.1834526 29.5586567,62.4131311 29.4493825,62.9709217 L28.0506735,62.6974949 C28.2255121,61.6256621 28.9030118,60.991312 30.4547047,60.991312 C31.9736153,60.991312 32.7385343,61.5819138 32.7385343,63.0037329 Z M31.1322044,65.3989512 L31.1322044,64.3927407 L30.8699464,64.3927407 C30.0831726,64.4146149 29.514947,64.5677339 29.514947,65.1473986 C29.514947,65.4755107 29.6570034,65.7708115 30.1815193,65.7708115 C30.5749062,65.7708115 30.9573658,65.5739443 31.1322044,65.3989512 Z M37.8088548,61.0022491 L37.8088548,62.6099984 C37.0657906,62.5443759 36.3336538,62.7412432 35.8528475,63.1240406 L35.8528475,66.8098332 L34.2028079,66.8098332 L34.2028079,61.1116198 L35.6124444,61.1116198 L35.732646,62.0084595 C36.1151055,61.4506689 36.6505488,60.991312 37.524742,60.991312 C37.6121613,60.991312 37.710508,61.0022491 37.8088548,61.0022491 Z M39.9943377,66.930141 L37.8307096,61.1116198 L39.6118782,61.1116198 L40.8029664,65.0817761 L40.8357486,65.0817761 L41.9831272,61.1116198 L43.6768764,61.1116198 C42.9228848,63.2224743 42.1142561,65.4645736 41.4149016,67.3676237 C40.9340953,68.7128833 40.4314343,69.2487998 39.2731283,69.2487998 C38.8251043,69.2487998 38.2678062,69.128492 38.027403,69.0081842 L38.1476046,67.8160436 C38.4535722,67.9144772 38.7704672,67.9910367 39.0108704,67.9910367 C39.3933299,67.9910367 39.6446604,67.8160436 39.8194991,67.3785608 L39.9943377,66.930141 Z M20.2266446,74.2032924 L22.3247082,74.2032924 L25.1221263,82.121731 L23.2753932,82.121731 L22.6197484,80.1968067 L19.9862414,80.1968067 L19.3743062,82.121731 L17.6368473,82.121731 L20.2266446,74.2032924 Z M22.2700711,78.8515471 L21.2866038,75.7891675 L21.2428941,75.7891675 L20.2703542,78.8515471 L22.2700711,78.8515471 Z M28.2255121,76.3032098 C28.8483747,76.3032098 29.3619632,76.4016435 29.7334953,76.6531961 C29.9301888,76.2266503 30.2470838,75.7891675 30.7825271,75.7891675 C30.9245835,75.7891675 31.0775673,75.8219788 31.2414785,75.8876012 L31.2414785,76.9703711 C30.9027287,76.9375599 30.6186159,76.959434 30.3017209,77.0578677 C30.6295433,77.429728 30.7715997,77.8781479 30.7715997,78.3375048 C30.7715997,79.617142 29.7334953,80.3827369 28.2692217,80.3827369 C27.8867622,80.3827369 27.6354317,80.3499257 27.3185367,80.2624291 C27.2201899,80.3608628 27.1109158,80.4702335 27.1109158,80.6124154 C27.1109158,80.7764714 27.2092625,80.8858421 27.6245043,80.9077162 L29.2417617,81.0061499 C30.4547047,81.0827094 31.1540592,81.498318 31.1540592,82.6467104 C31.1540592,84.0466553 29.8536969,84.5825717 28.1818024,84.5825717 C26.0946662,84.5825717 25.4390213,84.0466553 25.4390213,83.2591863 C25.4390213,82.7232698 25.8433357,82.3514095 26.4661983,82.2311017 L26.4661983,82.1873534 C25.9089002,82.0232974 25.6357148,81.6951853 25.6357148,81.2248913 C25.6357148,80.6561636 25.9853921,80.3389886 26.5208354,79.9561912 C26.0072469,79.6608903 25.6903519,79.1359109 25.6903519,78.4140643 C25.6903519,77.2000496 26.5973273,76.3032098 28.2255121,76.3032098 Z M29.2636165,78.3265678 C29.2636165,77.735966 28.8920844,77.4625392 28.2910766,77.4625392 C27.7009962,77.4625392 27.2529722,77.7140918 27.2529722,78.3265678 C27.2529722,78.8952954 27.5698672,79.2015333 28.2692217,79.2015333 C28.8593021,79.2015333 29.2636165,78.8843583 29.2636165,78.3265678 Z M29.5477293,82.9420112 C29.5477293,82.7232698 29.4384551,82.5264026 28.8483747,82.4935914 L27.2638996,82.3951577 C27.0562787,82.5482767 26.9251497,82.7342069 26.9251497,82.9420112 C26.9251497,83.3904311 27.5480124,83.5216759 28.3129314,83.5216759 C29.0450682,83.5216759 29.5477293,83.4123052 29.5477293,82.9420112 Z M34.3667191,82.2529758 C32.2577281,82.2529758 31.5802284,80.8311568 31.5802284,79.2890299 C31.5802284,77.2328608 32.8368811,76.3032098 34.3667191,76.3032098 C36.0932506,76.3032098 36.81446,77.3531685 36.81446,78.9390437 C36.81446,79.1249739 36.8035326,79.4858972 36.7816778,79.6827644 L33.3176873,79.6827644 C33.3504696,80.6233524 33.7438565,80.9733387 34.4650659,80.9733387 C35.0551463,80.9733387 35.284622,80.6452266 35.3938961,80.1639955 L36.7816778,80.5030447 C36.5740569,81.5639404 35.7217186,82.2529758 34.3667191,82.2529758 Z M33.3395422,78.6328057 L35.1097833,78.6328057 C35.1097833,77.8125255 34.8147431,77.4953504 34.2792998,77.4953504 C33.809421,77.4953504 33.3504696,77.8015884 33.3395422,78.6328057 Z M43.3053443,80.4155481 L44.245102,80.2186808 C44.3871584,80.8967792 44.5838518,81.3998844 45.6328837,81.3998844 C46.4305849,81.3998844 47.1299395,80.9624016 47.1299395,79.8686946 C47.1299395,78.7421764 46.4633672,78.370316 45.4689724,78.370316 L44.7586905,78.370316 L44.7586905,77.5281617 L45.2613516,77.5281617 C46.3650204,77.5281617 47.0206653,76.948497 47.0206653,76.0735314 C47.0206653,75.4173072 46.7146977,74.8923278 45.77494,74.8923278 C44.8461098,74.8923278 44.5729244,75.2969994 44.376231,76.018846 L43.4911104,75.8219788 C43.7533683,74.4985933 44.7149808,74.0611105 45.8842142,74.0611105 C47.2719959,74.0611105 48.0150601,74.8048313 48.0150601,75.9313495 C48.0150601,77.1234901 47.1736491,77.6703436 46.4742946,77.8453367 L46.4742946,77.8781479 C47.5014716,78.0640781 48.1571164,78.676554 48.1571164,79.8905687 C48.1571164,81.3123878 47.1517943,82.2529758 45.6110288,82.2529758 C44.376231,82.2529758 43.4583281,81.7279965 43.3053443,80.4155481 Z M49.5776804,78.2390712 L49.883648,74.2032924 L53.6645334,74.2032924 L53.6645334,75.078258 L50.6594944,75.078258 L50.4300187,77.6265953 C50.7906234,77.3312944 51.282357,77.0906789 51.9817116,77.0906789 C53.0635256,77.0906789 54.1344123,77.6703436 54.1344123,79.5077713 C54.1344123,81.1373947 53.1400175,82.2529758 51.4899779,82.2529758 C50.3535268,82.2529758 49.3263498,81.7279965 49.1296563,80.404611 L50.0584866,80.1749326 C50.1786882,80.7983455 50.4846558,81.3889473 51.5009053,81.3889473 C52.2876792,81.3889473 53.0963079,80.8858421 53.0963079,79.5405825 C53.0963079,78.3812531 52.4734452,77.9437703 51.6648166,77.9437703 C51.1075184,77.9437703 50.6376396,78.1843858 50.2551801,78.5453092 L49.5776804,78.2390712 Z" id="Mary-Age-35" fill="#6D6E71" transform="translate(35.885630, 71.736983) rotate(-360.000000) translate(-35.885630, -71.736983) "></path>
                    <g id="Group-63" transform="translate(17.483863, 103.995871)" fill="#ECECEC">
                        <rect id="Rectangle-6" transform="translate(46.987883, 3.926237) rotate(-360.000000) translate(-46.987883, -3.926237) " x="0" y="0.645116231" width="93.9757661" height="6.56224192"></rect>
                        <rect id="Rectangle-6" transform="translate(46.987883, 16.503868) rotate(-360.000000) translate(-46.987883, -16.503868) " x="0" y="13.2227466" width="93.9757661" height="6.56224192"></rect>
                        <rect id="Rectangle-6" transform="translate(46.987883, 29.081498) rotate(-360.000000) translate(-46.987883, -29.081498) " x="0" y="25.8003769" width="93.9757661" height="6.56224192"></rect>
                        <rect id="Rectangle-6" transform="translate(46.987883, 41.659128) rotate(-360.000000) translate(-46.987883, -41.659128) " x="0" y="38.3780073" width="93.9757661" height="6.56224192"></rect>
                        <rect id="Rectangle-6" transform="translate(29.504020, 54.236759) rotate(-360.000000) translate(-29.504020, -54.236759) " x="0" y="50.9556376" width="59.0080392" height="6.56224192"></rect>
                    </g>
                    <g id="Group-4" transform="translate(62.721653, 47.462991)">
                        <g id="Group-12" transform="translate(0.000000, -0.000000)">
                            <mask id="mask-6" fill="white">
                                <use xlink:href="#path-5"></use>
                            </mask>
                            <g id="Mask"></g>
                            <g mask="url(#mask-6)">
                                <g transform="translate(7.221789, 5.706428)">
                                    <path d="M29.571636,30.0256108 L21.3358774,26.4895953 C20.8855135,26.2660031 20.5187993,25.7906844 20.2603816,25.2753857 C20.0273575,24.8104322 20.3753999,22.8488921 20.8989572,22.8488921 L26.6991659,22.8488921 C26.6991659,22.8488921 28.8262577,23.0510135 30.4663888,22.352843 C31.4268663,21.9434174 31.7584776,20.747717 31.1572455,19.8999914 C29.3998555,17.4204864 25.7678164,11.5819147 25.6505575,5.5523272 C25.6505575,5.5523272 25.3149918,0.426839006 16.0776777,0.351321088 C10.6889955,0.395743393 6.14748632,5.04295144 6.04068361,6.63771219 C5.65753822,12.3852181 2.7051528,17.8106623 1.32941439,20.0576906 C0.86261933,20.8195331 1.0881747,21.8338424 1.86044046,22.2913921 C3.1256418,23.0413887 4.67465454,22.8488921 4.67465454,22.8488921 L10.6115409,22.8488921 C11.1903667,22.8488921 10.9909519,24.9006825 10.9909519,25.3434999 C10.9909519,25.7863172 10.2679797,26.2486782 10.0767804,26.3515899 L3.14281986,28.564562 C1.21813045,29.6055247 0.0208944715,31.6045284 0.0208944715,33.7775195 L0.0208944715,34.6948401 L0.0208944715,37.8253451 C0.0208944715,37.8253451 32.8832669,37.8253451 32.8832669,37.8253451 L32.8832669,34.6948401 L32.8832669,33.9226323 C32.8832669,31.673383 31.6008875,31.031776 29.571636,30.0256108 Z" id="Stroke-213-Copy-2" stroke="#6D6E71" stroke-width="1" fill="#FFFFFF" stroke-linecap="round" stroke-linejoin="round"></path>
                                    <path d="M10.1312783,26.3207474 C11.2783624,27.8669497 13.3976639,28.6151281 15.7455023,28.6151281 C18.0774239,28.6151281 20.0484753,27.8770596 21.1098299,26.352084 C21.1825917,26.404721 21.2579834,26.4509233 21.3358774,26.4895953 L29.571636,30.0256108 C31.6008875,31.031776 32.8832669,31.673383 32.8832669,33.9226323 L32.8832669,34.6948401 L32.8832669,37.8253451 C32.8832669,37.8253451 22.153564,44.2858214 20.2603816,44.2858214 C12.1042978,44.2858214 0.0208944715,37.8253451 0.0208944715,37.8253451 L0.0208944715,34.6948401 L0.0208944715,33.7775195 C0.0208944715,31.6045284 1.21813045,29.6055247 3.14281986,28.564562 L10.0767804,26.3515899 C10.0918484,26.3434796 10.1102191,26.3331369 10.1312783,26.3207474 Z" id="Combined-Shape" stroke="#6D6E71" stroke-width="2" fill="#ECECEC" stroke-linecap="round" stroke-linejoin="round"></path>
                                    <g id="Group-10" stroke="none" stroke-width="1" fill="none" transform="translate(1.080762, 0.051665)">
                                        <path d="M19.200514,23.8093154 C18.9674899,23.3443619 19.3155323,22.7972272 19.8390896,22.7972272 L25.6392983,22.7972272 C25.6392983,22.7972272 27.7663901,22.9993487 29.4065212,22.3011781 C30.3669987,21.8917525 30.69861,20.6960522 30.0973779,19.8483265 C28.3399879,17.3688215 24.7079488,11.5302499 24.5906899,5.50066234 C24.5906899,5.50066234 24.4506553,0.37517414 15.2133411,0.299656222 C9.82465892,0.344078527 5.08761872,4.99128657 4.98081601,6.58604732 C4.59767062,12.3335532 1.6452852,17.7589974 0.269546793,20.0060257 C-0.19724827,20.7678682 0.0283071045,21.7821775 0.800572857,22.2397273 C2.0657742,22.9897238 3.61478694,22.7972272 3.61478694,22.7972272 L9.55167327,22.7972272 C10.1304991,22.7972272 10.3859294,23.5220511 9.9310843,23.8774296 C9.56063574,24.1669149 19.4589317,24.3246141 19.200514,23.8093154 Z" id="Stroke-213-Copy-2" stroke="#6D6E71" stroke-width="2" fill="#ECECEC" stroke-linecap="round" stroke-linejoin="round"></path>
                                        <g id="Group-100" transform="translate(2.626187, 3.310113)">
                                            <path d="M22.6822579,8.81477519 L22.6822579,8.81477519 C21.7883337,3.75347017 17.4635899,0.0733157487 12.1503919,0.0733157487 C6.83719398,0.0733157487 2.51245019,3.75347017 1.61852595,8.81477519 C0.764160437,9.1546637 0.0772772753,10.1527327 0.0772772753,11.1286909 C0.0772772753,12.1457854 0.73693171,12.9998774 1.64832343,13.3099422 C2.75391248,18.0976909 7.03087757,21.6698626 12.1503919,21.6698626 C17.2699063,21.6698626 21.5468714,18.0971767 22.6524604,13.3099422 C23.5638522,12.9998774 24.2235066,12.1457854 24.2235066,11.1286909 C24.2235066,10.1527327 23.5366234,9.1546637 22.6822579,8.81477519 L22.6822579,8.81477519 Z" id="Fill-37" fill="#FFFFFF"></path>
                                            <path d="M22.6822579,8.81477519 L22.6822579,8.81477519 C21.7883337,3.75347017 17.4635899,0.0733157487 12.1503919,0.0733157487 C6.83719398,0.0733157487 2.51245019,3.75347017 1.61852595,8.81477519 C0.764160437,9.1546637 0.0772772753,10.1527327 0.0772772753,11.1286909 C0.0772772753,12.1457854 0.73693171,12.9998774 1.64832343,13.3099422 C2.75391248,18.0976909 7.03087757,21.6698626 12.1503919,21.6698626 C17.2699063,21.6698626 21.5468714,18.0971767 22.6524604,13.3099422 C23.5638522,12.9998774 24.2235066,12.1457854 24.2235066,11.1286909 C24.2235066,10.1527327 23.5366234,9.1546637 22.6822579,8.81477519 L22.6822579,8.81477519 Z" id="Stroke-38" stroke="#6D6E71" stroke-width="2" stroke-linecap="round" stroke-linejoin="round"></path>
                                        </g>
                                        <path d="M3.71974175,12.6607501 C4.35042598,10.774538 4.83975244,8.70212053 4.98081601,6.58604732 C5.08761872,4.99128657 7.06819785,0.111705838 15.1517203,0.111705838 C24.3890344,0.187223756 24.5906899,5.50066234 24.5906899,5.50066234 C24.6399471,8.03352133 25.3094231,10.5326736 26.1996215,12.7632844 C23.5193333,14.0574659 21.546836,10.5947739 20.4366688,7.70084548 C20.2034516,7.09274648 19.7281831,6.98658682 19.4007367,7.44317641 C13.9688007,15.0381515 6.36449392,13.4981294 3.71974175,12.6607501 Z" id="Combined-Shape" stroke="#6D6E71" stroke-width="2" fill="#ECECEC" stroke-linecap="round" stroke-linejoin="round"></path>
                                    </g>
                                </g>
                            </g>
                        </g>
                        <ellipse id="Oval-2" stroke="#6D6E71" stroke-width="2" cx="23.4034254" cy="22.9997885" rx="23.0962975" ry="22.9785462"></ellipse>
                    </g>
                </g>
            </g>
        </g>
    </g>
</svg>