<svg xmlns="http://www.w3.org/2000/svg" width="508" height="508" viewBox="0 0 508 508">
  <g fill="none">
    <circle cx="254" cy="254" r="254" fill="#E3A900"/>
    <path fill="#E6E9EE" d="M372.8,339.6 L178.8,339.6 C157.6,339.6 140.4,356.8 140.4,378 C140.4,399.2 157.6,416.4 178.8,416.4 L372.8,416.4 L372.8,339.6 Z"/>
    <path fill="#FFF" d="M377.2,96.8 L377.2,334.8 C377.2,337.6 375.2,339.6 372.4,339.6 L178.8,339.6 C157.2,339.6 139.6,357.6 140.4,379.6 C141.2,400.4 158.8,416.8 179.6,416.8 L372.4,416.8 C375.2,416.8 377.2,418.8 377.2,421.6 C377.2,424.4 375.2,426.4 372.4,426.4 L178.8,426.4 C152.4,426.4 130.8,404.8 130.8,378.4 L130.8,136.8 C130.8,106.4 155.2,82 185.6,82 L362.4,82 C370.8,81.6 377.2,88.4 377.2,96.8 Z"/>
    <path fill="#324A5E" d="M176.4,416.4 C157.2,414.8 141.2,399.2 140.4,379.6 C139.6,358.4 155.6,341.2 176.4,339.6 L176.4,82.8 C150.4,87.2 130.8,109.6 130.8,136.8 L130.8,378 C130.8,403.6 151.2,424.8 176.4,426 L176.4,416.4 Z"/>
    <g fill="#84DBFF" transform="translate(198 123)">
      <rect width="155.6" height="9.2" x=".4" y=".2"/>
      <rect width="155.6" height="9.2" x=".4" y="24.2"/>
      <rect width="155.6" height="9.2" x=".4" y="47.8"/>
      <rect width="155.6" height="9.2" x=".4" y="71.8"/>
    </g>
    <polygon fill="#FF7058" points="217.6 383.2 217.6 445.2 241.6 432.4 265.6 445.2 265.6 383.2"/>
  </g>
</svg>
