<svg xmlns="http://www.w3.org/2000/svg" width="508" height="509" viewBox="0 0 508 509">
  <g fill="none" transform="translate(0 .5)">
    <circle cx="254" cy="254" r="254" fill="#E3A900"/>
    <path fill="#FFF" d="M172.8,420.4 L172.8,374.8 C172.8,367.6 167.2,362 160,362 L114,362 L114,100.4 C114,93.2 119.6,87.6 126.8,87.6 L380.8,87.6 C388,87.6 393.6,93.2 393.6,100.4 L393.6,407.6 C393.6,414.8 388,420.4 380.8,420.4 L172.8,420.4 L172.8,420.4 Z"/>
    <polygon fill="#F1543F" points="308.8 286.8 288.8 286.8 288.8 371.6 308.8 351.6 329.2 371.6 329.2 286.8"/>
    <g fill="#E6E9EE" transform="translate(114 120)">
      <path d="M58.8,300.4 L0,241.6 L45.6,241.6 C52.8,241.6 58.4,247.2 58.4,254.4 L58.4,300.4 L58.8,300.4 L58.8,300.4 Z"/>
      <rect width="229.6" height="16.8" x="25.2" y=".8"/>
      <rect width="229.6" height="16.8" x="25.2" y="38"/>
      <rect width="229.6" height="16.8" x="25.2" y="75.2"/>
      <rect width="99.2" height="16.8" x="25.2" y="112"/>
      <rect width="99.2" height="16.8" x="25.2" y="148.4"/>
      <rect width="99.2" height="16.8" x="25.2" y="184.4"/>
    </g>
    <path fill="#FF7058" d="M352.4,282.4 L352.4,282.4 C355.2,279.6 355.2,275.6 352.4,272.8 L352.4,272.8 C350.4,270.8 350,268 350.8,265.6 L350.8,265.6 C352.4,262 350.4,258 347.2,256.8 L347.2,256.8 C344.8,255.6 343.2,253.2 343.2,250.4 L343.2,250.4 C343.2,246.8 340,243.6 336.4,243.6 L336.4,243.6 C333.6,243.6 331.2,242 330,239.6 L330,239.6 C328.4,236 324.8,234.4 321.2,236 L321.2,236 C318.8,237.2 315.6,236.4 314,234.4 L314,234.4 C311.2,231.6 307.2,231.6 304.4,234.4 L304.4,234.4 C302.4,236.4 299.6,236.8 297.2,236 L297.2,236 C293.6,234.4 289.6,236.4 288.4,239.6 L288.4,239.6 C287.2,242 284.8,243.6 282,243.6 L282,243.6 C278.4,243.6 275.2,246.8 275.2,250.4 L275.2,250.4 C275.2,253.2 273.6,255.6 271.2,256.8 L271.2,256.8 C267.6,258.4 266,262 267.6,265.6 L267.6,265.6 C268.8,268 268,271.2 266,272.8 L266,272.8 C263.2,275.6 263.2,279.6 266,282.4 L266,282.4 C268,284.4 268.4,287.2 267.6,289.6 L267.6,289.6 C266,293.2 268,297.2 271.2,298.4 L271.2,298.4 C273.6,299.6 275.2,302 275.2,304.8 L275.2,304.8 C275.2,308.4 278.4,311.6 282,311.6 L282,311.6 C284.8,311.6 287.2,313.2 288.4,315.6 L288.4,315.6 C290,319.2 293.6,320.8 297.2,319.2 L297.2,319.2 C299.6,318 302.8,318.8 304.4,320.8 L304.4,320.8 C307.2,323.6 311.2,323.6 314,320.8 L314,320.8 C316,318.8 318.8,318.4 321.2,319.2 L321.2,319.2 C324.8,320.8 328.8,318.8 330,315.6 L330,315.6 C331.2,313.2 333.6,311.6 336.4,311.6 L336.4,311.6 C340,311.6 343.2,308.4 343.2,304.8 L343.2,304.8 C343.2,302 344.8,299.6 347.2,298.4 L347.2,298.4 C350.8,296.8 352.4,293.2 350.8,289.6 L350.8,289.6 C350,287.2 350.4,284.4 352.4,282.4 Z"/>
    <circle cx="308.8" cy="277.6" r="34.4" fill="#FFD05B"/>
    <circle cx="308.8" cy="277.6" r="30" fill="#FF7058"/>
  </g>
</svg>
