<svg xmlns="http://www.w3.org/2000/svg" width="509" height="508" viewBox="0 0 509 508">
  <g fill="none" transform="translate(.829)">
    <circle cx="254" cy="254" r="254" fill="#E3A900"/>
    <path fill="#FFD05B" d="M312,204.8 C238.8,204.8 179.6,248 179.6,301.2 C179.6,324.4 191.2,346 210,362.8 C200.4,370.4 188.8,378.4 177.2,383.2 C170,386 170.4,396.8 178,398.8 C184.8,400.8 192,402 199.2,402.4 C218.4,403.6 243.2,402.4 264,390.8 C278.8,395.2 295.2,397.6 312,397.6 C385.2,397.6 444.4,354.4 444.4,301.2 C444.4,248 385.2,204.8 312,204.8 Z"/>
    <g fill="#324A5E" transform="translate(227 284)">
      <circle cx="143" cy="19.2" r="19.2"/>
      <circle cx="81.4" cy="19.2" r="19.2"/>
      <circle cx="19.4" cy="19.2" r="19.2"/>
    </g>
    <path fill="#FFF" d="M330,109.2 C323.2,107.2 316,106 308.8,105.6 C289.6,104.4 264.8,105.6 244,117.2 C229.2,112.8 212.8,110.4 196,110.4 C122.8,110.4 63.6,153.6 63.6,206.8 C63.6,260 122.8,303.2 196,303.2 C269.2,303.2 328.4,260 328.4,206.8 C328.4,183.6 316.8,162 298,145.2 C307.6,137.6 319.2,129.6 330.8,124.8 C338,122 337.6,111.2 330,109.2 Z"/>
    <g fill="#84DBFF" transform="translate(109 185)">
      <circle cx="143.4" cy="19.8" r="19.2"/>
      <circle cx="81.8" cy="19.8" r="19.2"/>
      <circle cx="19.8" cy="19.8" r="19.2"/>
    </g>
  </g>
</svg>
