<svg xmlns="http://www.w3.org/2000/svg" width="508" height="508" viewBox="0 0 508 508">
  <g fill="none">
    <circle cx="254" cy="254" r="254" fill="#E3A900"/>
    <path fill="#E3A900" d="M74,433.2 C120,479.6 183.6,508 254,508 C324.4,508 388,479.2 434,433.2 L74,433.2 Z"/>
    <path fill="#2B3B4E" d="M338.8,431.2 L173.2,431.2 L173.2,431.2 C173.2,419.2 183.2,409.2 195.2,409.2 L316.8,409.2 C328.8,409.2 338.8,419.2 338.8,431.2 L338.8,431.2 Z"/>
    <polygon fill="#324A5E" points="298.8 409.2 212.8 409.2 193.2 347.2 318.8 347.2"/>
    <polygon fill="#2B3B4E" points="308.4 379.2 318.8 347.2 193.2 347.2 203.2 379.2"/>
    <path fill="#324A5E" d="M421.2,369.2 L86.8,369.2 C77.6,369.2 70.4,362 70.4,352.8 L70.4,140.4 C70.4,131.2 77.6,124 86.8,124 L421.2,124 C430.4,124 437.6,131.2 437.6,140.4 L437.6,352.8 C437.6,361.6 430.4,369.2 421.2,369.2 Z"/>
    <rect width="338.8" height="200.8" x="84.4" y="137.2" fill="#54C0EB"/>
    <polygon fill="#84DBFF" points="382 137.2 84.4 137.2 84.4 338 206 338"/>
  </g>
</svg>
