<svg xmlns="http://www.w3.org/2000/svg" width="508" height="508" viewBox="0 0 508 508">
  <g fill="none">
    <circle cx="254" cy="254" r="254" fill="#E3A900"/>
    <path fill="#E3A900" d="M58.4,416 C104.8,472.4 175.2,508 254,508 C332.8,508 403.2,472 449.6,416 L58.4,416 Z"/>
    <path fill="#CED5E0" d="M342,409.6 C339.6,409.6 337.6,408 336.8,405.6 L311.6,312.4 C309.2,303.2 300.4,296.4 290.8,296.4 L216.8,296.4 C207.2,296.4 198.4,302.8 196,312.4 L170.8,406 C170,408.8 167.2,410.4 164.4,409.6 C161.6,408.8 160,406 160.8,403.2 L186,310 C189.6,296 202.4,286.4 216.8,286.4 L291.2,286.4 C305.6,286.4 318.4,296 322,310 L347.2,403.2 C348,406 346.4,408.8 343.6,409.6 C342.8,409.6 342.4,409.6 342,409.6 Z"/>
    <g fill="#E6E9EE" transform="translate(176 318)">
      <path d="M15.2 20.4L20 2.8C20.4 1.6 19.2-5.68434189e-14 18-5.68434189e-14L7.2-5.68434189e-14C6.4-5.68434189e-14 5.6.8 5.2 1.6L.4 19.2C-2.84217094e-14 20.4 1.2 22 2.4 22L13.2 22C14.4 22 15.2 21.2 15.2 20.4zM155.6 19.2L150.8 1.6C150.4.8 149.6-5.68434189e-14 148.8-5.68434189e-14L138-5.68434189e-14C136.8-5.68434189e-14 135.6 1.2 136 2.8L140.8 20.4C141.2 21.2 142 22 142.8 22L153.6 22C154.8 22 156 20.8 155.6 19.2z"/>
    </g>
    <g fill="#4CDBC4" transform="translate(153 381)">
      <path d="M193.8 35L186.6 35C182.6 35 179.4 32.2 179 28.6L174.6.6 191 .6 201 24.2C203 29.4 199.4 35 193.8 35zM8.2 35L15.4 35C19.4 35 22.6 32.2 23 28.6L27.4.6 11 .6 1 24.2C-1 29.4 2.6 35 8.2 35z"/>
    </g>
    <g fill="#CED5E0" transform="translate(218 176)">
      <rect width="8.4" height="116" x="63.2" y=".4"/>
      <rect width="8.4" height="116" x=".4" y=".4"/>
    </g>
    <path fill="#FF7058" d="M312,197.6 C274,207.6 234.4,207.6 196,197.6 C188.4,195.6 183.6,188 185.2,181.6 C189.2,164.8 192.8,148 196.8,131.2 C198.4,124.4 204.4,120.8 210,122 C239.2,129.6 269.2,129.6 298,122 C303.6,120.4 309.6,124.4 311.2,131.2 C315.2,148 318.8,164.8 322.8,181.6 C324.4,188 319.6,195.6 312,197.6 Z"/>
    <path fill="#FFD05B" d="M426.8,254 L81.2,254 C77.6,254 74.4,250.8 74.4,247.2 L74.4,235.6 C74.4,232 77.6,228.8 81.2,228.8 L426.8,228.8 C430.4,228.8 433.6,232 433.6,235.6 L433.6,247.2 C433.6,250.8 430.4,254 426.8,254 Z"/>
    <g fill="#CED5E0" transform="translate(100 254)">
      <rect width="10.8" height="162" x="297.2"/>
      <rect width="10.8" height="162"/>
    </g>
    <path fill="#FF7058" d="M254,300 C227.2,300 200.8,296.4 174.8,289.2 C168.4,287.6 164.8,280.8 166.4,274.4 C168,268 174.8,264.4 181.2,266 C228.8,279.2 279.2,279.2 326.8,266 C333.2,264.4 340,268 341.6,274.4 C343.2,280.8 339.6,287.6 333.2,289.2 C307.2,296.4 280.8,300 254,300 Z"/>
  </g>
</svg>
