<svg xmlns="http://www.w3.org/2000/svg" width="509" height="509" viewBox="0 0 509 509">
  <g fill="none" transform="translate(.916 .5)">
    <circle cx="254" cy="254" r="254" fill="#E3A900"/>
    <path fill="#FFF" d="M408,373.2 L92.4,373.2 C86,373.2 81.2,368 81.2,362 L81.2,140.8 C81.2,134.4 86.4,129.6 92.4,129.6 L408,129.6 C414.4,129.6 419.2,134.8 419.2,140.8 L419.2,362 C419.2,368 414.4,373.2 408,373.2 Z"/>
    <path fill="#E6E9EE" d="M372.4,353.6 L128,353.6 C126,353.6 124.4,352 124.4,350 C124.4,339.2 115.6,330.4 104.8,330.4 C102.8,330.4 101.2,328.8 101.2,326.8 L101.2,176 C101.2,174 102.8,172.4 104.8,172.4 C115.6,172.4 124.4,163.6 124.4,152.8 C124.4,150.8 126,149.2 128,149.2 L372.4,149.2 C374.4,149.2 376,150.8 376,152.8 C376,163.6 384.8,172.4 395.6,172.4 C397.6,172.4 399.2,174 399.2,176 L399.2,326.4 C399.2,328.4 397.6,330 395.6,330 C384.8,330 376,338.8 376,349.6 C376,351.6 374.4,353.6 372.4,353.6 Z M131.2,346 L368.8,346 C370.4,334 380,324.4 392,322.8 L392,179.6 C380,178 370.4,168.4 368.8,156.4 L131.2,156.4 C129.6,168.4 120,178 108,179.6 L108,323.2 C120.4,324.8 129.6,334 131.2,346 Z"/>
    <rect width="128" height="17.6" x="186" y="175.2" fill="#84DBFF"/>
    <g fill="#E6E9EE" transform="translate(135 211)">
      <rect width="218" height="11.2" x=".2" y=".2"/>
      <rect width="218" height="11.2" x=".2" y="23.4"/>
      <rect width="160.4" height="11.2" x="29" y="47"/>
    </g>
    <polygon fill="#2B3B4E" points="298.8 326.4 318 336 271.2 429.6 259.2 406 233.2 410.4 280 316.8"/>
    <polygon fill="#324A5E" points="310 338.8 290.8 348.4 337.6 442 349.6 418.8 375.6 423.2 328.8 329.6"/>
    <path fill="#FF7058" d="M377.6,304.8 L377.6,304.8 C382,300.4 382,293.2 377.6,288.8 L377.6,288.8 C374.4,285.6 373.2,280.8 375.2,276.4 L375.2,276.4 C377.6,270.4 374.8,264 369.2,261.6 L369.2,261.6 C364.8,260 362,255.6 362,251.2 L362,251.2 C362,244.8 356.8,239.6 350.4,239.6 L350.4,239.6 C345.6,239.6 341.6,236.8 340,232.4 L340,232.4 C337.6,226.4 330.8,224 325.2,226.4 L325.2,226.4 C320.8,228 316,227.2 312.8,224 L312.8,224 C308.4,219.6 301.2,219.6 296.8,224 L296.8,224 C293.6,227.2 288.8,228.4 284.4,226.4 L284.4,226.4 C278.4,224 272,226.8 269.6,232.4 L269.6,232.4 C268,236.8 263.6,239.6 259.2,239.6 L259.2,239.6 C252.8,239.6 247.6,244.8 247.6,251.2 L247.6,251.2 C247.6,256 244.8,260 240.4,261.6 L240.4,261.6 C234.4,264 232,270.8 234.4,276.4 L234.4,276.4 C236,280.8 235.2,285.6 232,288.8 L232,288.8 C227.6,293.2 227.6,300.4 232,304.8 L232,304.8 C235.2,308 236.4,312.8 234.4,317.2 L234.4,317.2 C232,323.2 234.8,329.6 240.4,332 L240.4,332 C244.8,333.6 247.6,338 247.6,342.4 L247.6,342.4 C247.6,348.8 252.8,354 259.2,354 L259.2,354 C264,354 268,356.8 269.6,361.2 L269.6,361.2 C272,367.2 278.8,369.6 284.4,367.2 L284.4,367.2 C288.8,365.6 293.6,366.4 296.8,369.6 L296.8,369.6 C301.2,374 308.4,374 312.8,369.6 L312.8,369.6 C316,366.4 320.8,365.2 325.2,367.2 L325.2,367.2 C331.2,369.6 337.6,366.8 340,361.2 L340,361.2 C341.6,356.8 346,354 350.4,354 L350.4,354 C356.8,354 362,348.8 362,342.4 L362,342.4 C362,337.6 364.8,333.6 369.2,332 L369.2,332 C375.2,329.6 377.6,322.8 375.2,317.2 L375.2,317.2 C373.2,313.2 374.4,308 377.6,304.8 Z"/>
    <circle cx="304.4" cy="296.8" r="53.2" fill="#FFF"/>
    <circle cx="304.4" cy="296.8" r="46.8" fill="#FF7058"/>
  </g>
</svg>
