<svg xmlns="http://www.w3.org/2000/svg" width="508" height="509" viewBox="0 0 508 509">
  <g fill="none" transform="translate(0 .795)">
    <circle cx="254" cy="254" r="254" fill="#E3A900"/>
    <path fill="#E3A900" d="M79.6,438.4 C125.2,481.6 186.4,508 254,508 C321.6,508 383.2,481.6 428.4,438.4 L79.6,438.4 Z"/>
    <path fill="#FFF" d="M315.2,424 L315.2,423.2 C314.8,423.2 314.4,423.2 314,423.2 C312.8,422.4 311.2,422 310,422 L303.2,422 C272.8,415.2 265.2,377.2 263.6,350.4 L244.8,350.4 C243.2,377.6 235.6,415.2 205.2,422 L198,422 C196.4,422 195.2,422.4 194,423.2 C193.6,423.2 193.2,423.2 192.8,423.2 L192.8,424 C190.8,425.6 189.6,428 189.6,430.4 C189.6,435.2 193.2,438.8 198,438.8 L310,438.8 C314.8,438.8 318.4,435.2 318.4,430.4 C318.4,427.6 317.2,425.6 315.2,424 Z"/>
    <path fill="#2B3B4E" d="M126.4,321.6 C125.2,321.6 124,321.2 122.8,320 C120.8,318 120.8,314.8 122.8,312.8 L349.2,86.4 C351.2,84.4 354.4,84.4 356.4,86.4 C358.4,88.4 358.4,91.6 356.4,93.6 L130,320 C128.8,320.8 127.6,321.6 126.4,321.6 Z"/>
    <circle cx="239.6" cy="203.2" r="116.4" fill="#FFF"/>
    <path fill="#324A5E" d="M239.6,356.4 C198.8,356.4 160.4,340.4 131.2,311.6 C128.8,309.2 126.4,306.4 123.6,303.2 C121.2,300.4 121.6,296 124.4,293.6 C127.2,291.2 131.6,291.6 134,294.4 C136.4,297.2 138.8,299.6 140.8,302 C167.2,328.4 202,342.8 239.2,342.8 C276.4,342.8 311.6,328.4 337.6,302 C392,247.6 392,159.2 337.6,104.8 C335.6,102.8 333.2,100.4 330,98 C327.2,95.6 326.8,91.2 329.2,88.4 C331.6,85.6 336,85.2 338.8,87.6 C342,90.4 344.8,92.8 347.2,95.2 C406.8,154.8 406.8,252 347.2,311.6 C318.8,340.4 280.4,356.4 239.6,356.4 Z"/>
    <g fill="#84DBFF" transform="translate(123 89)">
      <path d="M59 105.4C59.4 103.4 61.8 102.6 63 101 64.6 98.6 62.6 95.4 61 92.6 59.4 90.2 58.2 86.2 61 84.6 59 82.2 57.8 79 56.6 76.2 55 73.4 52.6 70.6 49.4 71 47 71 45 73 43 74.2 40.2 75.8 37 76.2 34.2 77.4 31.4 78.6 28.2 80.6 27.8 83.8 27.4 87 29.4 90.2 27.8 93 26.2 96.2 21 97.8 22.2 101 22.6 101.8 23 102.6 23.4 103 24.6 105.4 21.8 108.2 19.8 109.8L.6 125C1 129 1.4 133.4 2.6 137.4 3 137.4 3 137.4 3.4 137.4 5.8 137.4 9 135.8 11 137.8 11.4 138.6 12.2 139.4 13 139.4 13.4 139.4 13.8 139 14.2 138.6 15 137 15.8 135 15.8 133 18.6 135.8 21.4 138.6 24.2 141.4 28.6 139.8 29.8 133.4 34.2 132.2 39 131 43.8 136.2 48.2 134.6 51.4 133.4 53 129.4 55.8 127.4 59 125 63.8 125.4 68.2 126.2 69 120.6 67 114.6 63 110.6 60.6 109 58.2 107.4 59 105.4zM101 37.4C101.4 34.6 97.4 32.6 95.4 34.2 95 33.8 94.2 33.4 93.8 33 95.8 29.8 100.6 31 103.4 33.4 106.2 35.8 108.2 39.4 111.4 41 113.8 41 115 37.8 115.4 35.4 115.4 33 115 30.2 116.6 28.2 117 27.4 117.8 26.6 118.2 25.8 119 22.6 114.2 21.4 113 18.6 112.2 16.2 113.4 13.8 114.2 11.4 115 9 114.6 5.8 112.2 5.4 109 10.2 100.2 9.4 98.2 14.6 97.4 17.4 98.2 21 95.4 22.2 93.4 23 91.4 20.6 91 18.2 91 15.8 91.8 13.8 91.8 11.4 91.8 10.2 91.4 9.4 91.4 8.2 91.4 6.6 92.6 4.6 93 3 93.4 2.2 93.4 1.4 93 .6 71.4 5 51 15.8 34.6 32.2 33.8 33 33 34.2 31.8 35 32.2 40.6 37 46.2 38.6 52.2 39.4 54.6 39.4 57 40.2 59.4 41 61.8 42.6 63.8 45 64.2 47 61.8 47.4 58.2 45.4 55.8 47 55 48.6 54.6 49.4 53 50.2 51.8 50.2 49.4 48.6 49 47.8 48.6 46.6 49 45.4 49 42.2 49 40.2 45.4 38.6 42.2 45 39.8 52.6 42.2 56.2 47.8 55.4 47 55 45.8 54.2 45 59.4 43.4 65 42.6 70.2 43 71.8 43 73.4 43.4 74.6 42.6 76.6 41.8 77.8 39.4 79.8 39.4 81.4 39.4 82.6 40.2 84.2 40.6 90.2 41.8 96.2 34.2 101 37.4zM140.6 37.8C143.8 39.4 148.2 38.2 150.6 35.8 151.4 35 152.2 34.6 153 34.6 154.2 34.6 155.4 35.8 156.2 37 160.6 42.6 168.2 45.8 175.4 44.2 175.8 41.8 172.2 40.6 172.2 38.2 172.2 36.2 175 35.4 177 36.2 179 37 180.2 39 181.8 39.8 183.8 40.6 186.6 40.2 188.2 39 189.8 37.4 190.6 35 189.8 33 189.4 32.2 189 31 189.4 30.2 189.8 29 191.4 29.4 192.6 29.4 194.2 29.8 195.8 30.2 197.4 30.6 183.4 17 167.4 7.8 149.8 2.6L149.8 3C148.6 6.6 146.6 9.8 145.4 13 144.2 17 143.8 21.8 141 25 139.8 26.2 138.6 27 137.8 28.6 135.8 31.8 137.4 36.2 140.6 37.8zM226.2 110.6C223 108.6 220.2 104.6 220.6 100.6 220.6 99 221 97.8 221 96.2 220.6 93.8 219 92.2 217.8 90.6 214.6 87.4 211.4 84.6 208.2 81.8 204.2 78.6 198.6 76.2 195 79.4 194.2 80.2 193.8 81 193 81.8 191 83 188.6 82.2 186.6 81.4 184.6 80.6 181.4 81 181 83.4 180.6 86.2 184.6 87.4 185.4 90.2 185.8 91 185.4 91.8 185.8 92.6 186.2 96.6 192.2 98.2 194.6 95 196.2 92.6 196.6 88.6 199.4 88.6 202.2 89.8 204.2 93 204.2 95.8 203.4 93.8 200.2 94.6 199 96.2 197.8 97.8 197.4 100.2 196.2 101.4 193.4 104.2 188.6 103.4 185 101.8 177 99 169.4 96.2 161.4 93.4 160.6 93 159.4 92.6 158.6 93 157.4 93.4 157 95 155.8 95.8 154.2 97 151.8 96.6 150.2 95.4 148.6 94.2 147 93 145 92.2 143 91.4 140.6 92.6 140.2 94.6 140.2 95.4 140.2 96.2 140.6 97 144.2 103.8 153 105 159 109.4 159.4 106.6 163.4 106.2 165.8 107.4 168.2 109 169 111.8 169.4 114.6 169.8 117.4 169.8 120.2 171.4 122.6 173.4 126.2 178.6 127.8 182.2 126.2 184.6 125 187.4 123 189.4 124.6 191.4 126.2 189.8 129.4 190.6 131.8 191 132.6 191.8 133.4 191.8 134.6 192.2 136.6 189 137.8 187 137 185 136.2 183.8 134.2 182.2 132.6 180.6 131 178.6 129.4 176.6 130.2 174.2 129.8 172.6 133 173.4 135.4 174.2 137.8 176.6 139 178.6 140.2 178.2 142.2 176.2 143 174.2 143 172.2 143 170.6 142.2 169 141.4 164.2 139 158.6 135.4 158.2 130.2 158.2 128.6 158.6 127 158.2 125 157.8 119.8 153.8 115.8 149.8 112.6 143 109 136.2 105 128.6 105.8 125.8 106.2 123 107.4 120.6 108.6 115.8 111 111 114.2 107 117.8 104.2 120.6 101.4 123.8 101 127.8 100.6 133 104.6 137.4 108.6 140.6 112.6 143.8 117.4 147 119.4 151.8 115.8 153 115.4 157.8 114.2 161.4 111.4 169.4 101 172.6 96.6 180.2 94.2 184.2 93.8 189.4 91 193 89.8 194.6 88.6 195.8 87.8 197.8 85.4 203 90.6 209.4 96.6 210.2 102.6 211 108.2 207.8 113 204.2 114.2 203.4 115.4 202.2 117 201.8 118.2 201.4 119.4 201.4 120.6 201.4 123.4 201.4 126.2 201 129 201 127.8 201 127.4 199 128.2 198.2 129 197.4 130.2 197 131 196.2 135 194.2 137.4 190.2 139 186.2 141 190.2 147 189.4 151.4 187.8 155.4 186.2 159.8 185 163.8 183.4 161 183.8 158.2 181.4 157 178.6 156.2 175.8 156.6 172.6 157.8 169.8 159 167.4 160.6 165 161.4 162.2 162.2 159.4 162.2 156.6 163 154.2 163.8 151.4 165 148.6 167.8 147.8 169 153.4 168.2 159 165.8 164.2 163.8 168.2 161 173 163.8 176.2 165 177.8 167 178.2 169 178.6 173.8 179.4 178.6 180.2 183 181 181.4 175 180.6 168.6 180.6 162.6 180.6 161 181 159.4 182.2 159 184.2 166.2 187 173 191.4 179 192.2 179.8 192.6 181 193 182.2 193 183.4 193 184.2 192.6 185.4 191 190.6 188.2 195 187.8 200.2 187.8 202.6 188.2 205.4 187.4 207.8 191.4 204.6 195.4 201 199.4 197.4 222.6 174.2 233.8 144.2 233.4 113.8 230.6 112.6 228.2 111.8 226.2 110.6z"/>
      <path d="M137 204.2C135.4 205.8 133.4 206.2 131 205.8 129.8 205.4 128.6 205 127.4 205 125.8 205.4 125 206.6 123.8 207.8 122.6 209.4 121.4 211.4 119.8 213 119.4 213.4 119 214.2 119 215 119 216.6 121 217 122.2 217 123.8 216.6 125 215.8 126.2 215.4 127.8 215 129 215.4 130.6 215 132.6 214.6 134.2 213 135.4 211.8 136.6 210.6 137.4 209.4 137.8 208.2 139 206.6 138.6 204.6 137 204.2zM163.8 51.4C162.2 52.2 162.6 54.2 163 55.8L163 55C163.4 57 165.4 59 167.8 59 169.8 59.4 172.2 58.2 173.4 56.2 171 54.6 168.6 53.4 166.2 51.8 165.8 51.8 164.6 51 163.8 51.4z"/>
    </g>
  </g>
</svg>
