<svg xmlns="http://www.w3.org/2000/svg" width="508" height="508" viewBox="0 0 508 508">
  <g fill="none">
    <circle cx="254" cy="254" r="254" fill="#E3A900"/>
    <g fill="#2B3B4E" transform="translate(74 114)">
      <path d="M282.4 134.8C287.2 134.8 292.4 134.4 297.6 134 302.8 133.6 307.6 132.8 312.8 132 317.6 130.8 322.8 129.6 327.6 128 328.8 127.6 330 127.2 331.2 126.4 332.4 126 333.6 125.2 334.8 124.8 336 124 337.2 123.6 338 122.8L341.2 120.8 342.4 120 342.8 121.2C343.2 122 343.6 122.8 344 123.6 344.4 124.4 344.8 124.8 345.6 125.6 346.8 126.8 348 128 349.6 128.4 352.4 130 356.4 130 359.6 128.8 356.4 130.4 352.8 130.8 349.2 129.6 347.6 128.8 346 128 344.4 126.8 343.6 126 343.2 125.6 342.4 124.8 342 124 341.2 123.2 340.8 122.8L342.8 123.2 339.6 126C338.8 126.8 337.6 127.6 336.4 128.4 335.2 129.2 334 130 333.2 130.4 332 131.2 330.8 132 329.6 132.4 324.8 134.8 320 136.8 314.8 138.4 309.6 140 304.4 141.6 299.2 142.4 294 143.6 288.8 144.4 283.2 145.2L282.4 134.8zM278 193.6C282.4 195.6 287.2 197.2 292 198.8 296.8 200.4 301.6 201.6 306.8 202.8 309.2 203.2 311.6 203.6 314.4 204 316.8 204.4 319.2 204.4 322 204.8 323.2 204.8 324.4 204.8 325.6 204.8 326.8 204.8 328 204.8 329.2 204.4 330.4 204.4 331.6 204.4 332.8 204L336.4 203.2 338 202.8 338 204C338 204.8 338.4 205.6 338.4 206.4 338.4 207.2 338.8 208 339.2 208.8 340 210.4 340.8 212 342 213.2 344.4 215.6 347.6 217.6 351.2 217.6 347.6 218 344 216.8 341.2 214.4 340 213.2 338.8 211.6 337.6 210 337.2 209.2 336.8 208.4 336.4 207.2 336 206.4 336 205.6 335.6 204.4L337.2 205.2 333.6 206.4C332.4 206.8 331.2 207.2 329.6 207.2 328.4 207.6 326.8 207.6 325.6 208 324.4 208 322.8 208.4 321.6 208.4 318.8 208.8 316.4 208.8 313.6 208.8 310.8 208.8 308.4 208.8 305.6 208.4 300.4 208 295.2 207.2 290 206 284.8 204.8 279.6 204 274.4 202.4L278 193.6zM265.6 260C269.2 263.6 273.2 266.8 277.2 270 281.2 273.2 285.6 276.4 290 279.2 294.4 282 298.8 284.4 303.6 286.8 306 288 308.4 288.8 310.8 289.6 312 290 313.2 290.4 314.4 290.4L318 291.2 319.6 291.6 319.6 292.8C319.2 294.8 319.2 296.4 319.2 298 319.2 299.6 320 301.6 320.4 303.2 322 306.4 324.4 309.2 328 310.8 324.4 310 321.2 307.2 319.6 304 318.8 302.4 318 300.4 317.6 298.8 317.2 298 317.2 296.8 317.2 296 317.2 295.2 317.2 294 317.2 293.2L318.4 294.4 314.4 294.4C313.2 294.4 311.6 294 310.4 294 307.6 293.6 305.2 292.8 302.4 292 297.2 290.4 292 288.4 287.2 286 282.4 283.6 277.6 280.8 273.2 278 268.4 275.2 264 272 259.6 268.8L265.6 260zM77.2 144.4C71.6 144 66.4 142.8 61.2 141.6 56 140.4 50.8 139.2 45.6 137.6 40.4 136 35.6 134 30.8 131.6 29.6 131.2 28.4 130.4 27.2 129.6 26 128.8 24.8 128.4 24 127.6 22.8 126.8 21.6 126 20.8 125.2L17.6 122.4 19.6 122C19.2 122.8 18.4 123.6 18 124 17.2 124.8 16.8 125.6 16 126 14.8 127.2 13.2 128 11.2 128.8 7.6 130 4 129.6.8 128 4 129.2 7.6 129.2 10.8 127.6 12.4 126.8 13.6 126 14.8 124.8 15.2 124 16 123.6 16.4 122.8 16.8 122 17.2 121.2 17.6 120.4L18 119.2 19.2 120 22.4 122C23.6 122.8 24.8 123.2 25.6 124 26.8 124.8 28 125.2 29.2 125.6 30.4 126 31.6 126.8 32.8 127.2 37.6 129.2 42.4 130.4 47.6 131.2 52.4 132.4 57.6 132.8 62.8 133.2 68 133.6 73.2 134 78 134L77.2 144.4zM85.2 202.8C80 204.4 74.8 205.6 69.6 206.4 64.4 207.2 59.2 208.4 54 208.8 51.2 209.2 48.8 209.2 46 209.2 43.2 209.2 40.8 209.2 38 208.8 36.8 208.8 35.2 208.4 34 208.4 32.8 208.4 31.2 208 30 207.6 28.8 207.2 27.2 207.2 26 206.8L22.4 205.6 24 204.8C23.6 205.6 23.6 206.4 23.2 207.6 22.8 208.4 22.4 209.2 22 210.4 21.2 212 20 213.6 18.4 214.8 15.6 217.2 12 218.8 8.4 218 12 218 15.2 216.4 17.6 213.6 18.8 212.4 19.6 210.8 20.4 209.2 20.8 208.4 20.8 207.6 21.2 206.8 21.2 206 21.6 205.2 21.6 204.4L21.6 203.2 23.2 203.6 26.8 204.4C28 204.8 29.2 204.8 30.4 204.8 31.6 204.8 32.8 205.2 34 205.2 35.2 205.2 36.4 205.2 37.6 205.2 40 205.2 42.8 204.8 45.2 204.4 47.6 204 50 203.6 52.8 203.2 57.6 202.4 62.8 200.8 67.6 199.2 72.4 197.6 77.2 196 81.6 194L85.2 202.8zM100.8 267.6C96.4 270.8 92 274 87.2 276.8 82.4 279.6 78 282.4 73.2 284.8 68.4 287.2 63.2 289.2 58 290.8 55.6 291.6 52.8 292.4 50 292.8 48.8 292.8 47.2 293.2 46 293.2L42 293.2 43.2 292C43.2 292.8 43.2 294 43.2 294.8 43.2 296 42.8 296.8 42.8 297.6 42.4 299.6 41.6 301.2 40.8 302.8 38.8 306 35.6 308.8 32.4 309.6 36 308.4 38.4 305.2 40 302 40.8 300.4 41.2 298.8 41.2 296.8 41.2 295.2 41.2 293.2 40.8 291.6L40.8 290.4 42.4 290 46 289.2C47.2 288.8 48.4 288.4 49.6 288.4 52 287.6 54.4 286.8 56.8 285.6 61.6 283.6 66 280.8 70.4 278 74.8 275.2 78.8 272 83.2 268.8 87.2 265.6 91.2 262 94.8 258.8L100.8 267.6z"/>
      <ellipse cx="180" cy="44" rx="69.2" ry="43.6"/>
    </g>
    <g fill="#E6E9EE" transform="translate(208 118)">
      <ellipse cx="80.8" cy="11.6" rx="10.4" ry="11.2"/>
      <ellipse cx="11.2" cy="11.6" rx="10.4" ry="11.2"/>
    </g>
    <path fill="#F1543F" d="M375.2,298.4 C375.2,374.4 320.8,436.4 254,436.4 C187.2,436.4 132.8,374.8 132.8,298.4 C132.8,268.8 140.8,241.2 154.8,218.8 C176.8,183.6 212.8,160.4 254,160.4 C295.2,160.4 331.2,183.6 353.2,218.8 C367.2,241.6 375.2,268.8 375.2,298.4 Z"/>
    <path fill="#FF7058" d="M375.2,298.4 C375.2,373.2 322.8,434.4 257.2,436.4 L257.2,222.8 L250.4,222.8 L250.4,436 C185.2,434 132.8,373.2 132.8,298.4 C132.8,268.8 140.8,241.2 154.8,218.8 C176.8,183.6 212.8,160.4 254,160.4 C295.2,160.4 331.2,183.6 353.2,218.8 C367.2,241.2 375.2,268.4 375.2,298.4 Z"/>
    <path fill="#324A5E" d="M353.2,219.2 C332,234.8 295.6,245.2 254,245.2 C212.4,245.2 176,234.8 154.8,219.6 C176.8,184.4 212.8,161.2 254,161.2 C295.2,161.2 331.2,183.6 353.2,219.2 Z"/>
    <g fill="#FFF" transform="translate(158 254)">
      <circle cx="176" cy="16" r="15.6"/>
      <circle cx="176" cy="89.2" r="15.6"/>
      <circle cx="130.8" cy="60" r="15.6"/>
      <circle cx="130.8" cy="133.2" r="15.6"/>
      <circle cx="16" cy="16" r="15.6"/>
      <circle cx="16" cy="89.2" r="15.6"/>
      <circle cx="61.2" cy="60" r="15.6"/>
      <circle cx="61.2" cy="133.2" r="15.6"/>
    </g>
    <g fill="#2B3B4E" transform="translate(207 71)">
      <path d="M93.4.6C93.4.6 93.4 1.8 93.4 3.8 93 5.8 93 9 92.2 12.2 91.8 13.8 91 15.8 90.6 17.8 89.8 19.8 89 21.8 88.2 23.8 86.2 27.8 83.4 31.8 80.6 35.8 79 37.8 77.4 39.4 75.8 41 74.2 42.6 72.6 44.2 70.6 45.8 67 48.6 63.8 51 60.6 53 57.8 55 55 56.2 53 57 51 57.8 50.2 58.2 50.2 58.2 50.2 58.2 51 57.4 52.6 56.2 54.2 55 56.6 53.4 59.4 51 60.6 49.8 62.2 48.6 63.8 47.4 65.4 46.2 66.6 44.6 68.2 43 69.8 41.4 71.4 39.8 72.6 38.2 74.2 36.6 75.4 34.6 77 33 78.2 31 79.8 29.4 81 27.4 82.2 25.4 83.4 23.8 84.6 21.8 86.6 18.2 88.6 14.6 89.8 11.4 91 8.2 92.2 5.4 92.6 3.4 93.4 1.8 93.4.6 93.4.6zM.6.6C.6.6 1 1.8 1.4 3.8 1.8 5.8 3 8.6 4.2 11.8 5.4 15 7.4 18.6 9.4 22.2 10.2 24.2 11.8 25.8 13 27.8 14.2 29.8 15.8 31.4 17 33.4 18.6 35 19.8 37 21.4 38.6 23 40.2 24.6 41.8 25.8 43.4 27.4 45 29 46.2 30.2 47.8 31.8 49 33 50.2 34.6 51.4 37.4 53.8 39.8 55.4 41.4 56.6 43 57.8 43.8 58.6 43.8 58.6 43.8 58.6 42.6 58.2 41 57.4 39.4 56.2 36.2 55.4 33.4 53.4 30.2 51.4 27 49 23.4 46.2 21.8 44.6 20.2 43 18.2 41.4 16.6 39.8 15 37.8 13.4 36.2 10.6 32.2 7.8 28.2 5.8 24.2 4.6 22.2 3.8 20.2 3.4 18.2 2.6 16.2 2.2 14.2 1.8 12.6 1 9 .6 6.2.6 4.2.2 1.8.6.6.6.6z"/>
    </g>
  </g>
</svg>
