<svg xmlns="http://www.w3.org/2000/svg" width="508" height="508" viewBox="0 0 508 508">
  <g fill="none">
    <circle cx="254" cy="254" r="254" fill="#E3A900"/>
    <path fill="#E3A900" d="M79.2,438.4 C124.8,481.6 186,508 254,508 C322,508 383.2,481.6 428.8,438.4 L79.2,438.4 Z"/>
    <ellipse cx="254" cy="240.8" fill="#F9B54C" rx="26.4" ry="45.2"/>
    <path fill="#FF7058" d="M347.2,392 C351.6,374 354.4,356 354.4,339.2 C354.4,268 309.6,246 254,246 C198.8,246 153.6,267.6 153.6,339.2 C153.6,356 156,374 160.8,392 L347.2,392 Z"/>
    <g fill="#FFF" transform="translate(220 238)">
      <path d="M60 .4C60 .4 44.8 9.6 34 9.6L48 40 68 11.6 60 .4zM8 .4C8 .4 23.2 9.6 34 9.6L20 40 0 11.6 8 .4z"/>
    </g>
    <path fill="#324A5E" d="M327.2,111.2 C327.2,153.6 294.4,212.8 254,212.8 C213.6,212.8 180.8,153.6 180.8,111.2 C180.8,68.8 213.6,50.4 254,50.4 C294.4,50.4 327.2,68.8 327.2,111.2 Z"/>
    <path fill="#FFD05B" d="M308.4,153.6 C308.4,196.8 284,231.6 254,231.6 C224,231.6 199.6,196.8 199.6,153.6 C199.6,128 208.4,105.2 221.6,90.8 C231.2,100.4 242.8,109.6 256,117.6 C273.6,128.4 291.2,136 307.2,140.4 C308,144.8 308.4,149.2 308.4,153.6 Z"/>
    <path fill="#324A5E" d="M351.6,437.6 L156.4,437.6 C149.6,437.6 143.6,434.4 142.8,430 L118.4,310 C117.2,303.6 122.8,298.4 131.2,298.4 L376.8,298.4 C385.2,298.4 390.8,303.6 389.6,310 L365.2,430 C364.4,434 358.4,437.6 351.6,437.6 Z"/>
    <ellipse cx="254" cy="362.4" fill="#2B3B4E" rx="30" ry="12.8"/>
  </g>
</svg>
