<svg xmlns="http://www.w3.org/2000/svg" width="509" height="509" viewBox="0 0 509 509">
  <g fill="none" transform="translate(.168 .5)">
    <circle cx="254" cy="254" r="254" fill="#E3A900"/>
    <path fill="#F1543F" d="M280,157.6 L227.6,157.6 L159.6,18 C161.2,17.2 162.8,16.8 164.8,16 C166.4,15.2 168,14.8 169.6,14.4 C178,11.6 186.4,9.2 194.8,6.8 C196.4,6.4 198.4,6 200,5.6 C202,5.2 203.6,4.8 205.6,4.4 L254,104 L257.2,110.4 L257.2,110.4 L260,116.4 L274.4,146 L277.2,152 L277.2,152 L280,157.6 Z"/>
    <path fill="#FFD05B" d="M274,157.6 L233.6,157.6 L230.8,152 L164.8,16 C166.4,15.2 168,14.8 169.6,14.4 C178,11.6 186.4,9.2 194.8,6.8 C196.4,6.4 198.4,6 200,5.6 L250.8,110 L254,116.4 L254,116.4 L256.8,122.4 L271.2,152 L271.2,152 L274,157.6 Z"/>
    <path fill="#F1543F" d="M268.4,157.6 L239.6,157.6 L236.8,152.4 L233.6,146 L169.6,14.4 C178,11.6 186.4,9.2 194.8,6.8 L248,116 L251.2,122.4 L251.2,122.4 L254,128.4 L268.4,157.6 Z"/>
    <path fill="#FFF" d="M281.2,207.2 L226.8,207.2 C225.2,207.2 223.6,206 223.2,204.4 L212.4,170 C210.8,165.2 211.6,160 214.8,156 C218,152 222.4,149.6 227.6,149.6 L280.8,149.6 C286,149.6 290.4,152 293.6,156 C296.8,160 297.6,165.2 296,170 L285.6,204.4 C284.4,206 283.2,207.2 281.2,207.2 Z M229.6,199.2 L278.4,199.2 L288,167.6 C288.8,165.2 288.4,162.8 286.8,160.8 C285.2,158.8 283.2,157.6 280.4,157.6 L227.6,157.6 C225.2,157.6 222.8,158.8 221.2,160.8 C219.6,162.8 219.2,165.2 220,167.6 L229.6,199.2 Z"/>
    <path fill="#FFD05B" d="M389.2,341.6 L389.2,341.6 C397.6,333.2 397.6,320 389.2,311.6 L389.2,311.6 C383.2,305.6 381.2,296.4 384.8,288.4 L384.8,288.4 C389.2,277.6 384,265.2 373.2,260.8 L373.2,260.8 C365.2,257.6 360,250 360,241.2 L360,241.2 C360,229.6 350.4,220 338.8,220 L338.8,220 C330.4,220 322.4,214.8 319.2,206.8 L319.2,206.8 C314.8,196 302.4,190.8 291.6,195.2 L291.6,195.2 C283.6,198.4 274.8,196.8 268.4,190.8 L268.4,190.8 C260,182.4 246.8,182.4 238.4,190.8 L238.4,190.8 C232.4,196.8 223.2,198.8 215.2,195.2 L215.2,195.2 C204.4,190.8 192,196 187.6,206.8 L187.6,206.8 C184.4,214.8 176.8,220 168,220 L168,220 C156.4,220 146.8,229.6 146.8,241.2 L146.8,241.2 C146.8,249.6 141.6,257.6 133.6,260.8 L133.6,260.8 C122.8,265.2 117.6,277.6 122,288.4 L122,288.4 C125.2,296.4 123.6,305.2 117.6,311.6 L117.6,311.6 C109.2,320 109.2,333.2 117.6,341.6 L117.6,341.6 C123.6,347.6 125.6,356.8 122,364.8 L122,364.8 C117.6,375.6 122.8,388 133.6,392.4 L133.6,392.4 C141.6,395.6 146.8,403.2 146.8,412 L146.8,412 C146.8,423.6 156.4,433.2 168,433.2 L168,433.2 C176.4,433.2 184.4,438.4 187.6,446.4 L187.6,446.4 C192,457.2 204.4,462.4 215.2,458 L215.2,458 C223.2,454.8 232,456.4 238.4,462.4 L238.4,462.4 C246.8,470.8 260,470.8 268.4,462.4 L268.4,462.4 C274.4,456.4 283.6,454.4 291.6,458 L291.6,458 C302.4,462.4 314.8,457.2 319.2,446.4 L319.2,446.4 C322.4,438.4 330,433.2 338.8,433.2 L338.8,433.2 C350.4,433.2 360,423.6 360,412 L360,412 C360,403.6 365.2,395.6 373.2,392.4 L373.2,392.4 C384,388 389.2,375.6 384.8,364.8 L384.8,364.8 C381.6,356.4 383.2,347.6 389.2,341.6 Z"/>
    <circle cx="254" cy="326.4" r="110.8" fill="#F9B54C"/>
    <g fill="#FFD05B" transform="translate(149 221)">
      <path d="M105,210.2 L105,210.2 C103.4,210.2 102.2,210.2 100.6,210.2 L100.6,205.8 C101.8,205.8 103.4,205.8 104.6,205.8 L105,210.2 Z M109.4,209.8 L109.4,205.4 C110.6,205.4 112.2,205.4 113.4,205 L113.8,209.4 C112.2,209.8 111,209.8 109.4,209.8 Z M96.6,209.8 C95,209.8 93.8,209.4 92.2,209.4 L92.6,205 C93.8,205 95.4,205.4 96.6,205.4 L96.6,209.8 Z M118.2,209.4 L117.8,205 C119,205 120.6,204.6 121.8,204.6 L122.6,208.6 C121,209 119.4,209 118.2,209.4 Z M87.8,208.6 C86.2,208.2 85,208.2 83.4,207.8 L84.2,203.8 C85.4,204.2 87,204.2 88.2,204.6 L87.8,208.6 Z M126.6,207.8 L125.8,203.8 C127,203.4 128.6,203.4 129.8,203 L131,207 C129.4,207 127.8,207.4 126.6,207.8 Z M79.4,207 C77.8,206.6 76.6,206.2 75.4,205.8 L76.6,201.8 C77.8,202.2 79.4,202.6 80.6,203 L79.4,207 Z M135,205.8 L133.8,201.8 C135,201.4 136.6,201 137.8,200.6 L139,204.6 C137.8,205 136.2,205.4 135,205.8 Z M71,204.6 C69.8,204.2 68.2,203.8 67,203 L68.6,199 C69.8,199.4 71,199.8 72.6,200.6 L71,204.6 Z M143,203 L141.4,199 C142.6,198.6 143.8,197.8 145.4,197.4 L147,201.4 C145.8,201.8 144.6,202.2 143,203 Z M63,201.4 C61.8,201 60.2,200.2 59,199.4 L61,195.4 C62.2,196.2 63.4,196.6 64.6,197 L63,201.4 Z M151,199.4 L149,195.4 C150.2,194.6 151.4,194.2 152.6,193.4 L154.6,197 C153.4,198.2 152.2,198.6 151,199.4 Z M55.4,197.4 C54.2,196.6 53,196.2 51.8,195.4 L53.8,191.8 C55,192.6 56.2,193 57.4,193.8 L55.4,197.4 Z M158.6,195.4 L156.6,191.8 C157.8,191 159,190.2 160.2,189.8 L162.6,193.4 C161,193.8 159.8,194.6 158.6,195.4 Z M47.8,193 C46.6,192.2 45.4,191.4 44.2,190.6 L46.6,187 C47.8,187.8 49,188.6 50.2,189.4 L47.8,193 Z M165.8,190.6 L163.4,187 C164.6,186.2 165.8,185.4 166.6,184.6 L169.4,187.8 C168.2,189 167,189.8 165.8,190.6 Z M41,188.2 C39.8,187.4 38.6,186.6 37.8,185.4 L40.6,182.2 C41.8,183 42.6,183.8 43.8,185 L41,188.2 Z M172.6,185.4 L169.8,182.2 C171,181.4 171.8,180.2 173,179.4 L175.8,182.6 C174.6,183.4 173.8,184.2 172.6,185.4 Z M34.2,182.6 C33,181.8 32.2,180.6 31,179.8 L33.8,176.6 C34.6,177.4 35.8,178.6 36.6,179.4 L34.2,182.6 Z M179,179.4 L175.8,176.2 C176.6,175.4 177.8,174.2 178.6,173.4 L181.8,176.2 C181,177.4 179.8,178.2 179,179.4 Z M28.2,176.2 C27.4,175 26.2,174.2 25.4,173 L28.6,170.2 C29.4,171.4 30.6,172.2 31.4,173.4 L28.2,176.2 Z M184.6,173 L181.4,170.2 C182.2,169 183,168.2 184.2,167 L187.4,169.8 C186.6,171 185.8,171.8 184.6,173 Z M22.6,169.8 C21.8,168.6 21,167.4 20.2,166.2 L23.8,163.8 C24.6,165 25.4,166.2 26.2,167 L22.6,169.8 Z M190.2,166.2 L186.6,163.8 C187.4,162.6 188.2,161.4 189,160.2 L192.6,162.6 C191.8,163.8 191,165 190.2,166.2 Z M17.4,162.6 C16.6,161.4 15.8,160.2 15,159 L18.6,157 C19.4,158.2 20.2,159.4 21,160.6 L17.4,162.6 Z M195,159 L191,157 C191.8,155.8 192.2,154.6 193,153.4 L196.6,155.4 C196.2,156.6 195.4,157.8 195,159 Z M13,155.4 C12.2,154.2 11.8,153 11,151.4 L15,149.4 C15.8,150.6 16.2,151.8 17,153 L13,155.4 Z M199,151.4 L195,149.4 C195.8,148.2 196.2,147 196.6,145.8 L200.6,147.4 C200.2,149 199.4,150.2 199,151.4 Z M9.4,147.8 C9,146.6 8.2,145 7.8,143.8 L11.8,142.2 C12.2,143.4 13,144.6 13.4,146.2 L9.4,147.8 Z M202.6,143.4 L198.6,141.8 C199,140.6 199.4,139.4 200.2,137.8 L204.2,139 C203.4,140.6 203,142.2 202.6,143.4 Z M6.2,139.8 C5.8,138.6 5.4,137 5,135.8 L9,134.6 C9.4,135.8 9.8,137.4 10.2,138.6 L6.2,139.8 Z M205.4,135.4 L201.4,134.2 C201.8,133 202.2,131.4 202.6,130.2 L206.6,131.4 C206.2,132.6 205.8,133.8 205.4,135.4 Z M3.8,131.4 C3.4,130.2 3,128.6 3,127 L7,126.2 C7.4,127.4 7.4,129 7.8,130.2 L3.8,131.4 Z M207.4,127 L203.4,126.2 C203.8,125 203.8,123.4 204.2,122.2 L208.2,123 C207.8,124.2 207.8,125.4 207.4,127 Z M1.8,123 C1.4,121.4 1.4,120.2 1,118.6 L5.4,118.2 C5.4,119.4 5.8,121 6.2,122.2 L1.8,123 Z M208.6,118.6 L204.2,118.2 C204.2,117 204.6,115.4 204.6,114.2 L209,114.6 C209,115.4 209,117 208.6,118.6 Z M1,114.2 C1,112.6 0.6,111.4 0.6,109.8 L5,109.8 C5,111 5,112.6 5.4,113.8 L1,114.2 Z M209.4,109.8 L205,109.8 C205,108.6 205,107 205,105.8 L209.4,105.4 L209.4,105.8 C209.4,107 209.4,108.2 209.4,109.8 Z M0.6,105.8 L0.6,105.8 C0.6,104.2 0.6,103 0.6,101.4 L5,101.4 C5,102.6 5,104.2 5,105.4 L0.6,105.8 Z M205.4,101 C205.4,99.8 205.4,98.2 205,97 L209.4,96.6 C209.4,98.2 209.8,99.4 209.8,101 L205.4,101 Z M5,97.4 L0.6,97 C0.6,95.4 1,94.2 1,92.6 L5.4,93 C5.4,94.6 5,96.2 5,97.4 Z M204.6,92.6 C204.6,91.4 204.2,89.8 203.8,88.6 L207.8,87.8 C208.2,89.4 208.2,90.6 208.6,92.2 L204.6,92.6 Z M6.2,89 L2.2,88.2 C2.6,86.6 2.6,85.4 3,83.8 L7,84.6 C6.6,86.6 6.2,87.8 6.2,89 Z M203,84.6 C202.6,83.4 202.2,81.8 202.2,80.6 L206.2,79.4 C206.6,80.6 207,82.2 207,83.8 L203,84.6 Z M7.8,81 L3.8,79.8 C4.2,78.2 4.6,77 5,75.8 L9,77 C8.2,78.2 8.2,79.8 7.8,81 Z M201,76.6 C200.6,75.4 200.2,73.8 199.8,72.6 L203.8,71.4 C204.2,72.6 204.6,74.2 205,75.4 L201,76.6 Z M10.2,73 L6.2,71.8 C6.6,70.6 7,69 7.8,67.8 L11.8,69.4 C11,70.6 10.6,71.8 10.2,73 Z M198.2,68.6 C197.8,67.4 197,66.2 196.6,64.6 L200.6,63 C201,64.2 201.8,65.8 202.2,67 L198.2,68.6 Z M13,65.4 L9,63.8 C9.4,62.6 10.2,61 11,59.8 L15,61.8 C14.2,63 13.4,64.2 13,65.4 Z M195,61 C194.2,59.8 193.8,58.6 193,57.4 L196.6,55.4 C197.4,56.6 197.8,57.8 198.6,59.4 L195,61 Z M16.6,57.8 L13,55.8 C13.8,54.6 14.2,53.4 15,52.2 L18.6,54.2 C18.2,55.4 17.4,56.6 16.6,57.8 Z M191,53.8 C190.2,52.6 189.4,51.4 188.6,50.2 L192.2,47.8 C193,49 193.8,50.2 194.6,51.4 L191,53.8 Z M21,50.6 L17.4,48.2 C18.2,47 19,45.8 19.8,44.6 L23.4,47 C22.6,48.6 21.8,49.8 21,50.6 Z M186.6,47 C185.8,45.8 185,44.6 184.2,43.8 L187.4,41 C188.2,42.2 189,43.4 189.8,44.6 L186.6,47 Z M25.8,44.2 L22.6,41.4 C23.4,40.2 24.2,39 25.4,38.2 L28.6,41 C27.4,41.8 26.6,43 25.8,44.2 Z M181.4,40.6 C180.6,39.4 179.4,38.6 178.6,37.4 L181.8,34.6 C182.6,35.8 183.8,36.6 184.6,37.8 L181.4,40.6 Z M31,37.8 L27.8,35 C28.6,33.8 29.8,33 30.6,31.8 L33.8,34.6 C33,35.8 31.8,36.6 31,37.8 Z M175.8,34.2 C175,33.4 173.8,32.2 173,31.4 L175.8,28.2 C177,29 177.8,30.2 179,31 L175.8,34.2 Z M37,31.8 L34.2,28.6 C35.4,27.8 36.2,26.6 37.4,25.8 L40.2,29 C39,29.8 37.8,31 37,31.8 Z M169.8,28.6 C168.6,27.8 167.8,27 166.6,25.8 L169.4,22.6 C170.6,23.4 171.8,24.2 172.6,25.4 L169.8,28.6 Z M43.4,26.6 L40.6,23.4 C41.8,22.6 43,21.8 44.2,21 L46.6,24.6 C45.4,24.6 44.2,25.4 43.4,26.6 Z M163,23.8 C161.8,23 160.6,22.2 159.4,21.4 L161.8,17.8 C163,18.6 164.2,19.4 165.4,20.2 L163,23.8 Z M49.8,21.8 L47.4,18.2 C48.6,17.4 49.8,16.6 51,15.8 L53,19.4 C52.2,20.2 51,21 49.8,21.8 Z M156.2,19 C155,18.2 153.8,17.8 152.6,17 L154.6,13.4 C155.8,14.2 157,14.6 158.2,15.4 L156.2,19 Z M57,17.4 L55,13.8 C56.2,13 57.4,12.6 59,11.8 L61,15.8 C59.4,16.2 58.2,16.6 57,17.4 Z M148.6,15 C147.4,14.2 146.2,13.8 145,13.4 L146.6,9.4 C147.8,9.8 149.4,10.6 150.6,11.4 L148.6,15 Z M64.6,13.8 L63,9.8 C64.2,9.4 65.8,8.6 67,8.2 L68.6,12.2 C67,12.6 65.8,13 64.6,13.8 Z M141,11.8 C139.8,11.4 138.6,11 137,10.2 L138.2,6.2 C139.4,6.6 141,7 142.2,7.8 L141,11.8 Z M72.2,10.6 L71,6.6 C72.2,6.2 73.8,5.8 75,5.4 L76.2,9.4 C74.6,9.8 73.4,10.2 72.2,10.6 Z M133.4,9.4 C132.2,9 130.6,8.6 129.4,8.2 L130.6,4.2 C132.2,4.6 133.4,5 134.6,5.4 L133.4,9.4 Z M80.2,8.2 L79,4.2 C80.2,3.8 81.8,3.4 83.4,3.4 L84.2,7.4 C82.6,7.8 81.4,7.8 80.2,8.2 Z M125.4,7.4 C124.2,7 122.6,7 121.4,6.6 L122.2,2.6 C123.8,3 125,3 126.6,3.4 L125.4,7.4 Z M88.2,6.6 L87.4,2.6 C89,2.2 90.2,2.2 91.8,1.8 L92.2,6.2 C91,6.2 89.4,6.2 88.2,6.6 Z M117,5.8 C115.8,5.8 114.2,5.4 113,5.4 L113.4,1 C115,1 116.2,1.4 117.8,1.4 L117,5.8 Z M96.6,5.4 L96.2,1 C97.8,1 99,0.6 100.6,0.6 L100.6,5 C99,5.4 97.8,5.4 96.6,5.4 Z M109,5.4 C107.8,5.4 106.6,5.4 105,5.4 L104.6,2.6 L104.6,1.4 L104.6,1.4 C105.8,1.4 107.4,1.4 108.6,1.4 L109,5.4 Z"/>
      <circle cx="105" cy="105.4" r="95.2"/>
    </g>
    <path fill="#FF7058" d="M348.4,18 L280.4,157.6 L228,157.6 L230.8,152 L233.6,146 L248,116.4 L250.8,110.4 L254,104 L302.4,4.4 C304.4,4.8 306,5.2 308,5.6 C309.6,6 311.6,6.4 313.2,6.8 C322,8.8 330.4,11.2 338.4,14.4 C340,14.8 341.6,15.6 343.2,16 C344.8,16.8 346.8,17.6 348.4,18 Z"/>
    <path fill="#FFD05B" d="M343.2,16 L277.2,151.6 L274.4,157.2 L234,157.2 L236.8,152 L251.2,122.4 L254,116.4 L257.2,110 L308,5.6 C309.6,6 311.6,6.4 313.2,6.8 C322,8.8 330.4,11.2 338.4,14.4 C340,14.8 341.6,15.6 343.2,16 Z"/>
    <path fill="#FF7058" d="M338.4,14.4 L274.4,146 L271.2,152.4 L268.4,157.6 L239.6,157.6 L254,128.4 L256.8,122.4 L260,116 L313.2,6.8 C321.6,8.8 330,11.6 338.4,14.4 Z"/>
    <polygon fill="#F9B54C" points="254 244.8 277.6 292.8 330.4 300.4 292 337.6 301.2 390.4 254 365.6 206.8 390.4 216 337.6 177.6 300.4 230.4 292.8"/>
  </g>
</svg>
