<svg xmlns="http://www.w3.org/2000/svg" width="509" height="509" viewBox="0 0 509 509">
  <g fill="none" transform="translate(.288 .5)">
    <circle cx="254" cy="254" r="254" fill="#E3A900"/>
    <g fill="#324A5E" transform="translate(120 110)">
      <path d="M239.2 164.4L118.8 231.6C116 233.2 114.8 236.8 116.4 239.6 117.6 241.6 119.6 242.8 121.6 242.8 122.4 242.8 123.6 242.4 124.4 242L244.8 174.8C247.6 173.2 248.8 169.6 247.2 166.8 245.6 164 242 162.8 239.2 164.4zM10.4 141.6C8 139.2 4.4 139.2 2 141.6-.4 144-.4 147.6 2 150L84.8 232C86 233.2 87.6 233.6 88.8 233.6 90.4 233.6 92 233.2 93.2 232 95.6 229.6 95.6 226 93.2 223.6L10.4 141.6z"/>
      <path d="M249.6,145.2 L133.6,76 C133.2,75.6 132.4,75.6 132,75.2 L226.4,12 C229.2,10 230,6.4 228,3.6 C226,0.8 222.4,-1.77635684e-14 219.6,2 L120.8,68.4 C118,70.4 117.2,74 119.2,76.8 C120.4,78.4 122.4,79.6 124,79.6 C124.4,79.6 124.4,79.6 124.8,79.6 C124.4,80.4 124.4,81.2 124.4,82 C123.6,80.4 121.6,79.2 119.6,79.2 C116.4,79.2 113.6,81.6 113.2,84.8 L102.8,246.4 C102.4,249.6 105.2,252.4 108.4,252.8 L108.8,252.8 C112,252.8 114.4,250.4 114.8,247.2 L125.2,85.6 C125.2,85.2 125.2,84.8 125.2,84.8 C125.6,85.6 126.4,86.4 127.2,86.8 L243.2,156.4 C244,156.8 245.2,157.2 246.4,157.2 C248.4,157.2 250.4,156 251.6,154.4 C253.6,150.8 252.8,147.2 249.6,145.2 Z"/>
    </g>
    <g fill="#FFF" transform="translate(167 141)">
      <circle cx="77" cy="42.6" r="42.4"/>
      <circle cx="64.6" cy="215.4" r="64.4"/>
    </g>
    <circle cx="231.6" cy="356.4" r="48" fill="#FF7058"/>
    <g fill="#FFF" transform="translate(87 87)">
      <circle cx="255.8" cy="29.8" r="29.2"/>
      <circle cx="285.4" cy="177.8" r="47.6"/>
      <circle cx="35" cy="164.2" r="34.4"/>
    </g>
    <circle cx="372.4" cy="264.8" r="34.4" fill="#FFD05B"/>
    <circle cx="342.8" cy="116.8" r="18.4" fill="#E6E9EE"/>
    <circle cx="122" cy="251.2" r="22" fill="#F1543F"/>
    <circle cx="244" cy="183.6" r="29.2" fill="#54C0EB"/>
  </g>
</svg>
