<svg xmlns="http://www.w3.org/2000/svg" width="508" height="509" viewBox="0 0 508 509">
  <g fill="none" transform="translate(0 .081)">
    <circle cx="254" cy="254" r="254" fill="#E3A900"/>
    <path fill="#FFF" d="M374.4,422.4 L157.2,422.4 C146,422.4 136.8,413.2 136.8,402 L136.8,105.6 C136.8,94.4 146,85.2 157.2,85.2 L374.4,85.2 C385.6,85.2 394.8,94.4 394.8,105.6 L394.8,402.4 C394.8,413.6 385.6,422.4 374.4,422.4 Z"/>
    <g fill="#4CDBC4" transform="translate(120 128)">
      <path d="M29.2 12.8L2.8 12.8C1.2 12.8-1.42108547e-14 11.6-1.42108547e-14 10L-1.42108547e-14 2.8C-1.42108547e-14 1.2 1.2 0 2.8 0L29.2 0C30.8 0 32 1.2 32 2.8L32 10C32 11.6 30.8 12.8 29.2 12.8zM29.2 60L2.8 60C1.2 60-1.42108547e-14 58.8-1.42108547e-14 57.2L-1.42108547e-14 50C-1.42108547e-14 48.4 1.2 47.2 2.8 47.2L29.2 47.2C30.8 47.2 32 48.4 32 50L32 57.2C32 58.8 30.8 60 29.2 60zM29.2 107.2L2.8 107.2C1.2 107.2-1.42108547e-14 106-1.42108547e-14 104.4L-1.42108547e-14 97.2C-1.42108547e-14 95.6 1.2 94.4 2.8 94.4L29.2 94.4C30.8 94.4 32 95.6 32 97.2L32 104.4C32 105.6 30.8 107.2 29.2 107.2zM29.2 154L2.8 154C1.2 154-1.42108547e-14 152.8-1.42108547e-14 151.2L-1.42108547e-14 144C-1.42108547e-14 142.4 1.2 141.2 2.8 141.2L29.2 141.2C30.8 141.2 32 142.4 32 144L32 151.2C32 152.8 30.8 154 29.2 154zM29.2 201.2L2.8 201.2C1.2 201.2-1.42108547e-14 200-1.42108547e-14 198.4L-1.42108547e-14 191.2C-1.42108547e-14 189.6 1.2 188.4 2.8 188.4L29.2 188.4C30.8 188.4 32 189.6 32 191.2L32 198.4C32 200 30.8 201.2 29.2 201.2zM29.2 248L2.8 248C1.2 248-1.42108547e-14 246.8-1.42108547e-14 245.2L-1.42108547e-14 238C-1.42108547e-14 236.4 1.2 235.2 2.8 235.2L29.2 235.2C30.8 235.2 32 236.4 32 238L32 245.2C32 246.8 30.8 248 29.2 248z"/>
    </g>
    <g fill="#E6E9EE" transform="translate(183 133)">
      <rect width="124.8" height="15.2" x=".2" y=".2"/>
      <rect width="86.8" height="15.2" x=".2" y="38.2"/>
      <rect width="49.2" height="15.2" x=".2" y="75.8"/>
      <rect width="104" height="15.2" x=".2" y="113.4"/>
      <rect width="120.8" height="15.2" x=".2" y="151"/>
      <rect width="86.8" height="15.2" x=".2" y="189"/>
      <rect width="112" height="15.2" x=".2" y="226.6"/>
      <rect width="48.8" height="15.2" x="133" y=".2"/>
      <rect width="86.8" height="15.2" x="95" y="38.2"/>
      <rect width="124.4" height="15.2" x="57.8" y="75.8"/>
      <rect width="69.6" height="15.2" x="112.2" y="113.4"/>
      <rect width="52.8" height="15.2" x="129" y="151"/>
      <rect width="86.8" height="15.2" x="95" y="189"/>
      <rect width="61.6" height="15.2" x="120.2" y="226.6"/>
    </g>
  </g>
</svg>
