<svg xmlns="http://www.w3.org/2000/svg" width="508" height="508" viewBox="0 0 508 508">
  <g fill="none">
    <circle cx="254" cy="254" r="254" fill="#E3A900"/>
    <g fill="#FF7058" transform="translate(126 86)">
      <path d="M243.2,335.6 L12.8,335.6 C5.6,335.6 1.42108547e-14,330 1.42108547e-14,322.8 L1.42108547e-14,13.2 C1.42108547e-14,6 5.6,0.4 12.8,0.4 L243.2,0.4 C250.4,0.4 256,6 256,13.2 L256,322.8 C256,329.6 250.4,335.6 243.2,335.6 Z"/>
      <path d="M256,13.2 L256,322.8 C256,329.6 250.4,335.6 243.2,335.6 L12.8,335.6 C6,335.6 1.42108547e-14,330 1.42108547e-14,322.8 L1.42108547e-14,13.2 C1.42108547e-14,6.4 5.6,0.4 12.8,0.4 L243.2,0.4 C250.4,0.4 256,6.4 256,13.2 Z"/>
    </g>
    <g fill="#FFF" transform="translate(150 86)">
      <path d="M186 310.8L22 310.8C21.2 310.8 20.4 310 20.4 309.2 20.4 299.2 12.4 291.2 2.4 291.2 1.6 291.2.8 290.4.8 289.6L.8 46.4C.8 45.6 1.6 44.8 2.4 44.8 12.4 44.8 20.4 36.8 20.4 26.8 20.4 26 21.2 25.2 22 25.2L186.4 25.2C187.2 25.2 188 26 188 26.8 188 36.8 196 44.8 206 44.8 206.8 44.8 207.6 45.6 207.6 46.4L207.6 289.6C207.6 290.4 206.8 291.2 206 291.2 196 291.2 188 299.2 188 309.2 187.6 310 187.2 310.8 186 310.8zM23.6 307.6L184.8 307.6C185.6 297.2 194 288.8 204.4 288L204.4 48C194 47.2 185.6 38.8 184.8 28.4L23.6 28.4C22.8 38.8 14.4 47.2 4 48L4 288C14.4 288.8 22.8 297.2 23.6 307.6zM222.8 335.6L178.4 335.6 185.2 324 220.4 324 220.4 288.8 232 282 232 326.4C232 331.2 228 335.6 222.8 335.6zM232 9.6L232 54 220.4 47.2 220.4 12 185.2 12 178.4.4 222.8.4C228 .4 232 4.8 232 9.6z"/>
      <path d="M132.4,103.2 L132.4,146 C129.2,142.4 124,140 118.8,140 C112.8,140 107.2,142.8 104,147.6 C100.8,142.8 95.2,140 89.2,140 C83.6,140 78.8,142.4 75.6,146 L75.6,103.2 L132.4,103.2 Z"/>
    </g>
    <polygon fill="#E6E9EE" points="282.4 189.2 282.4 202 254 212.4 225.6 202 225.6 189.2"/>
    <g fill="#FFF" transform="translate(190 170)">
      <polygon points="64 .4 11.2 19.2 64 38 116.8 19.2"/>
      <rect width="128" height="12" y="100.8"/>
      <rect width="128" height="12" y="124"/>
      <rect width="90.8" height="12" y="147.2"/>
    </g>
  </g>
</svg>
