<svg xmlns="http://www.w3.org/2000/svg" width="508" height="508" viewBox="0 0 508 508">
  <g fill="none">
    <path fill="#E3A900" d="M508,254 C508,394.4 394.4,508 254,508 C113.6,508 0,394.4 0,254 C0,113.6 113.6,0 254,0 C364.8,0 458.8,70.8 493.6,169.6 C501.2,190.8 505.6,213.2 507.2,236.4 C508,242.4 508,248 508,254 Z"/>
    <polygon fill="#E6E9EE" points="380 125.6 165.6 318.4 74 303.6"/>
    <polygon fill="#ACB3BA" points="165.6 318.4 197.2 382.4 205.6 330.4 380 125.6"/>
    <polygon fill="#CED5E0" points="197.2 382.4 380 125.6 205.6 330.4"/>
    <polygon fill="#E6E9EE" points="380 125.6 336.4 360.8 205.6 330.4"/>
  </g>
</svg>
