<svg xmlns="http://www.w3.org/2000/svg" width="509" height="509" viewBox="0 0 509 509">
  <g fill="none" transform="translate(.316 .5)">
    <circle cx="254" cy="254" r="254" fill="#E3A900"/>
    <rect width="37.598" height="183.592" x="285.562" y="160.038" fill="#FFD05B" transform="rotate(-153.192 304.361 251.834)"/>
    <polygon fill="#F9B54C" points="362.4 178.4 364.4 133.2 328.8 161.2"/>
    <polygon fill="#FFD05B" points="363.6 148.8 364.4 133.2 352 142.8"/>
    <rect width="37.6" height="183.602" x="257.99" y="158.809" fill="#4CDBC4" transform="rotate(-179.851 276.79 250.61)"/>
    <polygon fill="#FFD05B" points="296 158.8 277.2 117.6 258.4 158.8"/>
    <polygon fill="#2C9984" points="283.6 132 277.2 117.6 270.8 132"/>
    <rect width="37.602" height="183.612" x="217.601" y="157.57" fill="#FF7058" transform="rotate(171.559 236.402 249.376)"/>
    <polygon fill="#F9B54C" points="241.6 156 216.8 118 204 161.6"/>
    <polygon fill="#F1543F" points="225.2 131.2 216.8 118 212.4 132.8"/>
    <rect width="37.604" height="183.616" x="169.18" y="157.597" fill="#84DBFF" transform="rotate(173.293 187.982 249.405)"/>
    <polygon fill="#F9B54C" points="196 156 172.4 117.2 158.4 160.4"/>
    <polygon fill="#54C0EB" points="180.8 130.8 172.4 117.2 167.6 132"/>
    <polygon fill="#CED5E0" points="332.4 407.2 175.6 407.2 158.4 230 349.6 230"/>
    <path fill="#E3A900" d="M64.4,423.2 C110.8,475.2 178.4,508 254,508 C329.2,508 397.2,475.2 443.6,423.2 L64.4,423.2 Z"/>
    <g fill="#E6E9EE" transform="translate(146 214)">
      <path d="M200 32.4L16 32.4C7.2 32.4 0 25.2 0 16.4L0 16.4C0 7.6 7.2.4 16 .4L200 .4C208.8.4 216 7.6 216 16.4L216 16.4C216.4 25.2 209.2 32.4 200 32.4zM189.2 207.6L26.8 207.6C18.8 207.6 12.4 201.2 12.4 193.2L12.4 193.2C12.4 185.2 18.8 178.8 26.8 178.8L189.2 178.8C197.2 178.8 203.6 185.2 203.6 193.2L203.6 193.2C203.6 201.2 197.2 207.6 189.2 207.6z"/>
    </g>
  </g>
</svg>
