<svg xmlns="http://www.w3.org/2000/svg" width="509" height="508" viewBox="0 0 509 508">
  <g fill="none" transform="translate(.068)">
    <circle cx="254" cy="254" r="254" fill="#E3A900"/>
    <ellipse cx="254" cy="144" fill="#324A5E" rx="70.4" ry="70"/>
    <path fill="#E6E9EE" d="M418,194 C363.6,188 303.2,204.4 254,240 L254,429.2 C303.2,393.2 363.6,376.8 418,383.2 L418,194 Z"/>
    <path fill="#FFF" d="M90,194 C144.4,188 204.8,204.4 254,240 L254,429.2 C204.8,393.2 144.4,376.8 90,383.2 L90,194 Z"/>
    <g fill="#FFD05B" transform="translate(75 120)">
      <path d="M233.4 42C233.4 72 209 96.4 179 96.4 151 96.4 127.8 75.2 125 47.6 135.8 45.2 147.8 39.2 158.6 30 169 21.2 176.6 10.8 181 .8 185.8 7.2 192.6 13.6 200.6 19.2 211.8 27.2 223.4 32.4 233 34 233 37.2 233.4 39.6 233.4 42zM357.4 168C357.4 164 355.4 160.8 352.6 160.8 355 160.8 357.4 157.6 357.4 153.6 357.4 149.6 355.4 146.4 352.6 146.4L333.8 146.4C331.4 146.4 329 149.6 329 153.6 329 157.6 331 160.8 333.8 160.8 331.4 160.8 329 164 329 168 329 172 331 175.2 333.8 175.2 331.4 175.2 329 178.4 329 182.4 329 186.4 331 189.6 333.8 189.6 331.4 189.6 329 192.8 329 196.8 329 200.8 331 204 333.8 204L352.6 204C355 204 357.4 200.8 357.4 196.8 357.4 192.8 355.4 189.6 352.6 189.6 355 189.6 357.4 186.4 357.4 182.4 357.4 178.4 355.4 175.2 352.6 175.2 355 175.2 357.4 172 357.4 168zM29 168C29 164 27 160.8 24.2 160.8 26.6 160.8 29 157.6 29 153.6 29 149.6 27 146.4 24.2 146.4L5.4 146.4C3 146.4.6 149.6.6 153.6.6 157.6 2.6 160.8 5.4 160.8 3 160.8.6 164 .6 168 .6 172 2.6 175.2 5.4 175.2 3 175.2.6 178.4.6 182.4.6 186.4 2.6 189.6 5.4 189.6 3 189.6.6 192.8.6 196.8.6 200.8 2.6 204 5.4 204L24.2 204C26.6 204 29 200.8 29 196.8 29 192.8 27 189.6 24.2 189.6 26.6 189.6 29 186.4 29 182.4 29 178.4 27 175.2 24.2 175.2 27 175.2 29 172 29 168z"/>
    </g>
  </g>
</svg>
