<svg xmlns="http://www.w3.org/2000/svg" width="508" height="508" viewBox="0 0 508 508">
  <g fill="none">
    <circle cx="254" cy="254" r="254" fill="#E3A900"/>
    <path fill="#FFD05B" d="M300,335.6 L208,335.6 L208,141.6 C208,116 228.8,65.6 254,65.6 L254,65.6 C279.6,65.6 300,116 300,141.6 L300,335.6 Z"/>
    <g fill="#324A5E" transform="translate(148 121)">
      <path d="M212 214.6L158.4 214.6 158.4 45C158.4 30.2 170.4.6 185.2.6L185.2.6C200 .6 212 30.2 212 45 212 45 212 214.6 212 214.6zM53.6 214.6L0 214.6 0 45C0 30.2 12 .6 26.8.6L26.8.6C41.6.6 53.6 30.2 53.6 45L53.6 214.6 53.6 214.6z"/>
    </g>
    <path fill="#FF7058" d="M291.2,413.2 C291.2,421.6 276.4,442.4 276.4,442.4 C276.4,442.4 261.6,421.2 261.6,413.2 C261.6,404.8 268.4,398.4 276.4,398.4 C284.4,398.4 291.2,404.8 291.2,413.2 Z"/>
    <path fill="#FFD05B" d="M287.2,416 C287.2,422 276,437.6 276,437.6 C276,437.6 264.8,422 264.8,416 C264.8,410 269.6,404.8 276,404.8 C282.4,404.8 287.2,410 287.2,416 Z"/>
    <path fill="#FF7058" d="M246.8,413.2 C246.8,421.6 232,442.4 232,442.4 C232,442.4 217.2,421.2 217.2,413.2 C217.2,404.8 224,398.4 232,398.4 C240,398.4 246.8,404.8 246.8,413.2 Z"/>
    <path fill="#FFD05B" d="M242.8,416 C242.8,422 231.6,437.6 231.6,437.6 C231.6,437.6 220.4,422 220.4,416 C220.4,410 225.2,404.8 231.6,404.8 C238,404.8 242.8,410 242.8,416 Z"/>
    <g fill="#E6E9EE" transform="translate(121 128)">
      <path d="M239.8 181.6C207 164.4 183 141.6 174.2 115.6 169.4 101.6 166.6 86.8 166.6 72.4L166.6 224.8 265.4 224.8 265.4 216C265.4 202 255.4 190 239.8 181.6zM26.2 181.6C59 164.4 83 141.6 91.8 115.6 96.6 101.6 99.4 86.8 99.4 72.4L99.4 224.8.6 224.8.6 216C.6 202 10.6 190 26.2 181.6zM171.4 60.4C171 39.2 154.2.4 133 .4L133 .4C112.2.4 95 39.2 94.6 60.4L171.4 60.4z"/>
    </g>
    <path fill="#FFF" d="M285.6,362.8 L222.4,362.8 C218.8,362.8 215.6,359.6 215.6,356 L215.6,189.2 C215.6,168 232.8,145.6 254,145.6 L254,145.6 C275.2,145.6 292.4,168 292.4,189.2 L292.4,356 C292.4,359.6 289.2,362.8 285.6,362.8 Z"/>
    <g fill="#E6E9EE" transform="translate(210 138)">
      <ellipse cx="44" cy="10" rx="21.2" ry="9.2"/>
      <path d="M81.2,252 L6.8,252 C2.4,252 -0.8,247.6 0.4,243.2 L4.4,229.2 C5.2,226.4 8,224.4 10.8,224.4 L77.6,224.4 C80.4,224.4 83.2,226.4 84,229.2 L88,243.2 C89.2,247.6 86,252 81.2,252 Z"/>
    </g>
    <g fill="#324A5E" transform="translate(215 390)">
      <polygon points="71 0 48.6 0 42.2 11.6 77.4 11.6"/>
      <polygon points="29.4 0 7 0 .6 11.6 35.8 11.6"/>
    </g>
    <path fill="#84DBFF" d="M284.8,208.4 C276,203.2 265.6,200.4 254,200.4 C242.4,200.4 232,203.6 223.2,208.4 C228,192.8 240,181.6 254,181.6 C268,181.6 279.6,192.8 284.8,208.4 Z"/>
  </g>
</svg>
