<svg xmlns="http://www.w3.org/2000/svg" width="508" height="508" viewBox="0 0 508 508">
  <g fill="none">
    <path fill="#E3A900" d="M508,254 C508,345.6 459.6,425.6 387.2,470.4 C377.6,476.4 367.2,482 356.8,486.4 C325.6,500.4 290.8,508 254,508 C217.2,508 182.8,500.4 151.6,486.4 C141.2,481.6 130.8,476.4 121.2,470.4 C48.4,425.6 0,345.6 0,254 C0,113.6 113.6,0 254,0 C394.4,0 508,113.6 508,254 Z"/>
    <path fill="#FFF" d="M408,213.6 C411.6,208 413.6,201.6 413.6,194.4 C413.6,174 397.2,157.6 376.8,157.6 C374.8,157.6 372.8,157.6 371.2,158 C363.6,127.2 335.6,104 302.4,104 C281.2,104 262.4,113.2 249.6,127.6 C236,113.2 216.4,104 194.8,104 C153.2,104 119.6,137.6 119.6,179.2 C119.6,190 122,200.4 126.4,210 C97.2,214 74.8,238.8 74.8,268.8 C74.8,294.4 91.2,316.4 114,324.8 C113.6,338.8 93.6,374 72.8,384.4 C72.8,384.4 122.8,403.6 168.8,356 C179.6,366.8 194.4,373.2 210.8,373.2 C229.2,373.2 246,364.8 256.8,351.6 C267.6,364.8 284.4,373.2 302.8,373.2 C332.8,373.2 357.6,351.2 361.6,322.4 C369.6,326 378,328.4 387.6,328.4 C420.4,328.4 447.2,301.6 447.2,268.8 C446.4,243.6 430.4,222 408,213.6 Z"/>
    <g fill="#84DBFF" transform="translate(236 162)">
      <path d="M35.6,35.6 C35.6,62.4 27.6,96.8 18,96.8 C8,96.8 0.4,62.4 0.4,35.6 C0.4,8.8 8.4,2.84217094e-14 18,2.84217094e-14 C28,0 35.6,8.8 35.6,35.6 Z"/>
      <circle cx="18" cy="133.2" r="17.6"/>
    </g>
  </g>
</svg>
