<svg xmlns="http://www.w3.org/2000/svg" width="509" height="509" viewBox="0 0 509 509">
  <g fill="none" transform="translate(.25 .081)">
    <path fill="#FFD05B" d="M508,254 C508,394.4 394.4,508 254,508 C113.6,508 0,394.4 0,254 C0,135.2 81.2,35.6 191.2,8 C211.2,2.8 232.4,0 254,0 C275.6,0 296.8,2.8 316.8,8 C426.8,35.6 508,135.2 508,254 Z"/>
    <circle cx="254" cy="254" r="254" fill="#E3A900"/>
    <g fill="#FFF" transform="translate(96 107)">
      <path d="M302.4 271.8L185.2 271.8 185.2 271.4C184.8 270.2 184 269.4 182.8 269.8 178.8 270.6 174.8 271 170.8 271.4 170.4 271.4 170 271.4 170 271.8L150.8 271.8C149.2 271.8 148 271.8 146.4 271.4 146 271.4 145.6 271.4 145.2 271.8L136 271.8C136 271 135.2 269.8 134.4 269.8 130.4 269 126.4 268.2 122.4 267 121.2 266.6 120 267.4 120 268.2 119.6 269.4 120.4 270.6 121.2 270.6 122.4 271 124 271.4 125.2 271.8L14.4 271.8 14.4 275.8 150.4 275.8C153.2 275.8 155.6 276.2 158.4 276.2L158.4 276.2C158.8 276.2 159.2 276.2 159.2 275.8L302 275.8 302 271.8 302.4 271.8 302.4 271.8zM228 251C224.8 253.4 221.2 255.4 217.6 257.4 216.4 257.8 216.4 259 216.8 260.2 217.2 261 218 261.4 218.8 261.4 219.2 261.4 219.6 261.4 219.6 261 223.2 259 226.8 257 230.4 254.6 231.2 253.8 231.6 252.6 230.8 251.8 230 250.6 228.8 250.6 228 251zM227.6 42.6C231.2 45 234.4 47.4 237.6 49.8 238 50.2 238.4 50.2 238.8 50.2 239.2 50.2 240 49.8 240.4 49.4 241.2 48.6 240.8 47.4 240 46.6 236.8 43.8 233.2 41.4 229.6 39 228.8 38.2 227.2 38.6 226.8 39.4 226.4 40.6 226.4 41.8 227.6 42.6zM246.8 235.4C244 238.2 240.8 241 237.6 243.8 236.8 244.6 236.4 245.8 237.2 246.6 237.6 247 238 247.4 238.8 247.4 239.2 247.4 239.6 247.4 240 247 243.2 244.2 246.4 241.4 249.2 238.6 250 237.8 250 236.6 249.2 235.8 248.8 234.6 247.6 234.6 246.8 235.4zM182.4 24.2C186.4 25 190.4 25.8 194.4 27L194.8 27C195.6 27 196.4 26.6 196.8 25.4 197.2 24.2 196.4 23 195.6 23 191.6 21.8 187.6 20.6 183.2 19.8 182 19.4 180.8 20.2 180.8 21.4 180.4 22.6 181.2 23.8 182.4 24.2zM254.8 67C255.2 67.4 255.6 67.8 256.4 67.8 256.8 67.8 257.2 67.8 257.6 67.4 258.4 66.6 258.8 65.4 258 64.6 255.2 61.4 252.4 58.2 249.6 55.4 248.8 54.6 247.6 54.6 246.8 55.4 246 56.2 246 57.4 246.8 58.2 249.6 61 252.4 64.2 254.8 67zM206 31C209.6 32.6 213.6 34.2 217.2 36.2 217.6 36.2 218 36.6 218 36.6 218.8 36.6 219.6 36.2 220 35.4 220.4 34.2 220 33 219.2 32.6 215.6 30.6 211.6 29 207.6 27.4 206.4 27 205.2 27.4 204.8 28.6 204.4 29.4 204.8 30.6 206 31zM283.6 146.6L283.6 147C283.6 151 283.2 155.4 283.2 159.4 283.2 160.6 284 161.4 285.2 161.8 285.2 161.8 285.2 161.8 285.6 161.8 286.8 161.8 287.6 161 287.6 159.8 288 155.8 288.4 151.4 288.4 147L288.4 146.6C288.4 145.4 287.6 144.6 286.4 144.6 284.4 144.6 283.6 145.4 283.6 146.6zM262.4 216.6C260 219.8 257.6 223.4 255.2 226.6 254.4 227.4 254.8 228.6 255.6 229.4 256 229.8 256.4 229.8 256.8 229.8 257.2 229.8 258 229.4 258.4 229 261.2 225.8 263.6 222.2 266 219 266.8 218.2 266.4 216.6 265.6 216.2 264.4 215.4 263.2 215.8 262.4 216.6zM158 21.8L158.4 21.8C162.4 21.8 166.4 21.8 170.4 22.2L170.4 22.2C171.6 22.2 172.4 21.4 172.4 20.2 172.4 19 171.6 18.2 170.4 17.8 166.4 17.4 162.4 17.4 158 17.4L158 17.4C156.8 17.4 156 18.2 156 19.4 156 21 156.8 21.8 158 21.8zM281.2 122.2C282 126.2 282.8 130.2 283.2 134.2 283.2 135.4 284.4 136.2 285.2 136.2 285.2 136.2 285.2 136.2 285.6 136.2 286.8 136.2 287.6 135 287.6 133.8 287.2 129.8 286.4 125.4 285.6 121.4 285.2 120.2 284.4 119.4 283.2 119.8 281.6 119.8 280.8 121 281.2 122.2zM283.6 169.8C282.4 169.4 281.2 170.2 281.2 171.4 280.4 175.4 279.6 179.4 278.4 183.4 278 184.6 278.8 185.8 279.6 185.8 280 185.8 280 185.8 280 185.8 280.8 185.8 281.6 185.4 282 184.2 283.2 180.2 284.4 176.2 285.2 171.8 285.6 171 284.8 170.2 283.6 169.8zM278 110.2C278.4 111 279.2 111.8 280 111.8 280.4 111.8 280.4 111.8 280.8 111.8 282 111.4 282.4 110.2 282 109.4 280.8 105.4 279.2 101.4 277.6 97.4 277.2 96.2 276 95.8 274.8 96.2 273.6 96.6 273.2 97.8 273.6 99 275.6 102.2 276.8 106.2 278 110.2zM268.4 87.4C268.8 88.2 269.6 88.6 270.4 88.6 270.8 88.6 271.2 88.6 271.2 88.2 272.4 87.8 272.4 86.6 272 85.4 270 81.8 267.6 78.2 265.6 74.6 264.8 73.8 263.6 73.4 262.8 74.2 262 75 261.6 76.2 262.4 77 264.4 80.6 266.8 83.8 268.4 87.4zM274 195C272.4 198.6 270.8 202.6 268.8 206.2 268.4 207.4 268.8 208.6 269.6 209 270 209 270.4 209.4 270.4 209.4 271.2 209.4 272 209 272.4 208.2 274.4 204.6 276.4 200.6 278 196.6 278.4 195.4 278 194.2 276.8 193.8 275.6 193.4 274.4 193.8 274 195z"/>
      <path d="M206.4 262.6C202.8 264.2 198.8 265.4 194.8 266.6 193.6 267 193.2 268.2 193.6 269 194 269.8 194.8 270.6 195.6 270.6 195.6 270.6 196 270.6 196.4 270.6 200.4 269.4 204.4 267.8 208.4 266.2 209.6 265.8 210 264.6 209.6 263.4 208.4 262.6 207.2 262.2 206.4 262.6zM133.2 24.2L133.6 24.2C137.6 23.4 141.6 22.6 145.6 22.2 146.8 22.2 147.6 21 147.6 19.8 147.6 18.6 146.4 17.8 145.2 17.8 140.8 18.2 136.8 19 132.8 19.8 131.6 20.2 130.8 21 131.2 22.2 131.2 23.4 132 24.2 133.2 24.2zM39.6 100.6C40 100.6 40 100.6 40.4 100.6 41.2 100.6 42 100.2 42.4 99.4 44 95.8 45.6 91.8 47.6 88.2 48 87 47.6 85.8 46.8 85.4 45.6 85 44.4 85.4 44 86.2 42 89.8 40.4 93.8 38.4 97.8 38 99 38.8 100.2 39.6 100.6zM45.2 205.4C44 205.8 44 207 44.4 208.2 46.4 211.8 48.4 215.4 50.8 219 51.2 219.4 52 219.8 52.4 219.8 52.8 219.8 53.2 219.8 53.6 219.4 54.4 218.6 54.8 217.4 54 216.6 51.6 213.4 49.6 209.8 47.6 206.2 47.2 205.4 46 205 45.2 205.4zM30.8 149C32 149 32.8 147.8 32.8 147 32.8 143 32.8 139 33.2 135 33.2 133.8 32.4 133 31.2 132.6 30 132.6 29.2 133.4 28.8 134.6 28.4 138.6 28.4 143 28.4 147L28.4 147.4C28.8 148.6 30 149 30.8 149zM52.4 78.6C53.2 78.6 53.6 78.2 54 77.8 56.4 74.2 58.8 71 61.2 67.8 62 67 61.6 65.8 60.8 65 60 64.2 58.8 64.6 58 65.4 55.2 68.6 52.8 72.2 50.4 75.8 49.6 76.6 50 78.2 50.8 78.6 51.6 78.6 52 78.6 52.4 78.6zM32.8 124.6C33.2 124.6 33.2 124.6 32.8 124.6 34 124.6 35.2 123.8 35.2 123 36 119 36.8 115 38 111 38.4 109.8 37.6 108.6 36.8 108.6 35.6 108.2 34.4 109 34.4 109.8 33.2 113.8 32 117.8 31.2 122.2 31.2 123 31.6 124.2 32.8 124.6zM33.6 159.4C33.6 158.2 32.4 157.4 31.2 157.4 30 157.4 29.2 158.6 29.2 159.8 29.6 164.2 30.4 168.2 31.2 172.2 31.2 173 32.4 173.8 33.2 173.8L33.6 173.8C34.8 173.4 35.6 172.6 35.2 171.4 34.8 167.8 34 163.8 33.6 159.4zM38.8 196.6C39.2 197.4 40 197.8 40.8 197.8 41.2 197.8 41.2 197.8 41.6 197.8 42.8 197.4 43.2 196.2 42.8 195 41.2 191.4 40 187.4 38.8 183.4 38.4 182.2 37.2 181.8 36.4 182.2 35.2 182.6 34.8 183.8 35.2 184.6 35.6 189 37.2 193 38.8 196.6zM87.2 43.4C87.6 43.4 88 43.4 88.4 43 91.6 40.6 95.2 38.6 98.8 36.6 99.6 36.2 100 35 99.6 33.8 99.2 32.6 98 32.6 96.8 33 93.2 35 89.6 37.4 86 39.4 85.2 40.2 84.8 41.4 85.6 42.2 86 43 86.4 43.4 87.2 43.4zM99.2 257.4C98 257 96.8 257.4 96.4 258.2 96 259.4 96.4 260.6 97.2 261 100.8 263 104.8 265 108.8 266.6 109.2 266.6 109.2 266.6 109.6 266.6 110.4 266.6 111.2 266.2 111.6 265.4 112 264.2 111.6 263 110.4 262.6 106.8 261.4 102.8 259.4 99.2 257.4zM58.8 226.2C58 227 57.6 228.2 58.4 229 61.2 232.2 64 235.4 66.8 238.2 67.2 238.6 67.6 239 68.4 239 68.8 239 69.6 238.6 70 238.2 70.8 237.4 70.8 236.2 70 235.4 67.2 232.6 64.4 229.4 61.6 226.2 60.8 225.8 59.6 225.8 58.8 226.2zM109.2 31.4C109.6 31.4 109.6 31.4 110 31.4 113.6 29.8 117.6 28.6 121.6 27.4 122.8 27 123.2 25.8 122.8 25 122.4 23.8 121.2 23.4 120.4 23.8 116.4 25 112.4 26.6 108.4 28.2 107.2 28.6 106.8 29.8 107.2 31 107.6 31 108.4 31.4 109.2 31.4zM76 244.2C75.2 245 75.6 246.2 76.4 247 79.6 249.8 83.2 252.2 86.4 254.6 86.8 255 87.2 255 87.6 255 88.4 255 88.8 254.6 89.2 254.2 90 253.4 89.6 251.8 88.8 251.4 85.6 249 82 246.6 78.8 244.2 78 243.4 76.8 243.4 76 244.2zM68 59.4C68.4 59.4 69.2 59 69.6 58.6 72.4 55.8 75.6 53 78.8 50.2 79.6 49.4 80 48.2 79.2 47.4 78.4 46.6 77.2 46.2 76.4 47 73.2 49.8 70 52.6 67.2 55.4 66.4 56.2 66.4 57.4 67.2 58.2 66.8 59 67.6 59.4 68 59.4zM301.6 166.6L268.8 166.6C266.8 166.6 265.6 165 265.6 163.4L265.6 130.6C265.6 128.6 267.2 127.4 268.8 127.4L301.6 127.4C303.6 127.4 304.8 129 304.8 130.6L304.8 163.4C304.8 165.4 303.2 166.6 301.6 166.6z"/>
      <path d="M47.2 166.6L14.4 166.6C12.4 166.6 11.2 165 11.2 163.4L11.2 130.6C11.2 128.6 12.8 127.4 14.4 127.4L47.2 127.4C49.2 127.4 50.4 129 50.4 130.6L50.4 163.4C50.8 165.4 49.2 166.6 47.2 166.6zM138.4 290.6L138.4 257.8C138.4 255.8 140 254.6 141.6 254.6L174.4 254.6C176.4 254.6 177.6 256.2 177.6 257.8L177.6 290.6C177.6 292.6 176 293.8 174.4 293.8L141.6 293.8C139.6 293.8 138.4 292.2 138.4 290.6zM138.4 36.2L138.4 3.4C138.4 1.4 140 .2 141.6.2L174.4.2C176.4.2 177.6 1.8 177.6 3.4L177.6 36.2C177.6 38.2 176 39.4 174.4 39.4L141.6 39.4C139.6 39.8 138.4 38.2 138.4 36.2z"/>
      <circle cx="300" cy="274.2" r="15.2"/>
      <circle cx="16" cy="274.2" r="15.2"/>
    </g>
    <path fill="#324A5E" d="M268.8,273.2 C268.8,265.2 262.4,258.4 254,258.4 C246,258.4 239.2,264.8 239.2,273.2 C239.2,280.4 244.4,286.4 250.8,287.6 L250.8,342 L178.8,268.8 C206.4,234 224.4,200.4 230,185.6 L278,185.6 C283.6,200.4 301.6,234 328.8,269.2 L256.8,342 L256.8,287.2 C263.6,286 268.8,280 268.8,273.2 Z"/>
    <path fill="#FF7058" d="M316.8,8 L304,182.8 C303.2,192.4 295.2,200 285.6,200 L222.8,200 C213.2,200 204.8,192.4 204.4,182.8 L191.2,8 C211.2,2.8 232.4,0 254,0 C275.6,0 296.8,2.8 316.8,8 Z"/>
  </g>
</svg>
